SplineFontDB: 3.0
FontName: sinhala-template
FullName: sinhala-template
FamilyName: sinhala-template
Weight: Book
Copyright: Copyright (c) 2013 STICK NO BILLS, Copyright (c) 2015 mooniak\n
Version: 1.0.1
ItalicAngle: 0
UnderlinePosition: -152
UnderlineWidth: 51
Ascent: 819
Descent: 205
InvalidEm: 0
sfntRevision: 0x00010000
LayerCount: 3
Layer: 0 1 "Back" 1
Layer: 1 1 "Fore" 0
Layer: 2 0 "preview" 1
PreferredKerning: 4
XUID: [1021 59 -1845969167 11200842]
FSType: 0
OS2Version: 1
OS2_WeightWidthSlopeOnly: 0
OS2_UseTypoMetrics: 1
CreationTime: 1429518268
ModificationTime: 1438267783
PfmFamily: 17
TTFWeight: 400
TTFWidth: 5
LineGap: 94
VLineGap: 0
Panose: 2 0 5 3 0 0 0 0 0 0
OS2TypoAscent: 819
OS2TypoAOffset: 0
OS2TypoDescent: -205
OS2TypoDOffset: 0
OS2TypoLinegap: 94
OS2WinAscent: 918
OS2WinAOffset: 0
OS2WinDescent: 205
OS2WinDOffset: 0
HheadAscent: 918
HheadAOffset: 0
HheadDescent: -205
HheadDOffset: 0
OS2SubXSize: 665
OS2SubYSize: 716
OS2SubXOff: 0
OS2SubYOff: 143
OS2SupXSize: 665
OS2SupYSize: 716
OS2SupXOff: 0
OS2SupYOff: 491
OS2StrikeYSize: 51
OS2StrikeYPos: 265
OS2CapHeight: 0
OS2XHeight: 0
OS2Vendor: 'PfEd'
OS2CodePages: 00000001.00000000
OS2UnicodeRanges: 00000002.00000000.00000000.00000000
Lookup: 4 0 0 "mooniak-base-tamil-'akhn' Akhand lookup 0" { "mooniak-base-tamil-'akhn' Akhand lookup 0 subtable"  } ['akhn' ('taml' <'dflt' > 'tml2' <'dflt' > ) ]
Lookup: 4 0 0 "mooniak-base-tamil-'abvs' Above Base Substitutions lookup 1" { "mooniak-base-tamil-'abvs' Above Base Substitutions lookup 1 subtable"  } ['abvs' ('taml' <'dflt' > 'tml2' <'dflt' > ) ]
Lookup: 6 0 0 "mooniak-base-tamil-'abvs' Above Base Substitutions lookup 2" { "mooniak-base-tamil-'abvs' Above Base Substitutions lookup 2 subtable"  } ['abvs' ('taml' <'dflt' > 'tml2' <'dflt' > ) ]
Lookup: 4 0 0 "mooniak-base-tamil-'psts' Post Base Substitutions lookup 3" { "mooniak-base-tamil-'psts' Post Base Substitutions lookup 3 subtable"  } ['psts' ('taml' <'dflt' > 'tml2' <'dflt' > ) ]

StartChar: anusvara
Encoding: 0 3458 1
GlifName: anusvara
Width: 0
Flags: W
LayerCount: 3
Back
Fore
Layer: 2
SplineSet
193 282 m 0
 145.666666667 259.333333333 115.666666667 224.666666667 103 178 c 0
 89.6666666667 130.666666667 104 99 146 83 c 0
 172.666666667 72.3333333333 203.166666667 70.1666666667 237.5 76.5 c 128
 271.833333333 82.8333333333 299.333333333 98.6666666667 320 124 c 0
 330.666666667 137.333333333 338.333333333 154.333333333 343 175 c 128
 347.666666667 195.666666667 346.666666667 214.833333333 340 232.5 c 128
 333.333333333 250.166666667 322.666666667 264.5 308 275.5 c 128
 293.333333333 286.5 276 293 256 295 c 128
 236 297 215 292.666666667 193 282 c 0
50 178 m 1
 66 245.333333333 109.333333333 295 180 327 c 0
 220.666666667 346.333333333 259.5 351.166666667 296.5 341.5 c 128
 333.5 331.833333333 361.333333333 311.666666667 380 281 c 0
 398.666666667 249.666666667 403.333333333 213.666666667 394 173 c 0
 384.666666667 131.666666667 363.5 95.8333333333 330.5 65.5 c 128
 297.5 35.1666666667 260.333333333 15 219 5 c 0
 178.333333333 -5 143 -1 113 17 c 0
 55 50.3333333333 33.6666666667 100.666666667 49 168 c 1
 50 178 l 1
EndSplineSet
EndChar

StartChar: visarga
Encoding: 1 3459 2
GlifName: visarga
Width: 0
Flags: W
LayerCount: 3
Back
Fore
Layer: 2
SplineSet
155 378 m 1
 151.666666667 355.333333333 157.666666667 339.666666667 173 331 c 0
 189 323 206.666666667 323.333333333 226 332 c 128
 245.333333333 340.666666667 257.5 356 262.5 378 c 128
 267.5 400 262.5 415.333333333 247.5 424 c 128
 232.5 432.666666667 215 433 195 425 c 0
 175 416.333333333 161.666666667 400.666666667 155 378 c 1
105 383 m 1
 116.333333333 419 137 445.666666667 167 463 c 0
 197.666666667 480.333333333 227.666666667 485.666666667 257 479 c 0
 286.333333333 471.666666667 305.333333333 454 314 426 c 0
 318 412 318 396 314 378 c 0
 306 343.333333333 287 316 257 296 c 0
 226.333333333 276 195.666666667 269.333333333 165 276 c 0
 133.666666667 280.666666667 113.333333333 298.333333333 104 329 c 0
 100.666666667 341 100.333333333 355.666666667 103 373 c 2
 105 383 l 1
94 111 m 1
 90.6666666667 88.3333333333 96.8333333333 72.6666666667 112.5 64 c 128
 128.166666667 55.3333333333 145.666666667 55.3333333333 165 64 c 128
 184.333333333 72.6666666667 196.666666667 88.3333333333 202 111 c 0
 206.666666667 133.666666667 201.333333333 149.333333333 186 158 c 256
 170.666666667 166.666666667 153.333333333 166.666666667 134 158 c 0
 114 149.333333333 100.666666667 133.666666667 94 111 c 1
43 115 m 2
 54.3333333333 151.666666667 75.3333333333 178.833333333 106 196.5 c 128
 136.666666667 214.166666667 166.666666667 219.333333333 196 212 c 128
 225.333333333 204.666666667 244 187 252 159 c 0
 256.666666667 145 257 129 253 111 c 0
 245 77 225.666666667 50 195 30 c 0
 164.333333333 9.33333333333 133.666666667 2 103 8 c 0
 71.6666666667 13.3333333333 51.6666666667 31.3333333333 43 62 c 0
 39.6666666667 74.6666666667 39 89.6666666667 41 107 c 2
 43 115 l 2
EndSplineSet
EndChar

StartChar: si_A
Encoding: 2 3461 3
GlifName: si_A_
Width: 0
Flags: W
LayerCount: 3
Back
Fore
Layer: 2
SplineSet
516 466 m 1
 492 442.666666667 476.666666667 426.166666667 470 416.5 c 128
 463.333333333 406.833333333 457 390.333333333 451 367 c 2
 442 325 l 1
 446 316.333333333 453 309.833333333 463 305.5 c 128
 473 301.166666667 483.333333333 299.666666667 494 301 c 128
 504.666666667 302.333333333 514.166666667 307.333333333 522.5 316 c 128
 530.833333333 324.666666667 535.333333333 335.5 536 348.5 c 128
 536.666666667 361.5 535.5 372 532.5 380 c 128
 529.5 388 525.333333333 398.666666667 520 412 c 128
 514.666666667 425.333333333 513 439 515 453 c 2
 516 466 l 1
220 55 m 0
 255.333333333 47 295 46 339 52 c 1
 412 368 l 1
 380.666666667 378 344.666666667 378.666666667 304 370 c 0
 236 356.666666667 184 323.666666667 148 271 c 0
 135.333333333 253.666666667 126.333333333 231.833333333 121 205.5 c 128
 115.666666667 179.166666667 116.333333333 155.333333333 123 134 c 0
 137 93.3333333333 169.333333333 67 220 55 c 0
402 148 m 1
 388 84 l 1
 382 63 l 1
 388 64.3333333333 395 66.3333333333 403 69 c 2
 437 80 l 2
 452.333333333 85.3333333333 463 87.6666666667 469 87 c 128
 475 86.3333333333 479.333333333 83.5 482 78.5 c 128
 484.666666667 73.5 482.666666667 66.6666666667 476 58 c 0
 464 48 438 38 398 28 c 0
 388.666666667 25.3333333333 380.333333333 22.6666666667 373 20 c 1
 328 -174 l 2
 326.666666667 -180.666666667 323.666666667 -185.166666667 319 -187.5 c 128
 314.333333333 -189.833333333 309.666666667 -191 305 -191 c 0
 291.666666667 -191 286 -185.333333333 288 -174 c 2
 331 12 l 1
 307 8.66666666667 282.666666667 7 258 7 c 128
 233.333333333 7 210 9.33333333333 188 14 c 0
 106.666666667 29.3333333333 60 69 48 133 c 0
 40.6666666667 177 47 220.666666667 67 264 c 0
 92.3333333333 317.333333333 135.833333333 357.5 197.5 384.5 c 128
 259.166666667 411.5 332 420 416 410 c 1
 420 440 412 460.833333333 392 472.5 c 128
 372 484.166666667 348.166666667 486.833333333 320.5 480.5 c 128
 292.833333333 474.166666667 272 461.666666667 258 443 c 1
 257 442 l 2
 240.333333333 424.666666667 221 418.666666667 199 424 c 0
 185 426 177.166666667 430.333333333 175.5 437 c 128
 173.833333333 443.666666667 173.833333333 450.666666667 175.5 458 c 128
 177.166666667 465.333333333 184 474.666666667 196 486 c 128
 208 497.333333333 225 507.166666667 247 515.5 c 128
 269 523.833333333 291.333333333 528.333333333 314 529 c 0
 364 531.666666667 402.666666667 522.333333333 430 501 c 0
 444 489.666666667 452.333333333 473.666666667 455 453 c 1
 473 475.666666667 491 493.333333333 509 506 c 128
 527 518.666666667 547 527 569 531 c 0
 578.333333333 531.666666667 583.833333333 529.333333333 585.5 524 c 128
 587.166666667 518.666666667 587.5 514.166666667 586.5 510.5 c 128
 585.5 506.833333333 583 503 579 499 c 0
 570.333333333 491 564.5 480.833333333 561.5 468.5 c 128
 558.5 456.166666667 559.666666667 445.333333333 565 436 c 0
 574.333333333 418.666666667 581.833333333 402.333333333 587.5 387 c 128
 593.166666667 371.666666667 592.833333333 354.833333333 586.5 336.5 c 128
 580.166666667 318.166666667 572 303.666666667 562 293 c 0
 541.333333333 267 516.666666667 254 488 254 c 0
 469.333333333 254 455.333333333 256.5 446 261.5 c 128
 436.666666667 266.5 431.333333333 270.666666667 430 274 c 1
 426.666666667 258.666666667 423.666666667 243.333333333 421 228 c 2
 402 148 l 1
EndSplineSet
EndChar

StartChar: si_Aa
Encoding: 3 3462 4
GlifName: si_A_a
Width: 0
Flags: W
LayerCount: 3
Back
Fore
Layer: 2
SplineSet
547 75 m 0
 547 85 552.333333333 92 563 96 c 0
 573.666666667 99.3333333333 581.666666667 95.3333333333 587 84 c 0
 600.333333333 56.6666666667 617 44 637 46 c 0
 674.333333333 48 707 98.3333333333 735 197 c 0
 777.666666667 343.666666667 775.666666667 419.666666667 729 425 c 0
 704.333333333 427 680.333333333 415 657 389 c 0
 647 377.666666667 637.833333333 373 629.5 375 c 128
 621.166666667 377 618.333333333 384.333333333 621 397 c 1
 627.666666667 409.666666667 636.666666667 420.666666667 648 430 c 0
 671.333333333 449.333333333 698 461 728 465 c 0
 758 468.333333333 781.333333333 460 798 440 c 0
 824 408.666666667 833.666666667 363.333333333 827 304 c 128
 820.333333333 244.666666667 807.666666667 193 789 149 c 0
 762.333333333 85.6666666667 727 42 683 18 c 0
 653.666666667 2.66666666667 624.5 1.16666666667 595.5 13.5 c 128
 566.5 25.8333333333 550.333333333 46.3333333333 547 75 c 0
516 466 m 1
 492 442.666666667 476.666666667 426.166666667 470 416.5 c 128
 463.333333333 406.833333333 457 390.333333333 451 367 c 2
 442 325 l 1
 446 316.333333333 453 309.833333333 463 305.5 c 128
 473 301.166666667 483.333333333 299.666666667 494 301 c 128
 504.666666667 302.333333333 514.166666667 307.333333333 522.5 316 c 128
 530.833333333 324.666666667 535.333333333 335.5 536 348.5 c 128
 536.666666667 361.5 535.5 372 532.5 380 c 128
 529.5 388 525.333333333 398.666666667 520 412 c 128
 514.666666667 425.333333333 513 439 515 453 c 2
 516 466 l 1
220 55 m 0
 255.333333333 47 295 46 339 52 c 1
 412 368 l 1
 380.666666667 378 344.666666667 378.666666667 304 370 c 0
 236 356.666666667 184 323.666666667 148 271 c 0
 135.333333333 253.666666667 126.333333333 231.833333333 121 205.5 c 128
 115.666666667 179.166666667 116.333333333 155.333333333 123 134 c 0
 137 93.3333333333 169.333333333 67 220 55 c 0
402 148 m 1
 388 84 l 1
 382 63 l 1
 388 64.3333333333 395 66.3333333333 403 69 c 2
 437 80 l 2
 452.333333333 85.3333333333 463 87.6666666667 469 87 c 128
 475 86.3333333333 479.333333333 83.5 482 78.5 c 128
 484.666666667 73.5 482.666666667 66.6666666667 476 58 c 0
 464 48 438 38 398 28 c 0
 388.666666667 25.3333333333 380.333333333 22.6666666667 373 20 c 1
 328 -174 l 2
 326.666666667 -180.666666667 323.666666667 -185.166666667 319 -187.5 c 128
 314.333333333 -189.833333333 309.666666667 -191 305 -191 c 0
 291.666666667 -191 286 -185.333333333 288 -174 c 2
 331 12 l 1
 307 8.66666666667 282.666666667 7 258 7 c 128
 233.333333333 7 210 9.33333333333 188 14 c 0
 106.666666667 29.3333333333 60 69 48 133 c 0
 40.6666666667 177 47 220.666666667 67 264 c 0
 92.3333333333 317.333333333 135.833333333 357.5 197.5 384.5 c 128
 259.166666667 411.5 332 420 416 410 c 1
 420 440 412 460.833333333 392 472.5 c 128
 372 484.166666667 348.166666667 486.833333333 320.5 480.5 c 128
 292.833333333 474.166666667 272 461.666666667 258 443 c 1
 257 442 l 2
 240.333333333 424.666666667 221 418.666666667 199 424 c 0
 185 426 177.166666667 430.333333333 175.5 437 c 128
 173.833333333 443.666666667 173.833333333 450.666666667 175.5 458 c 128
 177.166666667 465.333333333 184 474.666666667 196 486 c 128
 208 497.333333333 225 507.166666667 247 515.5 c 128
 269 523.833333333 291.333333333 528.333333333 314 529 c 0
 364 531.666666667 402.666666667 522.333333333 430 501 c 0
 444 489.666666667 452.333333333 473.666666667 455 453 c 1
 473 475.666666667 491 493.333333333 509 506 c 128
 527 518.666666667 547 527 569 531 c 0
 578.333333333 531.666666667 583.833333333 529.333333333 585.5 524 c 128
 587.166666667 518.666666667 587.5 514.166666667 586.5 510.5 c 128
 585.5 506.833333333 583 503 579 499 c 0
 570.333333333 491 564.5 480.833333333 561.5 468.5 c 128
 558.5 456.166666667 559.666666667 445.333333333 565 436 c 0
 574.333333333 418.666666667 581.833333333 402.333333333 587.5 387 c 128
 593.166666667 371.666666667 592.833333333 354.833333333 586.5 336.5 c 128
 580.166666667 318.166666667 572 303.666666667 562 293 c 0
 541.333333333 267 516.666666667 254 488 254 c 0
 469.333333333 254 455.333333333 256.5 446 261.5 c 128
 436.666666667 266.5 431.333333333 270.666666667 430 274 c 1
 426.666666667 258 423.666666667 242.666666667 421 228 c 2
 402 148 l 1
EndSplineSet
EndChar

StartChar: si_Ae
Encoding: 4 3463 5
GlifName: si_A_e
Width: 0
Flags: W
LayerCount: 3
Back
Fore
Layer: 2
SplineSet
617.5 325 m 128
 619.833333333 335 627.666666667 341.333333333 641 344 c 1
 787 344 l 2
 795.666666667 344 800 340.833333333 800 334.5 c 128
 800 328.166666667 796.666666667 320.666666667 790 312 c 0
 721.333333333 246 674.666666667 175 650 99 c 0
 631.333333333 43 630.166666667 2.16666666667 646.5 -23.5 c 128
 662.833333333 -49.1666666667 688.333333333 -48.3333333333 723 -21 c 0
 735.666666667 -14.3333333333 744.666666667 -14.3333333333 750 -21 c 0
 755.333333333 -27 754 -35.6666666667 746 -47 c 1
 720 -67.6666666667 692 -79.5 662 -82.5 c 128
 632 -85.5 608 -80 590 -66 c 0
 555.333333333 -39.3333333333 553.833333333 11.6666666667 585.5 87 c 128
 617.166666667 162.333333333 668 235 738 305 c 1
 631 305 l 1
 619.666666667 308.333333333 615.166666667 315 617.5 325 c 128
516 466 m 1
 492 442.666666667 476.666666667 426.166666667 470 416.5 c 128
 463.333333333 406.833333333 457 390.333333333 451 367 c 2
 442 325 l 1
 446 316.333333333 453 309.833333333 463 305.5 c 128
 473 301.166666667 483.333333333 299.666666667 494 301 c 128
 504.666666667 302.333333333 514.166666667 307.333333333 522.5 316 c 128
 530.833333333 324.666666667 535.333333333 335.5 536 348.5 c 128
 536.666666667 361.5 535.5 372 532.5 380 c 128
 529.5 388 525.333333333 398.666666667 520 412 c 128
 514.666666667 425.333333333 513 439 515 453 c 2
 516 466 l 1
220 55 m 0
 255.333333333 47 295 46 339 52 c 1
 412 368 l 1
 380.666666667 378 344.666666667 378.666666667 304 370 c 0
 236 356.666666667 184 323.666666667 148 271 c 0
 135.333333333 253.666666667 126.333333333 231.833333333 121 205.5 c 128
 115.666666667 179.166666667 116.333333333 155.333333333 123 134 c 0
 137 93.3333333333 169.333333333 67 220 55 c 0
402 148 m 1
 388 84 l 1
 382 63 l 1
 388 64.3333333333 395 66.3333333333 403 69 c 2
 437 80 l 2
 452.333333333 85.3333333333 463 87.6666666667 469 87 c 128
 475 86.3333333333 479.333333333 83.5 482 78.5 c 128
 484.666666667 73.5 482.666666667 66.6666666667 476 58 c 0
 464 48 438 38 398 28 c 0
 388.666666667 25.3333333333 380.333333333 22.6666666667 373 20 c 1
 328 -174 l 2
 326.666666667 -180.666666667 323.666666667 -185.166666667 319 -187.5 c 128
 314.333333333 -189.833333333 309.666666667 -191 305 -191 c 0
 291.666666667 -191 286 -185.333333333 288 -174 c 2
 331 12 l 1
 307 8.66666666667 282.666666667 7 258 7 c 128
 233.333333333 7 210 9.33333333333 188 14 c 0
 106.666666667 29.3333333333 60 69 48 133 c 0
 40.6666666667 177 47 220.666666667 67 264 c 0
 92.3333333333 317.333333333 135.833333333 357.5 197.5 384.5 c 128
 259.166666667 411.5 332 420 416 410 c 1
 420 440 412 460.833333333 392 472.5 c 128
 372 484.166666667 348.166666667 486.833333333 320.5 480.5 c 128
 292.833333333 474.166666667 272 461.666666667 258 443 c 1
 257 442 l 2
 240.333333333 424.666666667 221 418.666666667 199 424 c 0
 185 426 177.166666667 430.333333333 175.5 437 c 128
 173.833333333 443.666666667 173.833333333 450.666666667 175.5 458 c 128
 177.166666667 465.333333333 184 474.666666667 196 486 c 128
 208 497.333333333 225 507.166666667 247 515.5 c 128
 269 523.833333333 291.333333333 528.333333333 314 529 c 0
 364 531.666666667 402.666666667 522.333333333 430 501 c 0
 444 489.666666667 452.333333333 473.666666667 455 453 c 1
 473 475.666666667 491 493.333333333 509 506 c 128
 527 518.666666667 547 527 569 531 c 0
 578.333333333 531.666666667 583.833333333 529.333333333 585.5 524 c 128
 587.166666667 518.666666667 587.5 514.166666667 586.5 510.5 c 128
 585.5 506.833333333 583 503 579 499 c 0
 570.333333333 491 564.5 480.833333333 561.5 468.5 c 128
 558.5 456.166666667 559.666666667 445.333333333 565 436 c 0
 574.333333333 418.666666667 581.833333333 402.333333333 587.5 387 c 128
 593.166666667 371.666666667 592.833333333 354.833333333 586.5 336.5 c 128
 580.166666667 318.166666667 572 303.666666667 562 293 c 0
 541.333333333 267 516.666666667 254 488 254 c 0
 469.333333333 254 455.333333333 256.5 446 261.5 c 128
 436.666666667 266.5 431.333333333 270.666666667 430 274 c 1
 426.666666667 258 423.666666667 242.666666667 421 228 c 2
 402 148 l 1
EndSplineSet
EndChar

StartChar: si_Aae
Encoding: 5 3464 6
GlifName: si_A_ae
Width: 0
Flags: W
LayerCount: 3
Back
Fore
Layer: 2
SplineSet
624.5 325 m 128
 626.833333333 335 634.333333333 341.333333333 647 344 c 1
 785 344 l 2
 795.666666667 342.666666667 801.5 338.333333333 802.5 331 c 128
 803.5 323.666666667 799 316.333333333 789 309 c 0
 773.666666667 299.666666667 758.333333333 290.166666667 743 280.5 c 128
 727.666666667 270.833333333 712.333333333 261.333333333 697 252 c 1
 764 252 l 2
 772.666666667 252 777.333333333 248.833333333 778 242.5 c 128
 778.666666667 236.166666667 776 229 770 221 c 0
 734 187 704.5 154.166666667 681.5 122.5 c 128
 658.5 90.8333333333 645.666666667 59.6666666667 643 29 c 0
 641.666666667 10.3333333333 646 -6.33333333333 656 -21 c 0
 672.666666667 -46.3333333333 697.666666667 -45.3333333333 731 -18 c 1
 743.666666667 -11.3333333333 752.833333333 -11.3333333333 758.5 -18 c 128
 764.166666667 -24.6666666667 763 -33.6666666667 755 -45 c 1
 728.333333333 -65 700.333333333 -76.6666666667 671 -80 c 0
 623 -84.6666666667 591.5 -69 576.5 -33 c 128
 561.5 3 576 53 620 117 c 0
 649.333333333 158.333333333 680.333333333 190.333333333 713 213 c 1
 622 213 l 1
 614 215.666666667 609.333333333 220.333333333 608 227 c 0
 607.333333333 233 610.666666667 239.666666667 618 247 c 0
 660 271.666666667 692 291 714 305 c 1
 639 305 l 1
 627 308.333333333 622.166666667 315 624.5 325 c 128
516 466 m 1
 492 442.666666667 476.666666667 426.166666667 470 416.5 c 128
 463.333333333 406.833333333 457 390.333333333 451 367 c 2
 442 325 l 1
 446 316.333333333 453 309.833333333 463 305.5 c 128
 473 301.166666667 483.333333333 299.666666667 494 301 c 128
 504.666666667 302.333333333 514.166666667 307.333333333 522.5 316 c 128
 530.833333333 324.666666667 535.333333333 335.5 536 348.5 c 128
 536.666666667 361.5 535.5 372 532.5 380 c 128
 529.5 388 525.333333333 398.666666667 520 412 c 128
 514.666666667 425.333333333 513 439 515 453 c 2
 516 466 l 1
220 55 m 0
 255.333333333 47 295 46 339 52 c 1
 412 368 l 1
 380.666666667 378 344.666666667 378.666666667 304 370 c 0
 236 356.666666667 184 323.666666667 148 271 c 0
 135.333333333 253.666666667 126.333333333 231.833333333 121 205.5 c 128
 115.666666667 179.166666667 116.333333333 155.333333333 123 134 c 0
 137 93.3333333333 169.333333333 67 220 55 c 0
402 148 m 1
 388 84 l 1
 382 63 l 1
 388 64.3333333333 395 66.3333333333 403 69 c 2
 437 80 l 2
 452.333333333 85.3333333333 463 87.6666666667 469 87 c 128
 475 86.3333333333 479.333333333 83.5 482 78.5 c 128
 484.666666667 73.5 482.666666667 66.6666666667 476 58 c 0
 464 48 438 38 398 28 c 0
 388.666666667 25.3333333333 380.333333333 22.6666666667 373 20 c 1
 328 -174 l 2
 326.666666667 -180.666666667 323.666666667 -185.166666667 319 -187.5 c 128
 314.333333333 -189.833333333 309.666666667 -191 305 -191 c 0
 291.666666667 -191 286 -185.333333333 288 -174 c 2
 331 12 l 1
 307 8.66666666667 282.666666667 7 258 7 c 128
 233.333333333 7 210 9.33333333333 188 14 c 0
 106.666666667 29.3333333333 60 69 48 133 c 0
 40.6666666667 177 47 220.666666667 67 264 c 0
 92.3333333333 317.333333333 135.833333333 357.5 197.5 384.5 c 128
 259.166666667 411.5 332 420 416 410 c 1
 420 440 412 460.833333333 392 472.5 c 128
 372 484.166666667 348.166666667 486.833333333 320.5 480.5 c 128
 292.833333333 474.166666667 272 461.666666667 258 443 c 1
 257 442 l 2
 240.333333333 424.666666667 221 418.666666667 199 424 c 0
 185 426 177.166666667 430.333333333 175.5 437 c 128
 173.833333333 443.666666667 173.833333333 450.666666667 175.5 458 c 128
 177.166666667 465.333333333 184 474.666666667 196 486 c 128
 208 497.333333333 225 507.166666667 247 515.5 c 128
 269 523.833333333 291.333333333 528.333333333 314 529 c 0
 364 531.666666667 402.666666667 522.333333333 430 501 c 0
 444 489.666666667 452.333333333 473.666666667 455 453 c 1
 473 475.666666667 491 493.333333333 509 506 c 128
 527 518.666666667 547 527 569 531 c 0
 578.333333333 531.666666667 583.833333333 529.333333333 585.5 524 c 128
 587.166666667 518.666666667 587.5 514.166666667 586.5 510.5 c 128
 585.5 506.833333333 583 503 579 499 c 0
 570.333333333 491 564.5 480.833333333 561.5 468.5 c 128
 558.5 456.166666667 559.666666667 445.333333333 565 436 c 0
 574.333333333 418.666666667 581.833333333 402.333333333 587.5 387 c 128
 593.166666667 371.666666667 592.833333333 354.833333333 586.5 336.5 c 128
 580.166666667 318.166666667 572 303.666666667 562 293 c 0
 541.333333333 267 516.666666667 254 488 254 c 0
 469.333333333 254 455.333333333 256.5 446 261.5 c 128
 436.666666667 266.5 431.333333333 270.666666667 430 274 c 1
 426.666666667 258.666666667 423.666666667 243.333333333 421 228 c 2
 402 148 l 1
EndSplineSet
EndChar

StartChar: si_I
Encoding: 6 3465 7
GlifName: si_I_
Width: 0
Flags: W
LayerCount: 3
Back
Fore
Layer: 2
SplineSet
385 274 m 1
 388.333333333 309.333333333 375.333333333 331.333333333 346 340 c 0
 328 345.333333333 308.666666667 343 288 333 c 0
 268 323.666666667 252.666666667 309.666666667 242 291 c 0
 236.666666667 281 233.666666667 271 233 261 c 0
 231 247 233 235.166666667 239 225.5 c 128
 245 215.833333333 253.666666667 208.666666667 265 204 c 0
 290.333333333 194 314.666666667 195.666666667 338 209 c 128
 361.333333333 222.333333333 377 244 385 274 c 1
295 10 m 1
 239.666666667 1.33333333333 190 1.66666666667 146 11 c 0
 136.666666667 13 129 17 123 23 c 0
 119.666666667 28.3333333333 119 34 121 40 c 128
 123 46 126.333333333 50.1666666667 131 52.5 c 128
 135.666666667 54.8333333333 140 55.8333333333 144 55.5 c 128
 148 55.1666666667 152.5 54.5 157.5 53.5 c 128
 162.5 52.5 168 51.6666666667 174 51 c 0
 180 49 189.333333333 47.3333333333 202 46 c 0
 274 37.3333333333 339.333333333 51.6666666667 398 89 c 0
 430 109 455.666666667 132.666666667 475 160 c 0
 494.333333333 186.666666667 507.333333333 214 514 242 c 0
 528.666666667 299.333333333 519.666666667 349.833333333 487 393.5 c 128
 454.333333333 437.166666667 407.333333333 458.333333333 346 457 c 0
 298.666666667 455.666666667 253.666666667 443 211 419 c 128
 168.333333333 395 136.333333333 364.333333333 115 327 c 128
 93.6666666667 289.666666667 88.3333333333 251.666666667 99 213 c 0
 111 167.666666667 142.333333333 140 193 130 c 0
 225.666666667 124 255.333333333 127 282 139 c 0
 296.666666667 144.333333333 311.666666667 152.666666667 327 164 c 1
 292.333333333 155.333333333 262 157.333333333 236 170 c 0
 210 183.333333333 195.333333333 205 192 235 c 0
 188 273.666666667 202.5 308.833333333 235.5 340.5 c 128
 268.5 372.166666667 305.333333333 385.5 346 380.5 c 128
 386.666666667 375.5 411.833333333 356 421.5 322 c 128
 431.166666667 288 425 248.666666667 403 204 c 128
 381 159.333333333 348.5 127.166666667 305.5 107.5 c 128
 262.5 87.8333333333 218.333333333 82.3333333333 173 91 c 0
 117.666666667 101 81 132 63 184 c 0
 39 252.666666667 53.6666666667 324.5 107 399.5 c 128
 160.333333333 474.5 233 517.333333333 325 528 c 0
 401 536.666666667 462 521.666666667 508 483 c 0
 546.666666667 450.333333333 568.333333333 408 573 356 c 128
 577.666666667 304 568.166666667 253.666666667 544.5 205 c 128
 520.833333333 156.333333333 492 117.666666667 458 89 c 0
 424 61.6666666667 384 39.3333333333 338 22 c 1
 360 -9.33333333333 365.666666667 -45.3333333333 355 -86 c 128
 344.333333333 -126.666666667 321.666666667 -158.333333333 287 -181 c 0
 251 -203.666666667 214.333333333 -211 177 -203 c 0
 158.333333333 -199 144.166666667 -192.166666667 134.5 -182.5 c 128
 124.833333333 -172.833333333 118.333333333 -163 115 -153 c 0
 113 -143.666666667 112.666666667 -133.666666667 114 -123 c 0
 116.666666667 -101 126.5 -81 143.5 -63 c 128
 160.5 -45 181 -35.6666666667 205 -35 c 0
 217.666666667 -33.6666666667 231 -36.6666666667 245 -44 c 0
 250.333333333 -48.6666666667 251.666666667 -54.3333333333 249 -61 c 0
 245 -72.3333333333 238.333333333 -78.3333333333 229 -79 c 2
 209 -76 l 2
 197.666666667 -75.3333333333 188.333333333 -79.8333333333 181 -89.5 c 128
 173.666666667 -99.1666666667 169.666666667 -109 169 -119 c 0
 167.666666667 -135.666666667 175.166666667 -148.166666667 191.5 -156.5 c 128
 207.833333333 -164.833333333 225 -166.666666667 243 -162 c 0
 274.333333333 -154 296 -133.333333333 308 -100 c 128
 320 -66.6666666667 320.333333333 -39 309 -17 c 2
 295 10 l 1
EndSplineSet
EndChar

StartChar: si_Ii
Encoding: 7 3466 8
GlifName: si_I_i
Width: 0
Flags: W
LayerCount: 3
Back
Fore
Layer: 2
SplineSet
325 446 m 0
 319 446 301.833333333 439.166666667 273.5 425.5 c 128
 245.166666667 411.833333333 222 399.333333333 204 388 c 0
 164.666666667 362 134.5 332 113.5 298 c 128
 92.5 264 85.3333333333 226 92 184 c 0
 100 134.666666667 144.333333333 105.666666667 225 97 c 0
 269 91.6666666667 308.666666667 91.8333333333 344 97.5 c 128
 379.333333333 103.166666667 405.333333333 108.333333333 422 113 c 256
 438.666666667 117.666666667 455.333333333 125 472 135 c 0
 490 145 506.666666667 156.666666667 522 170 c 0
 556 198.666666667 580.333333333 230.666666667 595 266 c 0
 609.666666667 302 609 335.666666667 593 367 c 0
 573 406.333333333 536.5 432.833333333 483.5 446.5 c 128
 430.5 460.166666667 377.666666667 460 325 446 c 0
647 698 m 0
 652.333333333 705.333333333 657.666666667 713 663 721 c 0
 669 729 675.333333333 735.333333333 682 740 c 0
 689.333333333 743.333333333 696.333333333 745.666666667 703 747 c 0
 716.333333333 749 727 745.5 735 736.5 c 128
 743 727.5 742 717 732 705 c 0
 694 644.333333333 602.666666667 577.333333333 458 504 c 1
 443 496 l 1
 539 483.333333333 601.666666667 448.666666667 631 392 c 0
 651.666666667 354 655 310.666666667 641 262 c 0
 611.666666667 158.666666667 543.666666667 86.6666666667 437 46 c 0
 377 23.3333333333 316.333333333 14.5 255 19.5 c 128
 193.666666667 24.5 143.333333333 44.3333333333 104 79 c 0
 84 96.3333333333 69 117.333333333 59 142 c 0
 40.3333333333 190 44.1666666667 240.166666667 70.5 292.5 c 128
 96.8333333333 344.833333333 136 387.333333333 188 420 c 0
 227.333333333 443.333333333 280.166666667 468.333333333 346.5 495 c 128
 412.833333333 521.666666667 463.166666667 546 497.5 568 c 128
 531.833333333 590 557.666666667 608.166666667 575 622.5 c 128
 592.333333333 636.833333333 604.5 647.833333333 611.5 655.5 c 128
 618.5 663.166666667 625 670.333333333 631 677 c 128
 637 683.666666667 642.333333333 690.666666667 647 698 c 0
513 657 m 0
 519 669.666666667 520.5 680 517.5 688 c 128
 514.5 696 509.166666667 701.833333333 501.5 705.5 c 128
 493.833333333 709.166666667 485 709.5 475 706.5 c 128
 465 703.5 457 698 451 690 c 0
 440.333333333 677.333333333 437 665 441 653 c 128
 445 641 452.666666667 634.333333333 464 633 c 0
 484 631.666666667 500.333333333 639.666666667 513 657 c 0
558 672 m 1
 550.666666667 643.333333333 534.5 621.833333333 509.5 607.5 c 128
 484.5 593.166666667 460.666666667 589.166666667 438 595.5 c 128
 415.333333333 601.833333333 402 617 398 641 c 0
 396.666666667 653 398 666 402 680 c 0
 410.666666667 707.333333333 430 727 460 739 c 128
 490 751 514.666666667 750.333333333 534 737 c 128
 553.333333333 723.666666667 561.333333333 705.333333333 558 682 c 1
 558 672 l 1
712 509 m 0
 718 521.666666667 719.5 532 716.5 540 c 128
 713.5 548 708.333333333 554 701 558 c 0
 693 560.666666667 684.333333333 560.666666667 675 558 c 0
 664.333333333 555.333333333 656 550 650 542 c 0
 639.333333333 529.333333333 636 517 640 505 c 128
 644 493 651.666666667 486.333333333 663 485 c 0
 683 483.666666667 699.333333333 491.666666667 712 509 c 0
757 524 m 1
 750.333333333 495.333333333 734.5 473.833333333 709.5 459.5 c 128
 684.5 445.166666667 660.333333333 441.166666667 637 447.5 c 128
 613.666666667 453.833333333 600.666666667 469 598 493 c 0
 596 505 597.333333333 518 602 532 c 0
 610.666666667 559.333333333 629.833333333 579.166666667 659.5 591.5 c 128
 689.166666667 603.833333333 713 603.666666667 731 591 c 0
 748.333333333 577.666666667 757 562.333333333 757 545 c 0
 757 539.666666667 757.333333333 536 758 534 c 2
 757 524 l 1
EndSplineSet
EndChar

StartChar: si_U
Encoding: 8 3467 9
GlifName: si_U_
Width: 0
Flags: W
LayerCount: 3
Back
Fore
Layer: 2
SplineSet
579 400.5 m 128
 579.666666667 402.833333333 580.833333333 408.166666667 582.5 416.5 c 128
 584.166666667 424.833333333 583.166666667 434 579.5 444 c 128
 575.833333333 454 570 462.333333333 562 469 c 0
 546.666666667 480.333333333 526.333333333 484.666666667 501 482 c 0
 465 478 438.666666667 465 422 443 c 1
 421 442 l 2
 405 424 385.666666667 417.666666667 363 423 c 0
 349.666666667 425.666666667 342.166666667 430.166666667 340.5 436.5 c 128
 338.833333333 442.833333333 338.833333333 449.666666667 340.5 457 c 128
 342.166666667 464.333333333 348.833333333 473.666666667 360.5 485 c 128
 372.166666667 496.333333333 389.166666667 506.166666667 411.5 514.5 c 128
 433.833333333 522.833333333 456.333333333 527.666666667 479 529 c 0
 565.666666667 535 613 506.333333333 621 443 c 0
 625 415 621.666666667 390 611 368 c 0
 607 358 599.666666667 353.5 589 354.5 c 128
 578.333333333 355.5 564.333333333 357.333333333 547 360 c 0
 453 374 375 368.5 313 343.5 c 128
 251 318.5 201.833333333 279.166666667 165.5 225.5 c 128
 129.166666667 171.833333333 112.333333333 114.333333333 115 53 c 0
 117.666666667 -27 150.666666667 -86.6666666667 214 -126 c 0
 266.666666667 -158.666666667 324 -169.333333333 386 -158 c 0
 446.666666667 -147.333333333 492 -118 522 -70 c 0
 540.666666667 -40 549.666666667 -9.66666666667 549 21 c 0
 549.666666667 33.6666666667 556 41.3333333333 568 44 c 128
 580 46.6666666667 587 42.3333333333 589 31 c 0
 588.333333333 -4.33333333333 582.666666667 -33.5 572 -56.5 c 128
 561.333333333 -79.5 547.166666667 -100.166666667 529.5 -118.5 c 128
 511.833333333 -136.833333333 492.333333333 -152.666666667 471 -166 c 0
 430.333333333 -190.666666667 384.5 -205.833333333 333.5 -211.5 c 128
 282.5 -217.166666667 238.333333333 -214 201 -202 c 0
 129 -178.666666667 80.3333333333 -134.333333333 55 -69 c 0
 33 -13.6666666667 32.3333333333 52 53 128 c 0
 75.6666666667 208 118.666666667 272.666666667 182 322 c 0
 232.666666667 362 292.166666667 387.333333333 360.5 398 c 128
 428.833333333 408.666666667 499.666666667 408.666666667 573 398 c 0
 576.333333333 397.333333333 578.333333333 398.166666667 579 400.5 c 128
EndSplineSet
EndChar

StartChar: si_Uu
Encoding: 9 3468 10
GlifName: si_U_u
Width: 0
Flags: W
LayerCount: 3
Back
Fore
Layer: 2
SplineSet
831 317 m 0
 827.666666667 302.333333333 816 286.5 796 269.5 c 128
 776 252.5 752.166666667 244 724.5 244 c 128
 696.833333333 244 677 253.333333333 665 272 c 0
 647 298 646.333333333 333.333333333 663 378 c 0
 683 428.666666667 715.333333333 459.666666667 760 471 c 1
 772.666666667 469.666666667 778.666666667 464 778 454 c 128
 777.333333333 444 770.666666667 436.666666667 758 432 c 0
 747.333333333 429.333333333 737.666666667 424 729 416 c 0
 711.666666667 400 700 379.833333333 694 355.5 c 128
 688 331.166666667 690.666666667 311.166666667 702 295.5 c 128
 713.333333333 279.833333333 732.666666667 277.666666667 760 289 c 0
 766 291.666666667 773 295.666666667 781 301 c 0
 787.666666667 306.333333333 791.666666667 316 793 330 c 0
 795.666666667 352 788.333333333 363 771 363 c 1
 760.333333333 366.333333333 756 374 758 386 c 0
 766 421.333333333 793.333333333 448.333333333 840 467 c 0
 857.333333333 474.333333333 876.666666667 476 898 472 c 0
 961.333333333 458 975 379.333333333 939 236 c 0
 921.666666667 164.666666667 888.333333333 106.333333333 839 61 c 0
 807 31 776.333333333 13.3333333333 747 8 c 0
 706.333333333 1.33333333333 672 8.66666666667 644 30 c 0
 624.666666667 44 615.333333333 62.3333333333 616 85 c 1
 619.333333333 97.6666666667 626.166666667 105.333333333 636.5 108 c 128
 646.833333333 110.666666667 653.333333333 106.333333333 656 95 c 0
 656 85 659.166666667 76.6666666667 665.5 70 c 128
 671.833333333 63.3333333333 682.166666667 57.3333333333 696.5 52 c 128
 710.833333333 46.6666666667 728.666666667 46.3333333333 750 51 c 0
 796 66.3333333333 834 115.666666667 864 199 c 0
 870 215.666666667 875.166666667 232.666666667 879.5 250 c 128
 883.833333333 267.333333333 888.333333333 289.166666667 893 315.5 c 128
 897.666666667 341.833333333 896.5 367.333333333 889.5 392 c 128
 882.5 416.666666667 866 427 840 423 c 0
 824.666666667 420.333333333 812.666666667 411.666666667 804 397 c 1
 831.333333333 383.666666667 840.333333333 357 831 317 c 0
579 400.5 m 128
 579.666666667 402.833333333 580.833333333 408.166666667 582.5 416.5 c 128
 584.166666667 424.833333333 583.166666667 434 579.5 444 c 128
 575.833333333 454 570 462.333333333 562 469 c 0
 546.666666667 480.333333333 526.333333333 484.666666667 501 482 c 0
 465 478 438.666666667 465 422 443 c 1
 421 442 l 2
 405 424 385.666666667 417.666666667 363 423 c 0
 349.666666667 425.666666667 342.166666667 430.166666667 340.5 436.5 c 128
 338.833333333 442.833333333 338.833333333 449.666666667 340.5 457 c 128
 342.166666667 464.333333333 348.833333333 473.666666667 360.5 485 c 128
 372.166666667 496.333333333 389.166666667 506.166666667 411.5 514.5 c 128
 433.833333333 522.833333333 456.333333333 527.666666667 479 529 c 0
 565.666666667 535 613 506.333333333 621 443 c 0
 625 415 621.666666667 390 611 368 c 0
 607 358 599.666666667 353.5 589 354.5 c 128
 578.333333333 355.5 564.333333333 357.333333333 547 360 c 0
 453 374 375 368.5 313 343.5 c 128
 251 318.5 201.833333333 279.166666667 165.5 225.5 c 128
 129.166666667 171.833333333 112.333333333 114.333333333 115 53 c 0
 117.666666667 -27 150.666666667 -86.6666666667 214 -126 c 0
 266.666666667 -158.666666667 324 -169.333333333 386 -158 c 0
 446.666666667 -147.333333333 492 -118 522 -70 c 0
 540.666666667 -40 549.666666667 -9.66666666667 549 21 c 0
 549.666666667 33.6666666667 556 41.3333333333 568 44 c 128
 580 46.6666666667 587 42.3333333333 589 31 c 0
 588.333333333 -4.33333333333 582.666666667 -33.5 572 -56.5 c 128
 561.333333333 -79.5 547.166666667 -100.166666667 529.5 -118.5 c 128
 511.833333333 -136.833333333 492.333333333 -152.666666667 471 -166 c 0
 430.333333333 -190.666666667 384.5 -205.833333333 333.5 -211.5 c 128
 282.5 -217.166666667 238.333333333 -214 201 -202 c 0
 129 -178.666666667 80.3333333333 -134.333333333 55 -69 c 0
 33 -13.6666666667 32.3333333333 52 53 128 c 0
 75.6666666667 208 118.666666667 272.666666667 182 322 c 0
 232.666666667 361.333333333 292.5 386.5 361.5 397.5 c 128
 430.5 408.5 501 408.666666667 573 398 c 0
 576.333333333 397.333333333 578.333333333 398.166666667 579 400.5 c 128
EndSplineSet
EndChar

StartChar: si_vocalicR
Encoding: 10 3469 11
GlifName: si_vocalicR_
Width: 0
Flags: W
LayerCount: 3
Back
Fore
Layer: 2
SplineSet
911 91 m 1
 933 143 l 2
 936.333333333 150.333333333 940 161 944 175 c 2
 948 195 l 1
 945.333333333 210.333333333 930.5 221.166666667 903.5 227.5 c 128
 876.5 233.833333333 849 233 821 225 c 0
 806.333333333 221.666666667 791.666666667 211.666666667 777 195 c 0
 750.333333333 165.666666667 741.666666667 136.333333333 751 107 c 0
 755.666666667 90.3333333333 766.333333333 81.3333333333 783 80 c 0
 793.666666667 79.3333333333 804.666666667 83.1666666667 816 91.5 c 128
 827.333333333 99.8333333333 836 106.166666667 842 110.5 c 128
 848 114.833333333 854.666666667 117.666666667 862 119 c 0
 884 123 900.333333333 113.666666667 911 91 c 1
710 163 m 0
 738.666666667 227.666666667 787.333333333 263 856 269 c 0
 894.666666667 273 930.666666667 264.333333333 964 243 c 1
 970 262.333333333 973.666666667 280.666666667 975 298 c 0
 982.333333333 381.333333333 960.666666667 428.333333333 910 439 c 0
 888 443.666666667 863 438.666666667 835 424 c 0
 819 416 808 405.333333333 802 392 c 0
 794 380.666666667 785.333333333 376.333333333 776 379 c 128
 766.666666667 381.666666667 763.666666667 389 767 401 c 0
 771.666666667 412.333333333 779.333333333 423 790 433 c 0
 832 470.333333333 876.666666667 486 924 480 c 0
 959.333333333 475.333333333 985 459.666666667 1001 433 c 0
 1034.33333333 378.333333333 1036.33333333 302.333333333 1007 205 c 0
 996.333333333 171 984.666666667 139.666666667 972 111 c 0
 945.333333333 53.6666666667 923.666666667 22 907 16 c 0
 893 10.6666666667 885.333333333 13.6666666667 884 25 c 0
 880 46.3333333333 871.333333333 58 858 60 c 1
 849.333333333 55.3333333333 839 48.3333333333 827 39 c 128
 815 29.6666666667 800.5 21.8333333333 783.5 15.5 c 128
 766.5 9.16666666667 748 13 728 27 c 128
 708 41 697 60.3333333333 695 85 c 128
 693 109.666666667 698 135.666666667 710 163 c 0
313 420 m 2
 343 420 l 2
 352.333333333 420 357.333333333 422.666666667 358 428 c 0
 362 444 360.666666667 456.333333333 354 465 c 0
 341.333333333 484.333333333 321.333333333 491.333333333 294 486 c 128
 266.666666667 480.666666667 246.333333333 468.666666667 233 450 c 1
 232 449 l 2
 216 431.666666667 196.666666667 425.333333333 174 430 c 0
 161.333333333 432.666666667 153.833333333 437.333333333 151.5 444 c 128
 149.166666667 450.666666667 149 457.666666667 151 465 c 128
 153 472.333333333 159.666666667 481.666666667 171 493 c 128
 182.333333333 504.333333333 197.666666667 514 217 522 c 128
 236.333333333 530 256 534.666666667 276 536 c 0
 317.333333333 538.666666667 351.333333333 529.333333333 378 508 c 0
 394.666666667 494.666666667 403 472.666666667 403 442 c 0
 403 423.333333333 399.166666667 409 391.5 399 c 128
 383.833333333 389 376.333333333 382.333333333 369 379 c 1
 321.666666667 383 285.333333333 382.333333333 260 377 c 0
 192.666666667 362.333333333 145.333333333 331.666666667 118 285 c 0
 100.666666667 254.333333333 93.1666666667 222.333333333 95.5 189 c 128
 97.8333333333 155.666666667 109.5 129.5 130.5 110.5 c 128
 151.5 91.5 180 83.3333333333 216 86 c 0
 250.666666667 88 279.666666667 97 303 113 c 0
 313.666666667 121 320.666666667 129.333333333 324 138 c 0
 334 163.333333333 340 179.833333333 342 187.5 c 128
 344 195.166666667 346.5 200.833333333 349.5 204.5 c 128
 352.5 208.166666667 358 210 366 210 c 0
 380 210.666666667 385 204 381 190 c 0
 373.666666667 153.333333333 372.833333333 131 378.5 123 c 128
 384.166666667 115 390.333333333 109.333333333 397 106 c 0
 409.666666667 98 427 93 449 91 c 0
 509 83.6666666667 558.666666667 101.333333333 598 144 c 0
 622.666666667 170 638.666666667 200.333333333 646 235 c 128
 653.333333333 269.666666667 650.333333333 299.666666667 637 325 c 0
 609.666666667 373.666666667 545 391.666666667 443 379 c 1
 431.666666667 382.333333333 427.666666667 390.333333333 431 403 c 0
 443.666666667 459.666666667 472.666666667 499 518 521 c 0
 546 535 574.666666667 541 604 539 c 128
 633.333333333 537 656.666666667 528.333333333 674 513 c 0
 682.666666667 505.666666667 688 497.333333333 690 488 c 0
 700.666666667 446 696 420 676 410 c 1
 658 406 650.666666667 411.666666667 654 427 c 0
 664 470.333333333 641.333333333 493.333333333 586 496 c 0
 546.666666667 498 517.333333333 486.666666667 498 462 c 0
 489.333333333 451.333333333 482.333333333 439.333333333 477 426 c 0
 476.333333333 422 477.333333333 420 480 420 c 0
 550.666666667 426 605.166666667 413.833333333 643.5 383.5 c 128
 681.833333333 353.166666667 697.666666667 308.666666667 691 250 c 128
 684.333333333 191.333333333 662 139.166666667 624 93.5 c 128
 586 47.8333333333 537.166666667 21.5 477.5 14.5 c 128
 417.833333333 7.5 377 20.6666666667 355 54 c 0
 350.333333333 62 346 70.6666666667 342 80 c 0
 338.666666667 83.3333333333 335.333333333 83 332 79 c 0
 312.666666667 59 294.666666667 44 278 34 c 0
 242 14.6666666667 203 8.33333333333 161 15 c 0
 98.3333333333 24.3333333333 61 60.6666666667 49 124 c 0
 41 165.333333333 45.3333333333 208.666666667 62 254 c 0
 87.3333333333 322 137.333333333 371.666666667 212 403 c 0
 241.333333333 415 275 420.666666667 313 420 c 2
EndSplineSet
EndChar

StartChar: si_vocalicRr
Encoding: 11 3470 12
GlifName: si_vocalicR_r
Width: 0
Flags: W
LayerCount: 3
Back
Fore
Layer: 2
SplineSet
1234 91 m 1
 1256 143 l 2
 1259.33333333 150.333333333 1262.66666667 161 1266 175 c 2
 1270 195 l 1
 1267.33333333 210.333333333 1252.5 221.166666667 1225.5 227.5 c 128
 1198.5 233.833333333 1171 233 1143 225 c 0
 1128.33333333 221.666666667 1114 211.666666667 1100 195 c 0
 1073.33333333 165.666666667 1064.33333333 136.333333333 1073 107 c 0
 1077.66666667 90.3333333333 1088.33333333 81.3333333333 1105 80 c 0
 1115.66666667 79.3333333333 1126.66666667 83.1666666667 1138 91.5 c 128
 1149.33333333 99.8333333333 1158.16666667 106.166666667 1164.5 110.5 c 128
 1170.83333333 114.833333333 1177.33333333 117.666666667 1184 119 c 0
 1206.66666667 123 1223.33333333 113.666666667 1234 91 c 1
1033 163 m 0
 1061.66666667 227.666666667 1110.33333333 263 1179 269 c 0
 1217.66666667 273 1253.33333333 264.333333333 1286 243 c 1
 1292 262.333333333 1295.66666667 280.666666667 1297 298 c 0
 1304.33333333 381.333333333 1283 428.333333333 1233 439 c 0
 1211 443.666666667 1185.66666667 438.666666667 1157 424 c 0
 1141 416 1130.33333333 405.333333333 1125 392 c 1
 1117 380.666666667 1108.33333333 376.333333333 1099 379 c 128
 1089.66666667 381.666666667 1086.33333333 389 1089 401 c 0
 1093.66666667 412.333333333 1101.66666667 423 1113 433 c 0
 1155.66666667 470.333333333 1200.33333333 486 1247 480 c 0
 1282.33333333 475.333333333 1308 459.666666667 1324 433 c 0
 1357.33333333 378.333333333 1359.33333333 302.333333333 1330 205 c 0
 1319.33333333 171 1307.66666667 139.666666667 1295 111 c 0
 1268.33333333 53.6666666667 1246.33333333 22 1229 16 c 0
 1215 10.6666666667 1207.33333333 13.6666666667 1206 25 c 0
 1202 46.3333333333 1193.66666667 58 1181 60 c 1
 1171.66666667 55.3333333333 1161 48.3333333333 1149 39 c 128
 1137 29.6666666667 1122.5 21.8333333333 1105.5 15.5 c 128
 1088.5 9.16666666667 1070.16666667 13 1050.5 27 c 128
 1030.83333333 41 1020 60.3333333333 1018 85 c 128
 1016 109.666666667 1021 135.666666667 1033 163 c 0
912 91 m 1
 934 143 l 2
 937.333333333 150.333333333 940.666666667 161 944 175 c 2
 948 195 l 1
 945.333333333 210.333333333 930.5 221.166666667 903.5 227.5 c 128
 876.5 233.833333333 849 233 821 225 c 0
 806.333333333 221.666666667 792 211.666666667 778 195 c 0
 751.333333333 165.666666667 742.333333333 136.333333333 751 107 c 0
 755.666666667 90.3333333333 766.333333333 81.3333333333 783 80 c 0
 793.666666667 79.3333333333 804.666666667 83.1666666667 816 91.5 c 128
 827.333333333 99.8333333333 836.166666667 106.166666667 842.5 110.5 c 128
 848.833333333 114.833333333 855.333333333 117.666666667 862 119 c 0
 884.666666667 123 901.333333333 113.666666667 912 91 c 1
711 163 m 0
 739.666666667 227.666666667 788.333333333 263 857 269 c 0
 895.666666667 273 931.333333333 264.333333333 964 243 c 1
 970 262.333333333 973.666666667 280.666666667 975 298 c 0
 982.333333333 381.333333333 961 428.333333333 911 439 c 0
 889 443.666666667 863.666666667 438.666666667 835 424 c 0
 819 416 808.333333333 405.333333333 803 392 c 1
 795 380.666666667 786.333333333 376.333333333 777 379 c 128
 767.666666667 381.666666667 764.333333333 389 767 401 c 0
 771.666666667 412.333333333 779.666666667 423 791 433 c 0
 833.666666667 470.333333333 878.333333333 486 925 480 c 0
 960.333333333 475.333333333 986 459.666666667 1002 433 c 0
 1035.33333333 378.333333333 1037.33333333 302.333333333 1008 205 c 0
 997.333333333 171 985.666666667 139.666666667 973 111 c 0
 946.333333333 53.6666666667 924.333333333 22 907 16 c 0
 893 10.6666666667 885.333333333 13.6666666667 884 25 c 0
 880 46.3333333333 871.666666667 58 859 60 c 1
 849.666666667 55.3333333333 839 48.3333333333 827 39 c 128
 815 29.6666666667 800.5 21.8333333333 783.5 15.5 c 128
 766.5 9.16666666667 748.166666667 13 728.5 27 c 128
 708.833333333 41 698 60.3333333333 696 85 c 128
 694 109.666666667 699 135.666666667 711 163 c 0
313 420 m 2
 343 420 l 2
 352.333333333 420 357.333333333 422.666666667 358 428 c 0
 362 444 361 456.333333333 355 465 c 0
 342.333333333 484.333333333 322.166666667 491.333333333 294.5 486 c 128
 266.833333333 480.666666667 246.333333333 468.666666667 233 450 c 1
 232 449 l 2
 216 431.666666667 196.666666667 425.333333333 174 430 c 0
 161.333333333 432.666666667 154 437.333333333 152 444 c 128
 150 450.666666667 149.833333333 457.666666667 151.5 465 c 128
 153.166666667 472.333333333 159.833333333 481.666666667 171.5 493 c 128
 183.166666667 504.333333333 198.666666667 514 218 522 c 128
 237.333333333 530 256.666666667 534.666666667 276 536 c 0
 317.333333333 538.666666667 351.666666667 529.333333333 379 508 c 0
 396.333333333 494.666666667 404.666666667 472.666666667 404 442 c 0
 404 423.333333333 400 409 392 399 c 128
 384 389 376.333333333 382.333333333 369 379 c 1
 321.666666667 383 285.333333333 382.333333333 260 377 c 0
 171.333333333 357.666666667 118 311.333333333 100 238 c 0
 92 204 94 173 106 145 c 0
 124.666666667 101.666666667 162 82 218 86 c 0
 252.666666667 88 281.333333333 97 304 113 c 0
 314.666666667 120.333333333 321.666666667 128.666666667 325 138 c 0
 335 163.333333333 341 179.833333333 343 187.5 c 128
 345 195.166666667 347.333333333 200.833333333 350 204.5 c 128
 352.666666667 208.166666667 358.333333333 210 367 210 c 0
 381 210.666666667 386 204 382 190 c 0
 374.666666667 153.333333333 373.666666667 131 379 123 c 128
 384.333333333 115 390.333333333 109.333333333 397 106 c 0
 409.666666667 98 427 93 449 91 c 0
 508.333333333 83.6666666667 558 101.333333333 598 144 c 0
 622.666666667 170 638.666666667 200.333333333 646 235 c 128
 653.333333333 269.666666667 650.666666667 299.666666667 638 325 c 0
 610.666666667 373.666666667 545.666666667 391.666666667 443 379 c 1
 431.666666667 382.333333333 427.666666667 390.333333333 431 403 c 0
 443.666666667 459.666666667 473 499 519 521 c 0
 547 535 575.666666667 541 605 539 c 128
 634.333333333 537 657.666666667 528.333333333 675 513 c 0
 683.666666667 505.666666667 689 497.333333333 691 488 c 0
 701.666666667 446 696.666666667 420 676 410 c 1
 658 406 650.666666667 411.666666667 654 427 c 0
 662 461 649 482.666666667 615 492 c 0
 586.333333333 500 559.333333333 498.666666667 534 488 c 0
 508.666666667 476.666666667 489.666666667 456 477 426 c 0
 476.333333333 422 477.333333333 420 480 420 c 0
 550.666666667 426 605.166666667 413.833333333 643.5 383.5 c 128
 681.833333333 353.166666667 697.833333333 308.666666667 691.5 250 c 128
 685.166666667 191.333333333 662.833333333 139.166666667 624.5 93.5 c 128
 586.166666667 47.8333333333 537.166666667 21.5 477.5 14.5 c 128
 417.833333333 7.5 377.333333333 20.6666666667 356 54 c 0
 350.666666667 62 346 70.6666666667 342 80 c 0
 338.666666667 83.3333333333 335.666666667 83 333 79 c 0
 313.666666667 59 295.333333333 44 278 34 c 0
 242 14.6666666667 203.333333333 8.33333333333 162 15 c 0
 99.3333333333 24.3333333333 61.6666666667 60.6666666667 49 124 c 0
 41 165.333333333 45.3333333333 208.666666667 62 254 c 0
 87.3333333333 322 137.666666667 371.666666667 213 403 c 0
 241.666666667 415 275 420.666666667 313 420 c 2
EndSplineSet
EndChar

StartChar: si_vocalicL
Encoding: 12 3471 13
GlifName: si_vocalicL_
Width: 0
Flags: W
LayerCount: 3
Back
Fore
Layer: 2
SplineSet
520 379 m 0
 501.333333333 380.333333333 497 396.666666667 507 428 c 0
 519.666666667 466.666666667 540.333333333 494.333333333 569 511 c 0
 597.666666667 527 629.833333333 535.833333333 665.5 537.5 c 128
 701.166666667 539.166666667 728.666666667 530 748 510 c 1
 780.666666667 510 807.666666667 498.166666667 829 474.5 c 128
 850.333333333 450.833333333 861.666666667 422 863 388 c 0
 863 380 863.5 372.166666667 864.5 364.5 c 128
 865.5 356.833333333 865.333333333 344.833333333 864 328.5 c 128
 862.666666667 312.166666667 857.666666667 290.5 849 263.5 c 128
 840.333333333 236.5 828.666666667 209.333333333 814 182 c 0
 784 124 747 77.3333333333 703 42 c 1
 690.333333333 35.3333333333 681.166666667 35.1666666667 675.5 41.5 c 128
 669.833333333 47.8333333333 671.333333333 56.6666666667 680 68 c 1
 720.666666667 98 754.333333333 140 781 194 c 0
 825 281.333333333 836 353.333333333 814 410 c 0
 804.666666667 434 790 451 770 461 c 1
 766.666666667 444.333333333 753.333333333 433.666666667 730 429 c 128
 706.666666667 424.333333333 690.666666667 430.666666667 682 448 c 1
 676.666666667 467.333333333 661.666666667 479.333333333 637 484 c 0
 611.666666667 487.333333333 588.333333333 479 567 459 c 0
 556.333333333 449 549.666666667 435.666666667 547 419 c 1
 548 419 l 2
 559.333333333 419 570.833333333 419.166666667 582.5 419.5 c 128
 594.166666667 419.833333333 605.666666667 419.333333333 617 418 c 0
 665.666666667 416 701 399.666666667 723 369 c 128
 745 338.333333333 754 302 750 260 c 128
 746 218 730 177.666666667 702 139 c 0
 640.666666667 55.6666666667 539 14 397 14 c 0
 289.666666667 14 216 39.3333333333 176 90 c 0
 152.666666667 118.666666667 142.333333333 154.666666667 145 198 c 0
 149 264 178 320.333333333 232 367 c 0
 274.666666667 403 330.333333333 420.333333333 399 419 c 2
 434 419 l 1
 438.666666667 435.666666667 438.333333333 449 433 459 c 0
 421 479 401.333333333 487.166666667 374 483.5 c 128
 346.666666667 479.833333333 326.333333333 468 313 448 c 1
 296.333333333 430.666666667 277 424.333333333 255 429 c 0
 240.333333333 432.333333333 232.333333333 437.666666667 231 445 c 128
 229.666666667 452.333333333 229.333333333 458.333333333 230 463 c 1
 190.666666667 449 157 417.833333333 129 369.5 c 128
 101 321.166666667 90 262.666666667 96 194 c 0
 100 141.333333333 114.666666667 99.3333333333 140 68 c 1
 142.666666667 56.6666666667 139.5 47.8333333333 130.5 41.5 c 128
 121.5 35.1666666667 112.666666667 35.3333333333 104 42 c 1
 76.6666666667 77.3333333333 60.1666666667 127 54.5 191 c 128
 48.8333333333 255 59.6666666667 312.666666667 87 364 c 0
 91.6666666667 371.333333333 97 381.5 103 394.5 c 128
 109 407.5 118.333333333 421.333333333 131 436 c 0
 144.333333333 450.666666667 158.666666667 463.333333333 174 474 c 0
 208.666666667 498 242.333333333 510 275 510 c 1
 303 529.333333333 335 538.333333333 371 537 c 0
 406.333333333 536.333333333 435.666666667 526.666666667 459 508 c 0
 477 493.333333333 483.666666667 468.5 479 433.5 c 128
 474.333333333 398.5 462.666666667 380.333333333 444 379 c 0
 430.666666667 379 417.166666667 379.5 403.5 380.5 c 128
 389.833333333 381.5 371.666666667 381.166666667 349 379.5 c 128
 326.333333333 377.833333333 305.666666667 371.333333333 287 360 c 0
 228.333333333 325.333333333 195 280 187 224 c 0
 176.333333333 150 221 106 321 92 c 0
 345.666666667 88.6666666667 376.666666667 87 414 87 c 0
 578 87 674 131.333333333 702 220 c 0
 720.666666667 278.666666667 711 324 673 356 c 0
 649.666666667 376 612.333333333 384.333333333 561 381 c 0
 547 380.333333333 533.333333333 379.666666667 520 379 c 0
EndSplineSet
EndChar

StartChar: si_vocalicLL
Encoding: 13 3472 14
GlifName: si_vocalicL_L_
Width: 0
Flags: W
LayerCount: 3
Back
Fore
Layer: 2
SplineSet
520 379 m 0
 501.333333333 380.333333333 497 396.666666667 507 428 c 0
 519.666666667 466.666666667 540.333333333 494.333333333 569 511 c 0
 597.666666667 527 629.833333333 535.833333333 665.5 537.5 c 128
 701.166666667 539.166666667 728.666666667 530 748 510 c 1
 780.666666667 510 807.666666667 498.166666667 829 474.5 c 128
 850.333333333 450.833333333 861.666666667 422 863 388 c 0
 863 380 863.5 372.166666667 864.5 364.5 c 128
 865.5 356.833333333 865.333333333 344.833333333 864 328.5 c 128
 862.666666667 312.166666667 857.666666667 290.5 849 263.5 c 128
 840.333333333 236.5 828.666666667 209.333333333 814 182 c 0
 784 124 747 77.3333333333 703 42 c 1
 690.333333333 35.3333333333 681.166666667 35.1666666667 675.5 41.5 c 128
 669.833333333 47.8333333333 671.333333333 56.6666666667 680 68 c 1
 720.666666667 98 754.333333333 140 781 194 c 0
 825 281.333333333 836 353.333333333 814 410 c 0
 804.666666667 434 790 451 770 461 c 1
 766.666666667 444.333333333 753.333333333 433.666666667 730 429 c 128
 706.666666667 424.333333333 690.666666667 430.666666667 682 448 c 1
 676.666666667 467.333333333 661.666666667 479.333333333 637 484 c 0
 611.666666667 487.333333333 588.333333333 478.666666667 567 458 c 0
 556.333333333 448 549.666666667 435 547 419 c 1
 548 419 l 2
 559.333333333 419 570.833333333 419.166666667 582.5 419.5 c 128
 594.166666667 419.833333333 605.666666667 419.333333333 617 418 c 0
 665.666666667 415.333333333 701 398.833333333 723 368.5 c 128
 745 338.166666667 754 302 750 260 c 128
 746 218 730 177.666666667 702 139 c 0
 640.666666667 55.6666666667 539 14 397 14 c 0
 289.666666667 14 216 39.3333333333 176 90 c 0
 152.666666667 118.666666667 142.333333333 154.666666667 145 198 c 0
 149 264 178 320.333333333 232 367 c 0
 274.666666667 403 330.333333333 420.333333333 399 419 c 2
 434 419 l 1
 438.666666667 435 438.333333333 448 433 458 c 0
 421 478.666666667 401.333333333 487.166666667 374 483.5 c 128
 346.666666667 479.833333333 326.333333333 468 313 448 c 1
 296.333333333 430.666666667 277 424.333333333 255 429 c 0
 240.333333333 432.333333333 232.333333333 437.666666667 231 445 c 128
 229.666666667 452.333333333 229.333333333 458.333333333 230 463 c 1
 190.666666667 449 157 417.833333333 129 369.5 c 128
 101 321.166666667 90 262.666666667 96 194 c 0
 100 141.333333333 114.666666667 99.3333333333 140 68 c 1
 142.666666667 56.6666666667 139.5 47.8333333333 130.5 41.5 c 128
 121.5 35.1666666667 112.666666667 35.3333333333 104 42 c 1
 76.6666666667 77.3333333333 60.1666666667 127 54.5 191 c 128
 48.8333333333 255 59.6666666667 312.666666667 87 364 c 0
 91.6666666667 371.333333333 97 381.5 103 394.5 c 128
 109 407.5 118.333333333 421.333333333 131 436 c 0
 144.333333333 450.666666667 158.666666667 463.333333333 174 474 c 0
 208.666666667 498 242.333333333 510 275 510 c 1
 303 529.333333333 335 538.333333333 371 537 c 0
 406.333333333 536.333333333 435.666666667 526.666666667 459 508 c 0
 477 493.333333333 483.666666667 468.5 479 433.5 c 128
 474.333333333 398.5 462.666666667 380.333333333 444 379 c 0
 430.666666667 379 417.166666667 379.5 403.5 380.5 c 128
 389.833333333 381.5 371.666666667 381.166666667 349 379.5 c 128
 326.333333333 377.833333333 305.666666667 371.333333333 287 360 c 0
 228.333333333 325.333333333 195 280 187 224 c 0
 176.333333333 150 221 106 321 92 c 0
 345.666666667 88.6666666667 376.666666667 87 414 87 c 0
 578 87 674 131.333333333 702 220 c 0
 720.666666667 278.666666667 711 324 673 356 c 0
 649.666666667 376 612.333333333 384.333333333 561 381 c 0
 547 380.333333333 533.333333333 379.666666667 520 379 c 0
1011 478 m 1
 1023.66666667 476.666666667 1029.5 471 1028.5 461 c 128
 1027.5 451 1020.66666667 444 1008 440 c 0
 987.333333333 434.666666667 970.666666667 420.333333333 958 397 c 0
 951.333333333 386.333333333 946.833333333 375.166666667 944.5 363.5 c 128
 942.166666667 351.833333333 941.333333333 341 942 331 c 0
 944.666666667 301 961.333333333 288 992 292 c 0
 1006 294 1016.66666667 298 1024 304 c 0
 1032 309.333333333 1037 315 1039 321 c 0
 1044.33333333 333.666666667 1045.66666667 345 1043 355 c 128
 1040.33333333 365 1033 370 1021 370 c 1
 1009.66666667 372.666666667 1005.5 380.333333333 1008.5 393 c 128
 1011.5 405.666666667 1016.66666667 417 1024 427 c 0
 1030.66666667 437 1038.66666667 445.666666667 1048 453 c 0
 1068 467.666666667 1090.33333333 476.666666667 1115 480 c 128
 1139.66666667 483.333333333 1159.33333333 479.333333333 1174 468 c 0
 1198 449.333333333 1209.66666667 414.666666667 1209 364 c 0
 1208.33333333 332 1203.33333333 298.666666667 1194 264 c 0
 1165.33333333 148.666666667 1111.33333333 69.6666666667 1032 27 c 0
 998.666666667 9.66666666667 962.666666667 7.66666666667 924 21 c 0
 900 29 883 42.3333333333 873 61 c 0
 867.666666667 69.6666666667 865.333333333 80 866 92 c 0
 869.333333333 104.666666667 876.166666667 112.5 886.5 115.5 c 128
 896.833333333 118.5 903.666666667 114.333333333 907 103 c 1
 906.333333333 84.3333333333 916.5 71 937.5 63 c 128
 958.5 55 979.666666667 53.6666666667 1001 59 c 0
 1047 73.6666666667 1085 123 1115 207 c 0
 1134.33333333 260.333333333 1144.5 306.666666667 1145.5 346 c 128
 1146.5 385.333333333 1139.33333333 411.333333333 1124 424 c 0
 1116.66666667 430.666666667 1107.5 433.166666667 1096.5 431.5 c 128
 1085.5 429.833333333 1077.16666667 427.166666667 1071.5 423.5 c 128
 1065.83333333 419.833333333 1060.33333333 413.333333333 1055 404 c 1
 1071.66666667 396 1081.66666667 382 1085 362 c 0
 1087 352.666666667 1086.33333333 342.666666667 1083 332 c 0
 1079.66666667 322 1075.33333333 312.333333333 1070 303 c 0
 1058.66666667 285.666666667 1044 272.833333333 1026 264.5 c 128
 1008 256.166666667 991 252 975 252 c 0
 947 252 927.333333333 261.333333333 916 280 c 0
 897.333333333 306 896.333333333 341 913 385 c 0
 925 417 943 441.666666667 967 459 c 0
 980.333333333 467.666666667 995 474 1011 478 c 1
EndSplineSet
EndChar

StartChar: si_E
Encoding: 14 3473 15
GlifName: si_E_
Width: 0
Flags: W
LayerCount: 3
Back
Fore
Layer: 2
SplineSet
603 548 m 1
 575.666666667 586.666666667 541.333333333 622.333333333 500 655 c 0
 498.666666667 656.333333333 497.333333333 657.333333333 496 658 c 128
 494.666666667 658.666666667 492.666666667 656.5 490 651.5 c 128
 487.333333333 646.5 483.666666667 640 479 632 c 0
 442.333333333 576.666666667 444.333333333 539.666666667 485 521 c 0
 522.333333333 505 560 512.666666667 598 544 c 2
 603 548 l 1
85 385 m 2
 73.6666666667 387 69.3333333333 393.833333333 72 405.5 c 128
 74.6666666667 417.166666667 82 423.666666667 94 425 c 2
 347 427 l 2
 351.666666667 427.666666667 354.333333333 430 355 434 c 0
 359.666666667 450 358.666666667 462.333333333 352 471 c 0
 339.333333333 491 319.333333333 498.333333333 292 493 c 128
 264.666666667 487.666666667 244.333333333 475.666666667 231 457 c 1
 230 456 l 2
 214 438 194.666666667 431.666666667 172 437 c 0
 158.666666667 439.666666667 151 444.166666667 149 450.5 c 128
 147 456.833333333 146.833333333 463.833333333 148.5 471.5 c 128
 150.166666667 479.166666667 156.833333333 488.5 168.5 499.5 c 128
 180.166666667 510.5 195.666666667 520.166666667 215 528.5 c 128
 234.333333333 536.833333333 254 541.666666667 274 543 c 0
 315.333333333 545 349.333333333 535.666666667 376 515 c 0
 397.333333333 497 404 468 396 428 c 0
 393.333333333 416.666666667 388.666666667 405 382 393 c 1
 374.666666667 387.666666667 368 385 362 385 c 2
 266 385 l 1
 227.333333333 379 198.833333333 370.666666667 180.5 360 c 128
 162.166666667 349.333333333 148 339 138 329 c 128
 128 319 119.333333333 307.833333333 112 295.5 c 128
 104.666666667 283.166666667 99.8333333333 272.166666667 97.5 262.5 c 128
 95.1666666667 252.833333333 93.5 241.5 92.5 228.5 c 128
 91.5 215.5 94.1666666667 202.166666667 100.5 188.5 c 128
 106.833333333 174.833333333 116.333333333 162.666666667 129 152 c 0
 151.666666667 130.666666667 182.333333333 114.666666667 221 104 c 128
 259.666666667 93.3333333333 293.5 88.8333333333 322.5 90.5 c 128
 351.5 92.1666666667 377.333333333 95.8333333333 400 101.5 c 128
 422.666666667 107.166666667 445 115 467 125 c 0
 515 147 554.333333333 175.333333333 585 210 c 0
 637.666666667 271.333333333 657.666666667 346.333333333 645 435 c 0
 641 464.333333333 632.666666667 491.333333333 620 516 c 1
 564.666666667 475.333333333 515 463.666666667 471 481 c 0
 445 491.666666667 427.166666667 508.333333333 417.5 531 c 128
 407.833333333 553.666666667 409.333333333 578.333333333 422 605 c 0
 428.666666667 619.666666667 436.166666667 633.166666667 444.5 645.5 c 128
 452.833333333 657.833333333 457.666666667 665.666666667 459 669 c 128
 460.333333333 672.333333333 461.166666667 674.333333333 461.5 675 c 128
 461.833333333 675.666666667 462.166666667 676.166666667 462.5 676.5 c 128
 462.833333333 676.833333333 462.833333333 677.333333333 462.5 678 c 128
 462.166666667 678.666666667 462 680 462 682 c 0
 458 686.666666667 453.166666667 690.166666667 447.5 692.5 c 128
 441.833333333 694.833333333 437 698.166666667 433 702.5 c 128
 429 706.833333333 428.333333333 712.166666667 431 718.5 c 128
 433.666666667 724.833333333 437.333333333 729.333333333 442 732 c 0
 457.333333333 740.666666667 487.666666667 725.666666667 533 687 c 0
 557.666666667 667 578.666666667 647.666666667 596 629 c 0
 668.666666667 551.666666667 699.666666667 463.666666667 689 365 c 0
 680.333333333 292.333333333 652.666666667 225.333333333 606 164 c 0
 552 92 479.666666667 46.6666666667 389 28 c 0
 314.333333333 12 244 16 178 40 c 256
 112 64 71 105.333333333 55 164 c 0
 43 208.666666667 49 253 73 297 c 0
 89 327 117 353.333333333 157 376 c 0
 159 378.666666667 159.666666667 380.833333333 159 382.5 c 128
 158.333333333 384.166666667 156.666666667 385 154 385 c 2
 85 385 l 2
EndSplineSet
EndChar

StartChar: si_Ee
Encoding: 15 3474 16
GlifName: si_E_e
Width: 0
Flags: W
LayerCount: 3
Back
Fore
Layer: 2
SplineSet
675 773 m 1
 675 766.333333333 672 750 666 724 c 2
 665 721 l 2
 665.666666667 719 666 717 666 715 c 1
 666 715.666666667 666.166666667 715.833333333 666.5 715.5 c 128
 666.833333333 715.166666667 667.166666667 714.333333333 667.5 713 c 128
 667.833333333 711.666666667 668 710.333333333 668 709 c 128
 668 707.666666667 668.5 706 669.5 704 c 128
 670.5 702 672.666666667 699.833333333 676 697.5 c 128
 679.333333333 695.166666667 683.333333333 694 688 694 c 0
 697.333333333 694.666666667 707.5 700.833333333 718.5 712.5 c 128
 729.5 724.166666667 735.166666667 738.666666667 735.5 756 c 128
 735.833333333 773.333333333 733.666666667 784.333333333 729 789 c 0
 722.333333333 798.333333333 713 800.5 701 795.5 c 128
 689 790.5 680.333333333 783 675 773 c 1
599 551 m 1
 573 591 537.666666667 628.333333333 493 663 c 1
 489 654.333333333 483.333333333 645.333333333 476 636 c 0
 452 600 444 574.333333333 452 559 c 0
 466 531.666666667 488.666666667 517.5 520 516.5 c 128
 551.333333333 515.5 577.666666667 527 599 551 c 1
651 662 m 1
 645 635.333333333 638.666666667 608.666666667 632 582 c 1
 634 582 l 1
 661.333333333 534.666666667 678.333333333 496 685 466 c 0
 699 403.333333333 691 335.5 661 262.5 c 128
 631 189.5 585.833333333 132 525.5 90 c 128
 465.166666667 48 396.166666667 25.6666666667 318.5 23 c 128
 240.833333333 20.3333333333 177 35.6666666667 127 69 c 0
 90.3333333333 93 66.1666666667 126.5 54.5 169.5 c 128
 42.8333333333 212.5 49 256.333333333 73 301 c 0
 89 331 116.666666667 357 156 379 c 0
 158 381.666666667 158.666666667 384 158 386 c 128
 157.333333333 388 155.666666667 389 153 389 c 2
 85 389 l 2
 73.6666666667 391 69.3333333333 397.666666667 72 409 c 128
 74.6666666667 420.333333333 82 426.666666667 94 428 c 2
 347 430 l 2
 351.666666667 431.333333333 354.333333333 434 355 438 c 0
 359 454 358 466.333333333 352 475 c 0
 339.333333333 494.333333333 319.166666667 501.333333333 291.5 496 c 128
 263.833333333 490.666666667 243.333333333 478.666666667 230 460 c 1
 229 459 l 2
 213 441.666666667 193.666666667 435.333333333 171 440 c 0
 158.333333333 442.666666667 151 447.333333333 149 454 c 128
 147 460.666666667 146.833333333 467.666666667 148.5 475 c 128
 150.166666667 482.333333333 156.833333333 491.666666667 168.5 503 c 128
 180.166666667 514.333333333 195.666666667 524 215 532 c 128
 234.333333333 540 253.666666667 544.666666667 273 546 c 0
 314.333333333 548.666666667 348.666666667 539.333333333 376 518 c 0
 397.333333333 500.666666667 403.666666667 472 395 432 c 0
 392.333333333 420 388 408 382 396 c 1
 374.666666667 391.333333333 367.666666667 389 361 389 c 2
 267 389 l 1
 228.333333333 382.333333333 199.5 373.833333333 180.5 363.5 c 128
 161.5 353.166666667 147.166666667 343 137.5 333 c 128
 127.833333333 323 119.333333333 311.666666667 112 299 c 128
 104.666666667 286.333333333 99.8333333333 275.166666667 97.5 265.5 c 128
 95.1666666667 255.833333333 93.6666666667 244.666666667 93 232 c 128
 92.3333333333 219.333333333 95 206.166666667 101 192.5 c 128
 107 178.833333333 116 166.666666667 128 156 c 0
 150.666666667 134.666666667 181.5 118.5 220.5 107.5 c 128
 259.5 96.5 293.333333333 92 322 94 c 128
 350.666666667 96 376.5 99.8333333333 399.5 105.5 c 128
 422.5 111.166666667 445 119 467 129 c 0
 514.333333333 150.333333333 553.333333333 178.666666667 584 214 c 0
 637.333333333 275.333333333 657.333333333 350 644 438 c 0
 639.333333333 466.666666667 630.333333333 494 617 520 c 1
 599.666666667 504 580.166666667 492.5 558.5 485.5 c 128
 536.833333333 478.5 516.166666667 476.166666667 496.5 478.5 c 128
 476.833333333 480.833333333 459.333333333 487.666666667 444 499 c 256
 428.666666667 510.333333333 418.333333333 524.666666667 413 542 c 0
 404.333333333 573.333333333 416.666666667 612.666666667 450 660 c 0
 454.666666667 666.666666667 458 673 460 679 c 2
 460 683 l 2
 460.666666667 683 460.333333333 684 459 686 c 2
 435 701 l 2
 423.666666667 707.666666667 422.333333333 716.666666667 431 728 c 0
 435 732.666666667 439.666666667 736 445 738 c 0
 458.333333333 742.666666667 488.666666667 725.333333333 536 686 c 0
 560 666.666666667 582 645 602 621 c 1
 604.666666667 632.333333333 607.666666667 643 611 653 c 0
 613.666666667 663.666666667 617 677.166666667 621 693.5 c 128
 625 709.833333333 628.666666667 726 632 742 c 0
 636 765.333333333 631 781 617 789 c 0
 607.666666667 793.666666667 599.666666667 797 593 799 c 0
 591.666666667 799 591.333333333 799 592 799 c 2
 593 799 l 1
 582.333333333 803.666666667 579.5 811.333333333 584.5 822 c 128
 589.5 832.666666667 599 837.333333333 613 836 c 0
 633 830.666666667 648.666666667 821.666666667 660 809 c 1
 688.666666667 837 718 844.666666667 748 832 c 0
 760 826.666666667 768.666666667 813 774 791 c 128
 779.333333333 769 775 743.333333333 761 714 c 256
 747 684.666666667 727.666666667 666 703 658 c 0
 683.666666667 652 666.333333333 653.333333333 651 662 c 1
EndSplineSet
EndChar

StartChar: si_Ai
Encoding: 16 3475 17
GlifName: si_A_i
Width: 0
Flags: W
LayerCount: 3
Back
Fore
Layer: 2
SplineSet
301 310 m 1
 270.333333333 304 248.833333333 290.166666667 236.5 268.5 c 128
 224.166666667 246.833333333 228.666666667 228.333333333 250 213 c 0
 259.333333333 206.333333333 272.666666667 204 290 206 c 128
 307.333333333 208 322.333333333 216.666666667 335 232 c 0
 343 242 347 253.666666667 347 267 c 0
 348.333333333 293.666666667 333 308 301 310 c 1
434 208 m 0
 443.333333333 255.333333333 425.666666667 287.666666667 381 305 c 1
 383.666666667 297 385.333333333 288.333333333 386 279 c 0
 386.666666667 245.666666667 375.333333333 218.833333333 352 198.5 c 128
 328.666666667 178.166666667 303.5 167.333333333 276.5 166 c 128
 249.5 164.666666667 226 173.333333333 206 192 c 0
 195.333333333 202 190 216.666666667 190 236 c 0
 190.666666667 268 204.166666667 294.333333333 230.5 315 c 128
 256.833333333 335.666666667 288.5 347.833333333 325.5 351.5 c 128
 362.5 355.166666667 396 348.333333333 426 331 c 128
 456 313.666666667 474 287.333333333 480 252 c 0
 488.666666667 194.666666667 471.833333333 144.166666667 429.5 100.5 c 128
 387.166666667 56.8333333333 334.5 30 271.5 20 c 128
 208.5 10 155 23.5 111 60.5 c 128
 67 97.5 46.5 147 49.5 209 c 128
 52.5 271 74.8333333333 327.666666667 116.5 379 c 128
 158.166666667 430.333333333 211.666666667 465.833333333 277 485.5 c 128
 342.333333333 505.166666667 401 504 453 482 c 0
 479 470.666666667 497.333333333 458.333333333 508 445 c 1
 511.333333333 433.666666667 508.5 424.666666667 499.5 418 c 128
 490.5 411.333333333 481.333333333 411.666666667 472 419 c 0
 467.333333333 425 456.166666667 432.5 438.5 441.5 c 128
 420.833333333 450.5 400 456 376 458 c 0
 314.666666667 464.666666667 255.666666667 448 199 408 c 0
 150.333333333 374 117.833333333 330.166666667 101.5 276.5 c 128
 85.1666666667 222.833333333 91.8333333333 177.666666667 121.5 141 c 128
 151.166666667 104.333333333 197.666666667 86 261 86 c 0
 295 86 330 97.6666666667 366 121 c 0
 383.333333333 132.333333333 398.166666667 145.833333333 410.5 161.5 c 128
 422.833333333 177.166666667 430.666666667 192.666666667 434 208 c 0
1083 548 m 1
 1055 586.666666667 1020.66666667 622.333333333 980 655 c 0
 978 656.333333333 976.333333333 657.333333333 975 658 c 128
 973.666666667 658.666666667 971.833333333 656.5 969.5 651.5 c 128
 967.166666667 646.5 963.333333333 640 958 632 c 0
 921.333333333 576.666666667 923.666666667 539.666666667 965 521 c 0
 1001.66666667 505 1039 512.666666667 1077 544 c 1
 1083 548 l 1
565 385 m 2
 553.666666667 387 549.333333333 393.833333333 552 405.5 c 128
 554.666666667 417.166666667 561.666666667 423.666666667 573 425 c 2
 826 427 l 2
 830.666666667 427.666666667 833.666666667 430 835 434 c 0
 839 450 837.666666667 462.333333333 831 471 c 0
 818.333333333 490.333333333 798.333333333 497.5 771 492.5 c 128
 743.666666667 487.5 723.333333333 475.333333333 710 456 c 1
 709 456 l 1
 693 438 673.666666667 431.666666667 651 437 c 0
 638.333333333 439.666666667 630.833333333 444.166666667 628.5 450.5 c 128
 626.166666667 456.833333333 626 463.833333333 628 471.5 c 128
 630 479.166666667 636.666666667 488.5 648 499.5 c 128
 659.333333333 510.5 674.666666667 520.166666667 694 528.5 c 128
 713.333333333 536.833333333 733 541.666666667 753 543 c 0
 794.333333333 545 828.333333333 535.666666667 855 515 c 0
 876.333333333 497 883 468 875 428 c 0
 872.333333333 416.666666667 867.666666667 405 861 393 c 1
 854.333333333 387.666666667 847.666666667 385 841 385 c 2
 747 385 l 1
 708.333333333 379 679.5 370.666666667 660.5 360 c 128
 641.5 349.333333333 627 339 617 329 c 128
 607 319 598.333333333 307.833333333 591 295.5 c 128
 583.666666667 283.166666667 578.833333333 272.166666667 576.5 262.5 c 128
 574.166666667 252.833333333 572.666666667 241.5 572 228.5 c 128
 571.333333333 215.5 574 202.166666667 580 188.5 c 128
 586 174.833333333 595.333333333 162.666666667 608 152 c 0
 630.666666667 130.666666667 661.333333333 114.666666667 700 104 c 128
 738.666666667 93.3333333333 772.5 88.8333333333 801.5 90.5 c 128
 830.5 92.1666666667 856.333333333 95.8333333333 879 101.5 c 128
 901.666666667 107.166666667 924 115 946 125 c 0
 994 147 1033.33333333 175.333333333 1064 210 c 0
 1116.66666667 271.333333333 1136.66666667 346.333333333 1124 435 c 0
 1120 464.333333333 1112 491.333333333 1100 516 c 1
 1044 475.333333333 994.333333333 463.666666667 951 481 c 0
 924.333333333 491.666666667 906.166666667 508.333333333 896.5 531 c 128
 886.833333333 553.666666667 888.333333333 578.333333333 901 605 c 0
 907.666666667 619.666666667 915.333333333 633.166666667 924 645.5 c 128
 932.666666667 657.833333333 937.5 665.666666667 938.5 669 c 128
 939.5 672.333333333 940.166666667 674.333333333 940.5 675 c 128
 940.833333333 675.666666667 941.166666667 676.166666667 941.5 676.5 c 128
 941.833333333 676.833333333 941.833333333 677.333333333 941.5 678 c 128
 941.166666667 678.666666667 941 680 941 682 c 0
 937.666666667 686.666666667 933 690.166666667 927 692.5 c 128
 921 694.833333333 916.166666667 698.166666667 912.5 702.5 c 128
 908.833333333 706.833333333 908.166666667 712.166666667 910.5 718.5 c 128
 912.833333333 724.833333333 916.666666667 729.333333333 922 732 c 0
 936.666666667 740.666666667 966.666666667 725.666666667 1012 687 c 0
 1036.66666667 667 1057.66666667 647.666666667 1075 629 c 0
 1148.33333333 551.666666667 1179.33333333 463.666666667 1168 365 c 0
 1160 292.333333333 1132.33333333 225.333333333 1085 164 c 0
 1015 70.6666666667 918.666666667 22.3333333333 796 19 c 0
 720.666666667 17.6666666667 657.666666667 33 607 65 c 0
 570.333333333 89.6666666667 546 123.5 534 166.5 c 128
 522 209.5 528 253 552 297 c 0
 568 327 596 353.333333333 636 376 c 0
 638 378.666666667 638.5 380.833333333 637.5 382.5 c 128
 636.5 384.166666667 634.666666667 385 632 385 c 2
 565 385 l 2
EndSplineSet
EndChar

StartChar: si_Os
Encoding: 17 3476 18
GlifName: si_O_s
Width: 0
Flags: W
LayerCount: 3
Back
Fore
Layer: 2
SplineSet
396 406.5 m 128
 394.666666667 389.5 402.5 377.833333333 419.5 371.5 c 128
 436.5 365.166666667 452.833333333 368.5 468.5 381.5 c 128
 484.166666667 394.5 492.666666667 409.666666667 494 427 c 128
 495.333333333 444.333333333 487.166666667 455.833333333 469.5 461.5 c 128
 451.833333333 467.166666667 435.5 463.666666667 420.5 451 c 128
 405.5 438.333333333 397.333333333 423.5 396 406.5 c 128
531 416 m 1
 527 401 l 1
 517 374.333333333 498.166666667 354.666666667 470.5 342 c 128
 442.833333333 329.333333333 418.833333333 326.333333333 398.5 333 c 128
 378.166666667 339.666666667 365 352.666666667 359 372 c 128
 353 391.333333333 353.666666667 410.333333333 361 429 c 128
 368.333333333 447.666666667 379.166666667 462.833333333 393.5 474.5 c 128
 407.833333333 486.166666667 423.666666667 494.666666667 441 500 c 0
 477 508.666666667 508.666666667 504.166666667 536 486.5 c 128
 563.333333333 468.833333333 577.833333333 441.333333333 579.5 404 c 128
 581.166666667 366.666666667 568 331.333333333 540 298 c 0
 502.666666667 252.666666667 449.333333333 229 380 227 c 0
 338 225.666666667 305.333333333 235.333333333 282 256 c 0
 258 276 249.666666667 304.333333333 257 341 c 0
 259.666666667 355.666666667 264.833333333 370.666666667 272.5 386 c 128
 280.166666667 401.333333333 286.333333333 414.666666667 291 426 c 0
 296.333333333 436.666666667 297.666666667 444.333333333 295 449 c 0
 285 469 262.333333333 471 227 455 c 0
 162.333333333 425.666666667 120.333333333 369 101 285 c 0
 91 241 92.3333333333 201 105 165 c 0
 121 119.666666667 154.166666667 95.5 204.5 92.5 c 128
 254.833333333 89.5 292.333333333 104 317 136 c 0
 325.666666667 146.666666667 332 160.666666667 336 178 c 1
 342 188 350.5 193.5 361.5 194.5 c 128
 372.5 195.5 378 189.333333333 378 176 c 1
 367.333333333 133.333333333 382.333333333 107.666666667 423 99 c 0
 518.333333333 78.3333333333 591 122 641 230 c 0
 655.666666667 261.333333333 667.333333333 296.333333333 676 335 c 0
 697.333333333 425 696 501.333333333 672 564 c 0
 645.333333333 635.333333333 592.333333333 677.833333333 513 691.5 c 128
 433.666666667 705.166666667 357 694 283 658 c 0
 258.333333333 646 239.833333333 634.666666667 227.5 624 c 128
 215.166666667 613.333333333 206.666666667 607.666666667 202 607 c 0
 198 606.333333333 194 606.333333333 190 607 c 0
 181.333333333 610.333333333 178.666666667 617 182 627 c 0
 194.666666667 651.666666667 229.833333333 676.833333333 287.5 702.5 c 128
 345.166666667 728.166666667 404.5 740.166666667 465.5 738.5 c 128
 526.5 736.833333333 579 723.333333333 623 698 c 0
 688.333333333 660.666666667 724.666666667 594.333333333 732 499 c 0
 738.666666667 417 723.5 327.666666667 686.5 231 c 128
 649.5 134.333333333 598 69.6666666667 532 37 c 0
 494 18.3333333333 454 14.3333333333 412 25 c 0
 387.333333333 31.6666666667 369.333333333 43 358 59 c 0
 352 66.3333333333 346 75.6666666667 340 87 c 0
 336.666666667 90.3333333333 333.666666667 90 331 86 c 0
 295 48.6666666667 256.333333333 27.3333333333 215 22 c 128
 173.666666667 16.6666666667 139.166666667 24.3333333333 111.5 45 c 128
 83.8333333333 65.6666666667 65.3333333333 96.6666666667 56 138 c 0
 44 196.666666667 49.6666666667 258.666666667 73 324 c 0
 97.6666666667 388 134.333333333 437 183 471 c 0
 217 493.666666667 250 505 282 505 c 0
 298 505 311.5 500.333333333 322.5 491 c 128
 333.5 481.666666667 339.333333333 472 340 462 c 128
 340.666666667 452 338.833333333 441.5 334.5 430.5 c 128
 330.166666667 419.5 324.5 408 317.5 396 c 128
 310.5 384 305.333333333 372 302 360 c 0
 294 338 298.666666667 320 316 306 c 0
 332.666666667 291.333333333 352.333333333 283.666666667 375 283 c 0
 415.666666667 280.333333333 449.5 285.166666667 476.5 297.5 c 128
 503.5 309.833333333 522 329.666666667 532 357 c 0
 542 383 543.333333333 404.333333333 536 421 c 0
 534.666666667 423.666666667 533.666666667 425.333333333 533 426 c 2
 532 425 l 2
 531.333333333 421 531 418.666666667 531 418 c 2
 531 416 l 1
EndSplineSet
EndChar

StartChar: si_Oo
Encoding: 18 3477 19
GlifName: si_O_o
Width: 0
Flags: W
LayerCount: 3
Back
Fore
Layer: 2
SplineSet
454 465 m 2
 449 465 l 2
 436.333333333 465 424.666666667 458.666666667 414 446 c 0
 396 425.333333333 391.833333333 407.166666667 401.5 391.5 c 128
 411.166666667 375.833333333 426.666666667 369.333333333 448 372 c 0
 460.666666667 374 470.833333333 380 478.5 390 c 128
 486.166666667 400 490.5 410.5 491.5 421.5 c 128
 492.5 432.5 490 442.5 484 451.5 c 128
 478 460.5 468 465 454 465 c 2
532 429 m 1
 528 388.333333333 504.666666667 358 462 338 c 0
 446 330.666666667 427.166666667 329.333333333 405.5 334 c 128
 383.833333333 338.666666667 368 354.333333333 358 381 c 0
 352.666666667 394.333333333 352.333333333 406.833333333 357 418.5 c 128
 361.666666667 430.166666667 367.166666667 441.666666667 373.5 453 c 128
 379.833333333 464.333333333 390 475 404 485 c 0
 430.666666667 503 461.333333333 508.666666667 496 502 c 0
 549.333333333 491.333333333 577 461 579 411 c 0
 580.333333333 369.666666667 567.333333333 332.666666667 540 300 c 0
 502.666666667 255.333333333 449.333333333 232 380 230 c 0
 338 228.666666667 305.333333333 238.333333333 282 259 c 0
 258 279 249.666666667 307 257 343 c 0
 259.666666667 358.333333333 264.833333333 373.666666667 272.5 389 c 128
 280.166666667 404.333333333 286.333333333 417.333333333 291 428 c 0
 296.333333333 438.666666667 297.666666667 446.666666667 295 452 c 0
 285 472 262.333333333 473.666666667 227 457 c 0
 162.333333333 427.666666667 120.333333333 371.333333333 101 288 c 0
 91 244 92.3333333333 203.666666667 105 167 c 0
 121 122.333333333 153.666666667 98.3333333333 203 95 c 0
 253.666666667 92.3333333333 291.333333333 106.333333333 316 137 c 0
 325.333333333 149 332 163.333333333 336 180 c 1
 342 190 350.5 195.666666667 361.5 197 c 128
 372.5 198.333333333 378 192.333333333 378 179 c 1
 370 150.333333333 374.666666667 129.666666667 392 117 c 128
 409.333333333 104.333333333 431.166666667 97.6666666667 457.5 97 c 128
 483.833333333 96.3333333333 506 100.333333333 524 109 c 128
 542 117.666666667 558 129.666666667 572 145 c 0
 598 171 620 207 638 253 c 0
 680 363 679 454 635 526 c 0
 608.333333333 569.333333333 569.333333333 598.333333333 518 613 c 0
 445.333333333 633.666666667 369.333333333 635.333333333 290 618 c 0
 262.666666667 612 240.833333333 605.666666667 224.5 599 c 128
 208.166666667 592.333333333 197.666666667 590 193 592 c 0
 189 594.666666667 186.333333333 598 185 602 c 0
 181 612 186 621 200 629 c 2
 210 633 l 1
 196 657 196 682.666666667 210 710 c 1
 220.666666667 739.333333333 246 763.333333333 286 782 c 0
 316.666666667 797.333333333 355 807.666666667 401 813 c 0
 503.666666667 827 591.666666667 814.333333333 665 775 c 0
 725 741.666666667 749 696.333333333 737 639 c 0
 731.666666667 624.333333333 723 617.666666667 711 619 c 0
 706.333333333 619.666666667 702.666666667 622 700 626 c 128
 697.333333333 630 696.666666667 635.666666667 698 643 c 0
 698.666666667 675 681 701 645 721 c 0
 598.333333333 747.666666667 538.833333333 760.666666667 466.5 760 c 128
 394.166666667 759.333333333 336.833333333 750.833333333 294.5 734.5 c 128
 252.166666667 718.166666667 235.333333333 695 244 665 c 0
 245.333333333 657.666666667 250.666666667 652 260 648 c 1
 344.666666667 672 428.333333333 676 511 660 c 0
 594.333333333 642 653 598.333333333 687 529 c 0
 711.666666667 479 720.666666667 424.666666667 714 366 c 0
 711.333333333 343.333333333 706.666666667 319.333333333 700 294 c 0
 694.666666667 268 687 242.333333333 677 217 c 0
 655 159 626.666666667 113.666666667 592 81 c 0
 550 42.3333333333 501.666666667 23 447 23 c 0
 423.666666667 23 404.333333333 27.3333333333 389 36 c 128
 373.666666667 44.6666666667 363 53.1666666667 357 61.5 c 128
 351 69.8333333333 345.333333333 79.3333333333 340 90 c 0
 336.666666667 92.6666666667 333.666666667 92.3333333333 331 89 c 0
 295 51.6666666667 256.333333333 30.3333333333 215 25 c 128
 173.666666667 19.6666666667 139.166666667 27.1666666667 111.5 47.5 c 128
 83.8333333333 67.8333333333 65.3333333333 99 56 141 c 0
 44 199.666666667 49.6666666667 261.333333333 73 326 c 0
 97.6666666667 390.666666667 134.333333333 439.666666667 183 473 c 0
 217 496.333333333 250 508 282 508 c 0
 298 508 311.5 503.333333333 322.5 494 c 128
 333.5 484.666666667 339.333333333 475 340 465 c 128
 340.666666667 455 338.833333333 444.333333333 334.5 433 c 128
 330.166666667 421.666666667 324.5 410.166666667 317.5 398.5 c 128
 310.5 386.833333333 305.333333333 375 302 363 c 0
 294 340.333333333 298.666666667 322.333333333 316 309 c 0
 332.666666667 294.333333333 352.333333333 286.333333333 375 285 c 0
 457.666666667 280.333333333 510 305 532 359 c 0
 542.666666667 386.333333333 542.666666667 409.666666667 532 429 c 1
EndSplineSet
EndChar

StartChar: si_Au
Encoding: 19 3478 20
GlifName: si_A_u
Width: 0
Flags: W
LayerCount: 3
Back
Fore
Layer: 2
SplineSet
396 406.5 m 128
 394.666666667 389.5 402.5 377.833333333 419.5 371.5 c 128
 436.5 365.166666667 452.833333333 368.5 468.5 381.5 c 128
 484.166666667 394.5 492.666666667 409.666666667 494 427 c 128
 495.333333333 444.333333333 487.166666667 455.833333333 469.5 461.5 c 128
 451.833333333 467.166666667 435.5 463.666666667 420.5 451 c 128
 405.5 438.333333333 397.333333333 423.5 396 406.5 c 128
531 416 m 1
 527 401 l 1
 517 374.333333333 498.166666667 354.666666667 470.5 342 c 128
 442.833333333 329.333333333 418.833333333 326.333333333 398.5 333 c 128
 378.166666667 339.666666667 365 352.666666667 359 372 c 128
 353 391.333333333 353.666666667 410.333333333 361 429 c 128
 368.333333333 447.666666667 379.166666667 462.833333333 393.5 474.5 c 128
 407.833333333 486.166666667 423.666666667 494.666666667 441 500 c 0
 477 508.666666667 508.666666667 504.166666667 536 486.5 c 128
 563.333333333 468.833333333 577.833333333 441.333333333 579.5 404 c 128
 581.166666667 366.666666667 568 331.333333333 540 298 c 0
 502.666666667 252.666666667 449.333333333 229 380 227 c 0
 338 225.666666667 305.333333333 235.333333333 282 256 c 0
 258 276 249.666666667 304.333333333 257 341 c 0
 259.666666667 355.666666667 264.833333333 370.666666667 272.5 386 c 128
 280.166666667 401.333333333 286.333333333 414.666666667 291 426 c 0
 296.333333333 436.666666667 297.666666667 444.333333333 295 449 c 0
 285 469 262.333333333 471 227 455 c 0
 162.333333333 425.666666667 120.333333333 369 101 285 c 0
 91 241 92.3333333333 201 105 165 c 0
 121 119.666666667 154.166666667 95.5 204.5 92.5 c 128
 254.833333333 89.5 292.333333333 104 317 136 c 0
 325.666666667 146.666666667 332 160.666666667 336 178 c 1
 342 188 350.5 193.5 361.5 194.5 c 128
 372.5 195.5 378 189.333333333 378 176 c 1
 367.333333333 133.333333333 382.333333333 107.666666667 423 99 c 0
 518.333333333 78.3333333333 591 122 641 230 c 0
 655.666666667 261.333333333 667.333333333 296.333333333 676 335 c 0
 697.333333333 425 696 501.333333333 672 564 c 0
 645.333333333 635.333333333 592.333333333 677.833333333 513 691.5 c 128
 433.666666667 705.166666667 357 694 283 658 c 0
 258.333333333 646 239.833333333 634.666666667 227.5 624 c 128
 215.166666667 613.333333333 206.666666667 607.666666667 202 607 c 0
 198 606.333333333 194 606.333333333 190 607 c 0
 181.333333333 610.333333333 178.666666667 617 182 627 c 0
 194.666666667 651.666666667 229.833333333 676.833333333 287.5 702.5 c 128
 345.166666667 728.166666667 404.5 740.166666667 465.5 738.5 c 128
 526.5 736.833333333 579 723.333333333 623 698 c 0
 688.333333333 660.666666667 724.666666667 594.333333333 732 499 c 0
 738.666666667 417 723.5 327.666666667 686.5 231 c 128
 649.5 134.333333333 598 69.6666666667 532 37 c 0
 494 18.3333333333 454 14.3333333333 412 25 c 0
 387.333333333 31.6666666667 369.333333333 43 358 59 c 0
 352 66.3333333333 346 75.6666666667 340 87 c 0
 336.666666667 90.3333333333 333.666666667 90 331 86 c 0
 295 48.6666666667 256.333333333 27.3333333333 215 22 c 128
 173.666666667 16.6666666667 139.166666667 24.3333333333 111.5 45 c 128
 83.8333333333 65.6666666667 65.3333333333 96.6666666667 56 138 c 0
 44 196.666666667 49.6666666667 258.666666667 73 324 c 0
 97.6666666667 388 134.333333333 437 183 471 c 0
 217 493.666666667 250 505 282 505 c 0
 298 505 311.5 500.333333333 322.5 491 c 128
 333.5 481.666666667 339.333333333 472 340 462 c 128
 340.666666667 452 338.833333333 441.5 334.5 430.5 c 128
 330.166666667 419.5 324.5 408 317.5 396 c 128
 310.5 384 305.333333333 372 302 360 c 0
 294 338 298.666666667 320 316 306 c 0
 332.666666667 291.333333333 352.333333333 283.666666667 375 283 c 0
 415.666666667 280.333333333 449.5 285.166666667 476.5 297.5 c 128
 503.5 309.833333333 522 329.666666667 532 357 c 0
 542 383 543.333333333 404.333333333 536 421 c 0
 534.666666667 423.666666667 533.666666667 425.333333333 533 426 c 128
 532.333333333 426.666666667 532 426.333333333 532 425 c 0
 531.333333333 421 531 418.666666667 531 418 c 2
 531 416 l 1
933 331 m 0
 929.666666667 316.333333333 918 300.5 898 283.5 c 128
 878 266.5 854.333333333 258 827 258 c 128
 799.666666667 258 779.666666667 267.333333333 767 286 c 0
 749 312.666666667 748.333333333 348 765 392 c 0
 785 442.666666667 817.333333333 473.666666667 862 485 c 1
 874.666666667 483.666666667 880.666666667 478 880 468 c 128
 879.333333333 458 872.666666667 450.666666667 860 446 c 0
 850 443.333333333 840.333333333 438 831 430 c 0
 813.666666667 414 802 393.833333333 796 369.5 c 128
 790 345.166666667 792.666666667 325.166666667 804 309.5 c 128
 815.333333333 293.833333333 834.666666667 291.666666667 862 303 c 0
 868.666666667 305.666666667 875.666666667 309.666666667 883 315 c 0
 889.666666667 320.333333333 893.666666667 330 895 344 c 0
 897.666666667 366 890.666666667 377 874 377 c 1
 862.666666667 380.333333333 858 388.333333333 860 401 c 0
 868.666666667 435.666666667 896 462.333333333 942 481 c 0
 959.333333333 488.333333333 978.666666667 490 1000 486 c 0
 1063.33333333 472 1077 393.333333333 1041 250 c 0
 1023.66666667 178.666666667 990.333333333 120.333333333 941 75 c 0
 909 45 878.333333333 27.3333333333 849 22 c 0
 808.333333333 15.3333333333 774 22.6666666667 746 44 c 0
 726.666666667 58 717.333333333 76.3333333333 718 99 c 1
 721.333333333 111.666666667 728.166666667 119.333333333 738.5 122 c 128
 748.833333333 124.666666667 755.333333333 120.333333333 758 109 c 0
 758 99 761.166666667 90.6666666667 767.5 84 c 128
 773.833333333 77.3333333333 784.166666667 71.3333333333 798.5 66 c 128
 812.833333333 60.6666666667 830.666666667 60.3333333333 852 65 c 0
 898 80.3333333333 936 129.666666667 966 213 c 0
 972.666666667 230.333333333 978.166666667 247.5 982.5 264.5 c 128
 986.833333333 281.5 991.166666667 303.166666667 995.5 329.5 c 128
 999.833333333 355.833333333 998.5 381.5 991.5 406.5 c 128
 984.5 431.5 968 441.666666667 942 437 c 0
 926.666666667 434.333333333 914.666666667 425.666666667 906 411 c 1
 934 397.666666667 943 371 933 331 c 0
EndSplineSet
EndChar

StartChar: si_Ka
Encoding: 20 3482 21
GlifName: si_K_a
Width: 0
Flags: W
LayerCount: 3
Back
Fore
Layer: 2
SplineSet
233 18 m 0
 299 18 339.666666667 54.3333333333 355 127 c 1
 355 127 355 127 357.5 131 c 128
 359.166666667 133.666666667 362.166666667 137 366.5 141 c 128
 370.833333333 145 376.5 146.666666667 383.5 146 c 128
 390.5 145.333333333 395 139.333333333 397 128 c 1
 383 88.6666666667 386.166666667 58.6666666667 406.5 38 c 128
 426.833333333 17.3333333333 457.666666667 12.3333333333 499 23 c 0
 545.666666667 35 578.5 62.1666666667 597.5 104.5 c 128
 616.5 146.833333333 618.333333333 188.666666667 603 230 c 128
 587.666666667 271.333333333 558 297.333333333 514 308 c 128
 470 318.666666667 422 318.666666667 370 308 c 0
 354 304.666666667 342 300.333333333 334 295 c 128
 322 287 322 287 316 283 c 128
 312 280.333333333 309.166666667 278.666666667 307.5 278 c 128
 305.833333333 277.333333333 303 275.666666667 299 273 c 2
 265 243 l 2
 224.333333333 207.666666667 174.666666667 154.333333333 116 83 c 0
 112.666666667 77 113 74.3333333333 117 75 c 0
 126.333333333 75.6666666667 134.333333333 73 141 67 c 128
 147.666666667 61 154.666666667 54.3333333333 162 47 c 0
 182.666666667 27.6666666667 206.333333333 18 233 18 c 0
626 -14 m 1
 636.666666667 -22 656 -23 684 -17 c 128
 712 -11 736.5 1.83333333333 757.5 21.5 c 128
 778.5 41.1666666667 794.666666667 61.6666666667 806 83 c 0
 828 123.666666667 838.166666667 168.166666667 836.5 216.5 c 128
 834.833333333 264.833333333 823 304.333333333 801 335 c 0
 793 345.666666667 777.333333333 360 754 378 c 0
 709.333333333 413.333333333 654.5 428.666666667 589.5 424 c 128
 524.5 419.333333333 463.666666667 398 407 360 c 0
 399.666666667 354 395 350.333333333 393 349 c 1
 446.333333333 358.333333333 496.166666667 357.666666667 542.5 347 c 128
 588.833333333 336.333333333 623 312.666666667 645 276 c 128
 667 239.333333333 673.666666667 197 665 149 c 256
 656.333333333 101 634 56.3333333333 598 15 c 0
 549.333333333 -39.6666666667 497.666666667 -64.6666666667 443 -60 c 0
 409 -56.6666666667 383.333333333 -42.6666666667 366 -18 c 0
 360.666666667 -10 356.333333333 -1.33333333333 353 8 c 0
 350.333333333 11.3333333333 347 11 343 7 c 0
 321 -21.6666666667 293.333333333 -41.3333333333 260 -52 c 128
 226.666666667 -62.6666666667 203.166666667 -65.1666666667 189.5 -59.5 c 128
 175.833333333 -53.8333333333 165.333333333 -47.3333333333 158 -40 c 128
 150.666666667 -32.6666666667 144.166666667 -24.5 138.5 -15.5 c 128
 132.833333333 -6.5 127.5 1.66666666667 122.5 9 c 128
 117.5 16.3333333333 113.166666667 22.6666666667 109.5 28 c 128
 105.833333333 33.3333333333 101.166666667 37.5 95.5 40.5 c 128
 89.8333333333 43.5 86.3333333333 43.3333333333 85 40 c 0
 85 38.6666666667 82.5 35.1666666667 77.5 29.5 c 128
 72.5 23.8333333333 68 19.6666666667 64 17 c 0
 56.6666666667 12.3333333333 49.6666666667 12.6666666667 43 18 c 0
 33 27.3333333333 39 45.3333333333 61 72 c 0
 70.3333333333 83.3333333333 79 94.3333333333 87 105 c 0
 140.333333333 173 202.666666667 239 274 303 c 0
 279.333333333 307.666666667 285.333333333 312.5 292 317.5 c 128
 298.666666667 322.5 304 328.833333333 308 336.5 c 128
 312 344.166666667 315 354.166666667 317 366.5 c 128
 319 378.833333333 318.333333333 389 315 397 c 0
 307.666666667 416.333333333 289.333333333 417.333333333 260 400 c 0
 237.333333333 386 220 357 208 313 c 0
 202.666666667 291.666666667 195.666666667 276.333333333 187 267 c 128
 178.333333333 257.666666667 167.333333333 251.666666667 154 249 c 128
 140.666666667 246.333333333 131.166666667 249 125.5 257 c 128
 119.833333333 265 117.666666667 274.333333333 119 285 c 0
 125.666666667 335 150.666666667 378.333333333 194 415 c 0
 214.666666667 432.333333333 235.666666667 444.666666667 257 452 c 0
 292.333333333 464 320.166666667 462 340.5 446 c 128
 360.833333333 430 368 407 362 377 c 1
 443.333333333 433.666666667 522.333333333 470.333333333 599 487 c 0
 695 507.666666667 770.666666667 490.333333333 826 435 c 0
 862 399 884 353 892 297 c 0
 902.666666667 218.333333333 885.333333333 141.333333333 840 66 c 0
 800.666666667 0.666666666667 750 -40.3333333333 688 -57 c 0
 657.333333333 -65 631.666666667 -63.6666666667 611 -53 c 0
 603.666666667 -49 598.666666667 -44.3333333333 596 -39 c 0
 592 -30.3333333333 594.666666667 -22.1666666667 604 -14.5 c 128
 613.333333333 -6.83333333333 620.666666667 -6.66666666667 626 -14 c 1
EndSplineSet
EndChar

StartChar: si_Kha
Encoding: 21 3483 22
GlifName: si_K_ha
Width: 0
Flags: W
LayerCount: 3
Back
Fore
Layer: 2
SplineSet
214 -20 m 0
 220 4 215.333333333 21.3333333333 200 32 c 128
 184.666666667 42.6666666667 166.666666667 44.1666666667 146 36.5 c 128
 125.333333333 28.8333333333 111.333333333 13.5 104 -9.5 c 128
 96.6666666667 -32.5 100.333333333 -49.5 115 -60.5 c 128
 129.666666667 -71.5 147.833333333 -73.3333333333 169.5 -66 c 128
 191.166666667 -58.6666666667 206 -43.3333333333 214 -20 c 0
255 -14 m 0
 246.333333333 -40.6666666667 236 -60 224 -72 c 0
 200.666666667 -93.3333333333 175 -105.333333333 147 -108 c 0
 99 -112.666666667 66.6666666667 -88.3333333333 50 -35 c 0
 35.3333333333 10.3333333333 34.3333333333 59.6666666667 47 113 c 0
 63 181.666666667 102.333333333 234 165 270 c 0
 200.333333333 290 235.666666667 302.666666667 271 308 c 0
 337.666666667 316.666666667 389 308.166666667 425 282.5 c 128
 461 256.833333333 479.666666667 220.666666667 481 174 c 128
 482.333333333 127.333333333 470.666666667 85 446 47 c 128
 421.333333333 9 398.333333333 -19 377 -37 c 0
 375 -38.3333333333 373.666666667 -40 373 -42 c 128
 372.333333333 -44 373.333333333 -45.3333333333 376 -46 c 0
 416.666666667 -57.3333333333 456.833333333 -49 496.5 -21 c 128
 536.166666667 7 572.666666667 51.3333333333 606 112 c 128
 639.333333333 172.666666667 656.333333333 238.333333333 657 309 c 0
 657.666666667 380.333333333 640 440.333333333 604 489 c 0
 574.666666667 530.333333333 527 554.666666667 461 562 c 0
 375 572.666666667 290.666666667 546 208 482 c 0
 201.333333333 477.333333333 194.333333333 474.666666667 187 474 c 0
 182.333333333 474.666666667 179 477 177 481 c 256
 175 485 175 490 177 496 c 0
 181 506.666666667 190.5 516.833333333 205.5 526.5 c 128
 220.5 536.166666667 242.666666667 548.666666667 272 564 c 128
 301.333333333 579.333333333 336.5 590.5 377.5 597.5 c 128
 418.5 604.5 457.833333333 604.833333333 495.5 598.5 c 128
 533.166666667 592.166666667 565 579.333333333 591 560 c 0
 617 541.333333333 638.333333333 519 655 493 c 0
 687 441.666666667 701.333333333 378 698 302 c 0
 694 199.333333333 659.333333333 100.666666667 594 6 c 0
 575.333333333 -20.6666666667 555 -42.6666666667 533 -60 c 0
 494.333333333 -91.3333333333 456 -108.333333333 418 -111 c 128
 380 -113.666666667 348 -104.333333333 322 -83 c 0
 319.333333333 -82.3333333333 313.833333333 -84.6666666667 305.5 -90 c 128
 297.166666667 -95.3333333333 288.666666667 -100 280 -104 c 0
 272 -109.333333333 263.333333333 -110.666666667 254 -108 c 0
 249.333333333 -104 247.333333333 -98.8333333333 248 -92.5 c 128
 248.666666667 -86.1666666667 251.5 -81.1666666667 256.5 -77.5 c 128
 261.5 -73.8333333333 266.666666667 -70.5 272 -67.5 c 128
 277.333333333 -64.5 288.833333333 -57.3333333333 306.5 -46 c 128
 324.166666667 -34.6666666667 343.333333333 -18.6666666667 364 2 c 128
 384.666666667 22.6666666667 399.666666667 41.3333333333 409 58 c 128
 418.333333333 74.6666666667 425 91 429 107 c 0
 436.333333333 143.666666667 429.5 174.666666667 408.5 200 c 128
 387.5 225.333333333 352 239.333333333 302 242 c 0
 222 244.666666667 162 224.333333333 122 181 c 0
 91.3333333333 148.333333333 77 100.666666667 79 38 c 0
 79 31.3333333333 80 26.8333333333 82 24.5 c 128
 84 22.1666666667 85.6666666667 22 87 24 c 0
 100.333333333 49.3333333333 119.333333333 66.3333333333 144 75 c 0
 155.333333333 78.3333333333 166.833333333 80.1666666667 178.5 80.5 c 128
 190.166666667 80.8333333333 201 79.3333333333 211 76 c 0
 236.333333333 67.3333333333 251.666666667 49 257 21 c 0
 258.333333333 16.3333333333 258.5 10.6666666667 257.5 4 c 128
 256.5 -2.66666666667 255.666666667 -8.66666666667 255 -14 c 0
EndSplineSet
EndChar

StartChar: si_Ga
Encoding: 22 3484 23
GlifName: si_G_a
Width: 0
Flags: W
LayerCount: 3
Back
Fore
Layer: 2
SplineSet
386 454 m 0
 380 450.666666667 374.5 449.833333333 369.5 451.5 c 128
 364.5 453.166666667 359.333333333 454.166666667 354 454.5 c 128
 348.666666667 454.833333333 343.5 455.166666667 338.5 455.5 c 128
 333.5 455.833333333 328.833333333 455.833333333 324.5 455.5 c 128
 320.166666667 455.166666667 317.333333333 455 316 455 c 0
 269.333333333 453 227.5 433.333333333 190.5 396 c 128
 153.5 358.666666667 126.666666667 314.666666667 110 264 c 0
 87.3333333333 198.666666667 89.6666666667 141.5 117 92.5 c 128
 144.333333333 43.5 190 19 254 19 c 0
 290.666666667 19 325.333333333 27 358 43 c 0
 404 65.6666666667 430 104 436 158 c 0
 436.666666667 176.666666667 431.666666667 190.666666667 421 200 c 128
 410.333333333 209.333333333 399.833333333 214 389.5 214 c 128
 379.166666667 214 371.333333333 213.666666667 366 213 c 128
 360.666666667 212.333333333 353.5 211.666666667 344.5 211 c 128
 335.5 210.333333333 329 213 325 219 c 0
 319 246.333333333 337.666666667 296 381 368 c 0
 391 384 406 401.5 426 420.5 c 128
 446 439.5 467.333333333 455 490 467 c 0
 537.333333333 493 583.166666667 501.833333333 627.5 493.5 c 128
 671.833333333 485.166666667 705.5 456.833333333 728.5 408.5 c 128
 751.5 360.166666667 756.166666667 300 742.5 228 c 128
 728.833333333 156 700 92.3333333333 656 37 c 0
 596 -40.3333333333 520.333333333 -71 429 -55 c 0
 411.666666667 -51.6666666667 402.833333333 -44.8333333333 402.5 -34.5 c 128
 402.166666667 -24.1666666667 405.166666667 -17 411.5 -13 c 128
 417.833333333 -9 424 -7 430 -7 c 0
 450.666666667 -13.6666666667 470 -17 488 -17 c 0
 518 -16.3333333333 546.333333333 -7.33333333333 573 10 c 0
 634.333333333 49.3333333333 672.333333333 116 687 210 c 0
 696.333333333 266.666666667 691.833333333 315.833333333 673.5 357.5 c 128
 655.166666667 399.166666667 620 420 568 420 c 128
 516 420 470.666666667 402.333333333 432 367 c 0
 410 346.333333333 391 312 375 264 c 0
 374.333333333 260 375.666666667 257.666666667 379 257 c 0
 415 253.666666667 440 245 454 231 c 0
 478.666666667 205.666666667 485.833333333 170.5 475.5 125.5 c 128
 465.166666667 80.5 444.666666667 43 414 13 c 0
 375.333333333 -25 328.333333333 -48 273 -56 c 128
 217.666666667 -64 171 -56.6666666667 133 -34 c 0
 77 0 48.3333333333 56.1666666667 47 134.5 c 128
 45.6666666667 212.833333333 64.6666666667 284.333333333 104 349 c 0
 167.333333333 451.666666667 250.333333333 501.333333333 353 498 c 0
 384.333333333 496.666666667 400.833333333 490.666666667 402.5 480 c 128
 404.166666667 469.333333333 398.666666667 460.666666667 386 454 c 0
EndSplineSet
EndChar

StartChar: si_Gha
Encoding: 23 3485 24
GlifName: si_G_ha
Width: 0
Flags: W
LayerCount: 3
Back
Fore
Layer: 2
SplineSet
99 378 m 2
 87.6666666667 380 83.5 386.666666667 86.5 398 c 128
 89.5 409.333333333 96.6666666667 416 108 418 c 2
 340 419 l 2
 344 420.333333333 346.333333333 423 347 427 c 0
 351.666666667 443 350.666666667 455.666666667 344 465 c 0
 332 484.333333333 312 491.166666667 284 485.5 c 128
 256 479.833333333 235.666666667 467.666666667 223 449 c 1
 222 448 l 2
 205.333333333 430.666666667 186 424.666666667 164 430 c 0
 150.666666667 432 143 436.5 141 443.5 c 128
 139 450.5 138.833333333 457.5 140.5 464.5 c 128
 142.166666667 471.5 149 480.833333333 161 492.5 c 128
 173 504.166666667 188.666666667 514.333333333 208 523 c 128
 227.333333333 531.666666667 246.666666667 537 266 539 c 0
 307.333333333 544.333333333 342.333333333 537 371 517 c 0
 391 501.666666667 400.833333333 477.333333333 400.5 444 c 128
 400.166666667 410.666666667 389.666666667 389 369 379 c 1
 321.666666667 383 285 382.333333333 259 377 c 0
 169.666666667 357.666666667 116.333333333 311.333333333 99 238 c 0
 91 204 93.3333333333 173 106 145 c 0
 128.666666667 92.3333333333 178 75 254 93 c 0
 271.333333333 96.3333333333 282 100.833333333 286 106.5 c 128
 290 112.166666667 293 118.666666667 295 126 c 1
 263 127.333333333 242.666666667 136 234 152 c 0
 229.333333333 160.666666667 228.333333333 170.333333333 231 181 c 128
 233.666666667 191.666666667 238.333333333 200.166666667 245 206.5 c 128
 251.666666667 212.833333333 261 218.666666667 273 224 c 0
 300.333333333 235.333333333 334.833333333 241.166666667 376.5 241.5 c 128
 418.166666667 241.833333333 449.333333333 236.5 470 225.5 c 128
 490.666666667 214.5 499.166666667 201.5 495.5 186.5 c 128
 491.833333333 171.5 486.333333333 160 479 152 c 0
 463 136 438.333333333 127.333333333 405 126 c 1
 402.333333333 114.666666667 403.333333333 106.666666667 408 102 c 0
 416 94.6666666667 432 90 456 88 c 0
 514 82 563 101 603 145 c 0
 628.333333333 173 644.333333333 204 651 238 c 0
 663 290.666666667 649 330.333333333 609 357 c 0
 576.333333333 377 522.666666667 384.333333333 448 379 c 1
 430.666666667 387.666666667 429.333333333 408.666666667 444 442 c 0
 464.666666667 488.666666667 501.666666667 518.666666667 555 532 c 0
 575 536.666666667 594.333333333 538 613 536 c 0
 655 533.333333333 684.333333333 517.333333333 701 488 c 0
 708.333333333 475.333333333 706.833333333 461.833333333 696.5 447.5 c 128
 686.166666667 433.166666667 671.666666667 426.833333333 653 428.5 c 128
 634.333333333 430.166666667 622.333333333 437 617 449 c 1
 617 450 l 1
 611.666666667 468.666666667 596.5 480.666666667 571.5 486 c 128
 546.5 491.333333333 523.333333333 484.333333333 502 465 c 0
 491.333333333 456.333333333 484.666666667 444 482 428 c 0
 480.666666667 422.666666667 482 420 486 420 c 0
 531.333333333 421.333333333 562 420 578 416 c 0
 639.333333333 401.333333333 677.333333333 367.666666667 692 315 c 0
 702 277.666666667 698.666666667 235.666666667 682 189 c 128
 665.333333333 142.333333333 637.666666667 101.666666667 599 67 c 0
 560.333333333 33 516 14.6666666667 466 12 c 0
 431.333333333 10.6666666667 401.666666667 19 377 37 c 0
 364.333333333 47 357 66 355 94 c 0
 354.333333333 99.3333333333 355.5 111.666666667 358.5 131 c 128
 361.5 150.333333333 363.666666667 160 365 160 c 0
 396.333333333 157.333333333 421 160.333333333 439 169 c 0
 445 172.333333333 448.666666667 176.666666667 450 182 c 0
 452 191.333333333 443 198.166666667 423 202.5 c 128
 403 206.833333333 382 208.333333333 360 207 c 0
 307.333333333 204.333333333 279.333333333 196 276 182 c 0
 272 168.666666667 288.333333333 161.333333333 325 160 c 2
 351 160 l 2
 353.666666667 160 351 149.333333333 343 128 c 128
 335 106.666666667 330.333333333 95 329 93 c 0
 315 66.3333333333 297.333333333 47 276 35 c 0
 246.666666667 18.3333333333 217.666666667 10.6666666667 189 12 c 0
 135 14.6666666667 96.5 33.1666666667 73.5 67.5 c 128
 50.5 101.833333333 41.3333333333 142.333333333 46 189 c 128
 50.6666666667 235.666666667 67 277.666666667 95 315 c 0
 111 336.333333333 129 354.333333333 149 369 c 0
 150.333333333 371 150.833333333 373 150.5 375 c 128
 150.166666667 377 148.666666667 378 146 378 c 2
 99 378 l 2
EndSplineSet
EndChar

StartChar: si_Nga
Encoding: 24 3486 25
GlifName: si_N_ga
Width: 0
Flags: W
LayerCount: 3
Back
Fore
Layer: 2
SplineSet
112 387 m 1
 100.666666667 365 105.333333333 351.666666667 126 347 c 0
 137.333333333 343.666666667 145.666666667 344.666666667 151 350 c 0
 162.333333333 358.666666667 167.666666667 368.5 167 379.5 c 128
 166.333333333 390.5 160.5 397.666666667 149.5 401 c 128
 138.5 404.333333333 126 399.666666667 112 387 c 1
260 463 m 0
 225.333333333 461 194.333333333 452.666666667 167 438 c 1
 183 435.333333333 193.666666667 429 199 419 c 0
 208.333333333 403 210.5 387 205.5 371 c 128
 200.5 355 193.666666667 342.666666667 185 334 c 0
 177 325.333333333 168 318.666666667 158 314 c 0
 136.666666667 304 116.333333333 302.833333333 97 310.5 c 128
 77.6666666667 318.166666667 67.5 333.833333333 66.5 357.5 c 128
 65.5 381.166666667 76.6666666667 405.333333333 100 430 c 0
 136 468 182.333333333 491.333333333 239 500 c 128
 295.666666667 508.666666667 343.666666667 503.666666667 383 485 c 0
 403 475.666666667 417 463.666666667 425 449 c 0
 440.333333333 424.333333333 441.666666667 400.5 429 377.5 c 128
 416.333333333 354.5 396 337.333333333 368 326 c 0
 354.666666667 320.666666667 341.333333333 317 328 315 c 0
 314 313.666666667 300.666666667 312 288 310 c 0
 250.666666667 302 222.666666667 294.666666667 204 288 c 0
 152 269.333333333 119 242 105 206 c 0
 95.6666666667 180.666666667 96.3333333333 157.333333333 107 136 c 0
 118.333333333 115.333333333 136.666666667 101 162 93 c 0
 174.666666667 89.6666666667 188.333333333 88.6666666667 203 90 c 1
 238.333333333 86.6666666667 269 93 295 109 c 128
 321 125 335.666666667 148 339 178 c 1
 345 189.333333333 352.833333333 195 362.5 195 c 128
 372.166666667 195 377 189.333333333 377 178 c 1
 378 178 l 1
 362.666666667 126.666666667 386.333333333 98 449 92 c 0
 493.666666667 88 533.666666667 101.333333333 569 132 c 0
 615 171.333333333 649.166666667 235.5 671.5 324.5 c 128
 693.833333333 413.5 694.166666667 491 672.5 557 c 128
 650.833333333 623 604.333333333 666 533 686 c 0
 507.666666667 692.666666667 481 696 453 696 c 128
 425 696 400.333333333 694 379 690 c 0
 307 675.333333333 252.666666667 650 216 614 c 0
 210 608.666666667 204.166666667 606 198.5 606 c 128
 192.833333333 606 189 607.666666667 187 611 c 0
 179.666666667 619.666666667 181.666666667 629.333333333 193 640 c 0
 243 688.666666667 310.333333333 719 395 731 c 0
 419 734.333333333 442 736 464 736 c 0
 561.333333333 736 636 699 688 625 c 0
 723.333333333 575.666666667 737 504.333333333 729 411 c 128
 721 317.666666667 698.666666667 237.666666667 662 171 c 128
 625.333333333 104.333333333 579.333333333 59.6666666667 524 37 c 128
 468.666666667 14.3333333333 422 14.3333333333 384 37 c 0
 360 52.3333333333 345.666666667 71.6666666667 341 95 c 1
 312.333333333 56.3333333333 275.666666667 32.6666666667 231 24 c 0
 196.333333333 16.6666666667 163 18.6666666667 131 30 c 256
 99 41.3333333333 75 60.3333333333 59 87 c 0
 51.6666666667 100.333333333 47.6666666667 117.5 47 138.5 c 128
 46.3333333333 159.5 49.3333333333 178.666666667 56 196 c 0
 68.6666666667 234 93.3333333333 265 130 289 c 0
 166.666666667 313.666666667 210 331.333333333 260 342 c 0
 265.333333333 343.333333333 272.333333333 344.333333333 281 345 c 0
 289 346.333333333 298 347.666666667 308 349 c 0
 332.666666667 353 352.833333333 358.5 368.5 365.5 c 128
 384.166666667 372.5 393.5 382.5 396.5 395.5 c 128
 399.5 408.5 393.666666667 421 379 433 c 0
 351 457 311.333333333 467 260 463 c 0
EndSplineSet
EndChar

StartChar: si_Nnga
Encoding: 25 3487 26
GlifName: si_N_nga
Width: 0
Flags: W
LayerCount: 3
Back
Fore
Layer: 2
SplineSet
333 435 m 0
 354.333333333 435 366.666666667 442 370 456 c 0
 370.666666667 462 368.666666667 468.166666667 364 474.5 c 128
 359.333333333 480.833333333 349.666666667 486.166666667 335 490.5 c 128
 320.333333333 494.833333333 301.166666667 492.666666667 277.5 484 c 128
 253.833333333 475.333333333 227.333333333 456 198 426 c 0
 131.333333333 358.666666667 94.3333333333 268 87 154 c 0
 85.6666666667 136 86.5 122.5 89.5 113.5 c 128
 92.5 104.5 93.6666666667 98.5 93 95.5 c 128
 92.3333333333 92.5 90 88.5 86 83.5 c 128
 82 78.5 76 77 68 79 c 0
 54.6666666667 81.6666666667 47.1666666667 99.5 45.5 132.5 c 128
 43.8333333333 165.5 48.3333333333 201.333333333 59 240 c 128
 69.6666666667 278.666666667 80.6666666667 309.333333333 92 332 c 0
 123.333333333 398 166.333333333 451.666666667 221 493 c 0
 253 517 288.5 529.833333333 327.5 531.5 c 128
 366.5 533.166666667 392.333333333 520 405 492 c 0
 417 466.666666667 412 442 390 418 c 1
 372.666666667 404.666666667 353.333333333 398 332 398 c 0
 286 396.666666667 246 380.666666667 212 350 c 0
 200 338.666666667 189.666666667 321 181 297 c 128
 172.333333333 273 167.666666667 247.666666667 167 221 c 0
 167 194.333333333 171.666666667 171 181 151 c 0
 201 108.333333333 240 87 298 87 c 0
 332.666666667 87 365.333333333 94.3333333333 396 109 c 0
 438.666666667 130.333333333 463.333333333 166.666666667 470 218 c 0
 470.666666667 235.333333333 466 248.166666667 456 256.5 c 128
 446 264.833333333 436 269 426 269 c 128
 416 269 408.5 268.666666667 403.5 268 c 128
 398.5 267.333333333 391.833333333 266.833333333 383.5 266.5 c 128
 375.166666667 266.166666667 369.333333333 268.666666667 366 274 c 0
 360 298.666666667 377.333333333 345 418 413 c 0
 427.333333333 428.333333333 441.333333333 444.833333333 460 462.5 c 128
 478.666666667 480.166666667 498.333333333 494.666666667 519 506 c 0
 564.333333333 530.666666667 607.666666667 539 649 531 c 128
 690.333333333 523 721.666666667 496.333333333 743 451 c 128
 764.333333333 405.666666667 768.666666667 349.5 756 282.5 c 128
 743.333333333 215.5 716.666666667 156 676 104 c 0
 619.333333333 31.3333333333 548.333333333 2.66666666667 463 18 c 0
 443.666666667 21.3333333333 436 30.3333333333 440 45 c 0
 440.666666667 48.3333333333 443 52.1666666667 447 56.5 c 128
 451 60.8333333333 456.666666667 62.6666666667 464 62 c 0
 483.333333333 56 501.333333333 53 518 53 c 0
 546 53 572.666666667 61.3333333333 598 78 c 0
 654.666666667 115.333333333 690 178 704 266 c 0
 712.666666667 318.666666667 708.333333333 364.5 691 403.5 c 128
 673.666666667 442.5 640.666666667 462 592 462 c 128
 543.333333333 462 501.333333333 445.666666667 466 413 c 0
 453.333333333 401 443.666666667 388.333333333 437 375 c 0
 420.333333333 340.333333333 412.333333333 320.833333333 413 316.5 c 128
 413.666666667 312.166666667 416 310 420 310 c 0
 494.666666667 300.666666667 523.333333333 259.333333333 506 186 c 0
 496.666666667 144.666666667 477.666666667 109.666666667 449 81 c 0
 412.333333333 45 368.333333333 23.5 317 16.5 c 128
 265.666666667 9.5 222.5 16.3333333333 187.5 37 c 128
 152.5 57.6666666667 130.5 92 121.5 140 c 128
 112.5 188 117.5 236.666666667 136.5 286 c 128
 155.5 335.333333333 182.666666667 372.166666667 218 396.5 c 128
 253.333333333 420.833333333 291.666666667 433.666666667 333 435 c 0
EndSplineSet
EndChar

StartChar: si_Ca
Encoding: 26 3488 27
GlifName: si_C_a
Width: 0
Flags: W
LayerCount: 3
Back
Fore
Layer: 2
SplineSet
98 381 m 2
 87.3333333333 383 83.3333333333 389.833333333 86 401.5 c 128
 88.6666666667 413.166666667 96.3333333333 419.666666667 109 421 c 2
 393 421 l 2
 401 421 406.5 423 409.5 427 c 128
 412.5 431 414.833333333 436.666666667 416.5 444 c 128
 418.166666667 451.333333333 417.666666667 459.333333333 415 468 c 128
 412.333333333 476.666666667 407.333333333 483.333333333 400 488 c 0
 384 498 364.5 500.333333333 341.5 495 c 128
 318.5 489.666666667 301 477.666666667 289 459 c 1
 267.666666667 435.666666667 243.333333333 431 216 445 c 0
 207.333333333 451.666666667 204 458.666666667 206 466 c 0
 212 492.666666667 234.666666667 514.333333333 274 531 c 128
 313.333333333 547.666666667 351.166666667 551.333333333 387.5 542 c 128
 423.833333333 532.666666667 445.666666667 515.333333333 453 490 c 0
 461 465.333333333 460.333333333 439.666666667 451 413 c 0
 447 399.666666667 440.666666667 389.333333333 432 382 c 1
 410 382 l 1
 356 382 l 1
 330 382 l 1
 282 381 l 2
 244 380.333333333 208.5 369 175.5 347 c 128
 142.5 325 119.333333333 297.5 106 264.5 c 128
 92.6666666667 231.5 95.1666666667 202 113.5 176 c 128
 131.833333333 150 158 129.833333333 192 115.5 c 128
 226 101.166666667 258.833333333 94 290.5 94 c 128
 322.166666667 94 352.666666667 98.5 382 107.5 c 128
 411.333333333 116.5 439 129 465 145 c 0
 519.666666667 177.666666667 564.333333333 219.666666667 599 271 c 0
 655 354.333333333 673 438 653 522 c 0
 638.333333333 580 608 625 562 657 c 0
 506 694.333333333 434.666666667 705.666666667 348 691 c 0
 288 679.666666667 239.666666667 658 203 626 c 0
 189 613.333333333 177.333333333 606.666666667 168 606 c 0
 162.666666667 606.666666667 159.166666667 609.166666667 157.5 613.5 c 128
 155.833333333 617.833333333 156 623 158 629 c 0
 163.333333333 640.333333333 176.333333333 653 197 667 c 0
 259.666666667 710.333333333 330 734 408 738 c 0
 463.333333333 740 515.166666667 729.833333333 563.5 707.5 c 128
 611.833333333 685.166666667 648 647.833333333 672 595.5 c 128
 696 543.166666667 704.833333333 484.5 698.5 419.5 c 128
 692.166666667 354.5 670.166666667 290.166666667 632.5 226.5 c 128
 594.833333333 162.833333333 543.5 112.666666667 478.5 76 c 128
 413.5 39.3333333333 344.333333333 21 271 21 c 128
 197.666666667 21 138.333333333 42.3333333333 93 85 c 0
 61.6666666667 114.333333333 46 150.333333333 46 193 c 0
 46 249 72.6666666667 301 126 349 c 0
 136 357 143.666666667 363 149 367 c 0
 156.333333333 371.666666667 161 375.166666667 163 377.5 c 128
 165 379.833333333 163.666666667 381 159 381 c 2
 98 381 l 2
EndSplineSet
EndChar

StartChar: si_Cha
Encoding: 27 3489 28
GlifName: si_C_ha
Width: 0
Flags: W
LayerCount: 3
Back
Fore
Layer: 2
SplineSet
453 426 m 1
 492 427 l 1
 496 448.333333333 502.666666667 471.333333333 512 496 c 1
 483.333333333 484.666666667 463.666666667 461.333333333 453 426 c 1
542 299 m 1
 568.666666667 295.666666667 590 305.666666667 606 329 c 1
 592 361.666666667 564.333333333 380.666666667 523 386 c 1
 517 350.666666667 520.333333333 323.666666667 533 305 c 1
 542 299 l 1
555 503 m 1
 547 487 540 465.333333333 534 438 c 2
 531 425 l 1
 571.666666667 420.333333333 603.666666667 404.666666667 627 378 c 1
 629 387 l 2
 640.333333333 439.666666667 629.333333333 475.333333333 596 494 c 0
 584.666666667 500 571 503 555 503 c 1
409 408 m 0
 425 478 464.666666667 521.666666667 528 539 c 1
 530 539 l 1
 562.666666667 606.333333333 606.666666667 660 662 700 c 0
 688.666666667 718.666666667 717.333333333 731 748 737 c 0
 756.666666667 737 762.5 734.833333333 765.5 730.5 c 128
 768.5 726.166666667 769.333333333 721 768 715 c 0
 765.333333333 700.333333333 756.5 691.666666667 741.5 689 c 128
 726.5 686.333333333 706 676 680 658 c 128
 654 640 632.5 621.833333333 615.5 603.5 c 128
 598.5 585.166666667 584 564.666666667 572 542 c 1
 586.666666667 542 602.666666667 537.833333333 620 529.5 c 128
 637.333333333 521.166666667 650.166666667 509.833333333 658.5 495.5 c 128
 666.833333333 481.166666667 671.666666667 464.833333333 673 446.5 c 128
 674.333333333 428.166666667 672.833333333 409.333333333 668.5 390 c 128
 664.166666667 370.666666667 658 352.333333333 650 335 c 1
 660.666666667 300.333333333 659.666666667 262.333333333 647 221 c 128
 634.333333333 179.666666667 611.666666667 144 579 114 c 0
 513 51.3333333333 423 20 309 20 c 128
 195 20 118 45.3333333333 78 96 c 0
 55.3333333333 124.666666667 45 161 47 205 c 0
 51 270.333333333 80 326.333333333 134 373 c 0
 178 411 233.666666667 429 301 427 c 0
 313 427 325 426.666666667 337 426 c 1
 341 442 340 455 334 465 c 0
 322 485.666666667 302.666666667 494.166666667 276 490.5 c 128
 249.333333333 486.833333333 229 475 215 455 c 1
 214 455 l 1
 198 437.666666667 178.666666667 431.333333333 156 436 c 0
 142.666666667 438.666666667 135 443.333333333 133 450 c 128
 131 456.666666667 130.833333333 463.5 132.5 470.5 c 128
 134.166666667 477.5 141 486.833333333 153 498.5 c 128
 165 510.166666667 180.666666667 520 200 528 c 128
 219.333333333 536 238.666666667 540.666666667 258 542 c 0
 299.333333333 545.333333333 333.333333333 536.333333333 360 515 c 0
 371.333333333 506.333333333 378.166666667 490.166666667 380.5 466.5 c 128
 382.833333333 442.833333333 379.666666667 422.333333333 371 405 c 0
 366.333333333 392.333333333 358 386 346 386 c 0
 332.666666667 386 319.166666667 386.333333333 305.5 387 c 128
 291.833333333 387.666666667 273.666666667 387.333333333 251 386 c 128
 228.333333333 384.666666667 207.666666667 378.333333333 189 367 c 0
 157.666666667 348.333333333 133.666666667 326.833333333 117 302.5 c 128
 100.333333333 278.166666667 91 254.166666667 89 230.5 c 128
 87 206.833333333 89.6666666667 187.333333333 97 172 c 0
 103.666666667 157.333333333 114 145 128 135 c 0
 150.666666667 117 179 105.5 213 100.5 c 128
 247 95.5 275.333333333 93 298 93 c 128
 320.666666667 93 340.166666667 93.1666666667 356.5 93.5 c 128
 372.833333333 93.8333333333 390.666666667 95.3333333333 410 98 c 0
 517.333333333 112.666666667 583.666666667 156 609 228 c 0
 615 245.333333333 617.333333333 264.666666667 616 286 c 1
 592 266 569.666666667 256.666666667 549 258 c 0
 515 260.666666667 493.333333333 275.333333333 484 302 c 0
 478 321.333333333 478 349.666666667 484 387 c 1
 422 386 l 2
 410 388 405.666666667 395.333333333 409 408 c 0
EndSplineSet
EndChar

StartChar: si_Ja
Encoding: 28 3490 29
GlifName: si_J_a
Width: 0
Flags: W
LayerCount: 3
Back
Fore
Layer: 2
SplineSet
316 93 m 0
 484.666666667 93 582.333333333 138 609 228 c 0
 623.666666667 276 619.333333333 315.333333333 596 346 c 0
 572 377.333333333 525.666666667 391 457 387 c 0
 445 386.333333333 433.333333333 386 422 386 c 0
 410.666666667 388.666666667 406.666666667 397.666666667 410 413 c 0
 422 465.666666667 450.666666667 504 496 528 c 0
 505.333333333 532.666666667 512.833333333 535.666666667 518.5 537 c 128
 524.166666667 538.333333333 527.333333333 539 528 539 c 0
 558.666666667 603.666666667 602.333333333 656 659 696 c 0
 689.666666667 718 718.666666667 731.666666667 746 737 c 0
 754 737 759.5 734.833333333 762.5 730.5 c 128
 765.5 726.166666667 766.333333333 721 765 715 c 0
 763 700.333333333 754.5 691.666666667 739.5 689 c 128
 724.5 686.333333333 703.833333333 676 677.5 658 c 128
 651.166666667 640 629.666666667 622 613 604 c 128
 596.333333333 586 582.666666667 566 572 544 c 1
 620.666666667 542.666666667 652.666666667 526.333333333 668 495 c 0
 676.666666667 477 675.833333333 456.166666667 665.5 432.5 c 128
 655.166666667 408.833333333 638.666666667 394.333333333 616 389 c 1
 650 357 663.166666667 313.166666667 655.5 257.5 c 128
 647.833333333 201.833333333 622.333333333 154 579 114 c 0
 513 51.3333333333 423 20 309 20 c 128
 195 20 118 45.3333333333 78 96 c 0
 55.3333333333 124.666666667 45 161 47 205 c 0
 51 270.333333333 80 326.333333333 134 373 c 0
 176.666666667 409.666666667 232.333333333 427.333333333 301 426 c 2
 337 426 l 1
 341 442 340.333333333 455 335 465 c 0
 323 485.666666667 303.5 494.166666667 276.5 490.5 c 128
 249.5 486.833333333 229 475 215 455 c 1
 199 437.666666667 179.666666667 431.333333333 157 436 c 0
 143.666666667 438.666666667 136 443.333333333 134 450 c 128
 132 456.666666667 131.666666667 463.5 133 470.5 c 128
 134.333333333 477.5 141 486.833333333 153 498.5 c 128
 165 510.166666667 180.666666667 520 200 528 c 128
 219.333333333 536 239 540.666666667 259 542 c 0
 300.333333333 545.333333333 334.333333333 536.333333333 361 515 c 0
 379 499.666666667 385.666666667 474.5 381 439.5 c 128
 376.333333333 404.5 364.666666667 386.666666667 346 386 c 0
 332.666666667 386 319.166666667 386.333333333 305.5 387 c 128
 291.833333333 387.666666667 273.666666667 387.333333333 251 386 c 128
 228.333333333 384.666666667 207.666666667 378.333333333 189 367 c 0
 130.333333333 331.666666667 97 286 89 230 c 0
 79 156.666666667 123.666666667 112.666666667 223 98 c 0
 247.666666667 94.6666666667 278.666666667 93 316 93 c 0
517 426 m 1
 506.333333333 442 503.333333333 460 508 480 c 0
 509.333333333 485.333333333 510.666666667 490 512 494 c 1
 483.333333333 482 463.666666667 459.333333333 453 426 c 1
 481.666666667 427.333333333 503 427.333333333 517 426 c 1
553 498 m 1
 551 491 l 1
 546 474 l 1
 548 464 548 464 549 459 c 0
 556.333333333 447.666666667 564.5 439.5 573.5 434.5 c 128
 582.5 429.5 595.333333333 427.333333333 612 428 c 0
 622 429.333333333 628.333333333 435.666666667 631 447 c 0
 635.666666667 479.666666667 616 498.333333333 572 503 c 0
 567 503 567 503 563 503 c 2
 555 503 l 1
 553 500 l 1
 553 498 l 1
EndSplineSet
EndChar

StartChar: si_Jha
Encoding: 29 3491 30
GlifName: si_J_ha
Width: 0
Flags: W
LayerCount: 3
Back
Fore
Layer: 2
SplineSet
785 449 m 0
 786.333333333 450.333333333 788 451.666666667 790 453 c 0
 800.666666667 456.333333333 801.333333333 460.666666667 792 466 c 0
 716.666666667 503.333333333 622.333333333 505.333333333 509 472 c 0
 460.333333333 457.333333333 418.333333333 438 383 414 c 2
 375 408 l 2
 371.666666667 405.333333333 369.666666667 404 369 404 c 1
 419.666666667 412.666666667 463.666666667 412.666666667 501 404 c 0
 569 388.666666667 610 351.333333333 624 292 c 1
 644.666666667 343.333333333 675.333333333 383.666666667 716 413 c 0
 737.333333333 429.666666667 760.333333333 441.666666667 785 449 c 0
220 93 m 0
 282 93 320 127.333333333 334 196 c 0
 334.666666667 196 335.666666667 197.333333333 337 200 c 128
 338.333333333 202.666666667 341 205.833333333 345 209.5 c 128
 349 213.166666667 354.333333333 214.666666667 361 214 c 128
 367.666666667 213.333333333 372 207.333333333 374 196 c 1
 360.666666667 159.333333333 363.5 131.5 382.5 112.5 c 128
 401.5 93.5 430.333333333 89 469 99 c 0
 513 110.333333333 543.833333333 135.666666667 561.5 175 c 128
 579.166666667 214.333333333 580.833333333 253.5 566.5 292.5 c 128
 552.166666667 331.5 524.333333333 355.833333333 483 365.5 c 128
 441.666666667 375.166666667 396.666666667 375 348 365 c 0
 333.333333333 361.666666667 322.333333333 357.666666667 315 353 c 128
 307.666666667 348.333333333 302 344.833333333 298 342.5 c 128
 294 340.166666667 291.333333333 338.666666667 290 338 c 128
 288.666666667 337.333333333 286 335.666666667 282 333 c 2
 250 305 l 2
 212.666666667 271.666666667 166.333333333 221.666666667 111 155 c 0
 107.666666667 149 108 146.666666667 112 148 c 0
 120.666666667 148.666666667 128 146.166666667 134 140.5 c 128
 140 134.833333333 146.666666667 128.333333333 154 121 c 0
 173.333333333 102.333333333 195.333333333 93 220 93 c 0
603 153 m 1
 583 112.333333333 555 78.6666666667 519 52 c 0
 473.666666667 20 430.333333333 11.6666666667 389 27 c 0
 360.333333333 37 341.666666667 56.3333333333 333 85 c 0
 330.333333333 88.3333333333 327 88 323 84 c 0
 302.333333333 56.6666666667 276.5 38 245.5 28 c 128
 214.5 18 192.5 15.8333333333 179.5 21.5 c 128
 166.5 27.1666666667 156.666666667 33.3333333333 150 40 c 128
 143.333333333 46.6666666667 137.333333333 54.3333333333 132 63 c 128
 126.666666667 71.6666666667 121.666666667 79.1666666667 117 85.5 c 128
 112.333333333 91.8333333333 108.166666667 97.5 104.5 102.5 c 128
 100.833333333 107.5 96.5 111.666666667 91.5 115 c 128
 86.5 118.333333333 83.3333333333 118.333333333 82 115 c 0
 82 113.666666667 79.6666666667 110.333333333 75 105 c 128
 70.3333333333 99.6666666667 66 95.6666666667 62 93 c 0
 55.3333333333 89.6666666667 48.6666666667 90 42 94 c 0
 32.6666666667 102.666666667 38.3333333333 119.666666667 59 145 c 0
 67.6666666667 155.666666667 76 166 84 176 c 0
 133.333333333 239.333333333 191.666666667 301 259 361 c 0
 263.666666667 365.666666667 269.166666667 370.333333333 275.5 375 c 128
 281.833333333 379.666666667 286.833333333 385.5 290.5 392.5 c 128
 294.166666667 399.5 297 408.833333333 299 420.5 c 128
 301 432.166666667 300.333333333 441.666666667 297 449 c 0
 290.333333333 467 273.333333333 468 246 452 c 0
 224.666666667 438.666666667 208.333333333 411.333333333 197 370 c 0
 191.666666667 350 185 335.666666667 177 327 c 128
 169 318.333333333 158.833333333 312.833333333 146.5 310.5 c 128
 134.166666667 308.166666667 125.333333333 310.666666667 120 318 c 128
 114.666666667 325.333333333 112.666666667 334 114 344 c 0
 120 390.666666667 143.333333333 431.333333333 184 466 c 0
 203.333333333 482 223 493.666666667 243 501 c 0
 275.666666667 511.666666667 301.5 509.5 320.5 494.5 c 128
 339.5 479.5 346.333333333 458 341 430 c 1
 417 483.333333333 491 517.666666667 563 533 c 0
 589 539 613 541.666666667 635 541 c 0
 695.666666667 539 736.333333333 535.666666667 757 531 c 0
 802.333333333 522.333333333 841.333333333 503.666666667 874 475 c 0
 886.666666667 464.333333333 892.666666667 452.333333333 892 439 c 0
 892 434.333333333 890.333333333 430.666666667 887 428 c 0
 881.666666667 424.666666667 873.666666667 423 863 423 c 0
 821.666666667 424.333333333 786.666666667 416.333333333 758 399 c 0
 708.666666667 369 675 327.666666667 657 275 c 128
 639 222.333333333 638 179.333333333 654 146 c 128
 670 112.666666667 700.333333333 95.3333333333 745 94 c 128
 789.666666667 92.6666666667 823.333333333 101 846 119 c 0
 869.333333333 138.333333333 885.666666667 166.666666667 895 204 c 0
 895.666666667 210 898.666666667 214.666666667 904 218 c 128
 909.333333333 221.333333333 914.666666667 223 920 223 c 128
 925.333333333 223 929.666666667 221.333333333 933 218 c 128
 936.333333333 214.666666667 936.333333333 209.333333333 933 202 c 0
 926.333333333 150.666666667 940.666666667 117 976 101 c 0
 989.333333333 95 1006.33333333 92.3333333333 1027 93 c 128
 1047.66666667 93.6666666667 1066.16666667 97.8333333333 1082.5 105.5 c 128
 1098.83333333 113.166666667 1113.66666667 123 1127 135 c 0
 1151 155.666666667 1173 187.333333333 1193 230 c 0
 1213 273.333333333 1226.33333333 329.666666667 1233 399 c 0
 1245.66666667 521 1217.66666667 606.333333333 1149 655 c 0
 1091.66666667 696.333333333 1014.66666667 707 918 687 c 0
 853.333333333 673 802.666666667 648.666666667 766 614 c 0
 760 608.666666667 754.166666667 606 748.5 606 c 128
 742.833333333 606 738.666666667 607.666666667 736 611 c 0
 729.333333333 619.666666667 731.666666667 629.333333333 743 640 c 0
 792.333333333 688.666666667 859.666666667 719 945 731 c 0
 968.333333333 733.666666667 991 735 1013 735 c 0
 1061 735 1104.66666667 726 1144 708 c 0
 1225.33333333 671.333333333 1269 597.666666667 1275 487 c 0
 1278.33333333 437.666666667 1275.66666667 391.833333333 1267 349.5 c 128
 1258.33333333 307.166666667 1250.16666667 272.666666667 1242.5 246 c 128
 1234.83333333 219.333333333 1223.66666667 192.333333333 1209 165 c 0
 1177 107 1133.33333333 63.6666666667 1078 35 c 0
 1038 15 994.333333333 14 947 32 c 0
 918.333333333 42.6666666667 899.333333333 63.6666666667 890 95 c 1
 861.333333333 57 822.833333333 33.3333333333 774.5 24 c 128
 726.166666667 14.6666666667 686.833333333 23 656.5 49 c 128
 626.166666667 75 608.333333333 109.666666667 603 153 c 1
EndSplineSet
EndChar

StartChar: si_Nya
Encoding: 30 3492 31
GlifName: si_N_ya
Width: 0
Flags: W
LayerCount: 3
Back
Fore
Layer: 2
SplineSet
688 285 m 1
 702 308.333333333 721.333333333 328.666666667 746 346 c 0
 790 378 841.666666667 398 901 406 c 0
 938.333333333 410.666666667 991.333333333 410.333333333 1060 405 c 1
 1060 404 l 1
 1065.33333333 424 1061.16666667 440.166666667 1047.5 452.5 c 128
 1033.83333333 464.833333333 1016 471.666666667 994 473 c 128
 972 474.333333333 953.333333333 469.333333333 938 458 c 1
 902.666666667 422 871.666666667 410.666666667 845 424 c 0
 834.333333333 432 829 441 829 451 c 0
 830.333333333 469.666666667 840.333333333 483.666666667 859 493 c 1
 790.333333333 497.666666667 717.333333333 492 640 476 c 128
 562.666666667 460 498.666666667 435 448 401 c 1
 441 394 l 2
 437.666666667 392 435.666666667 391 435 391 c 1
 485.666666667 399.666666667 529.333333333 399.666666667 566 391 c 0
 632 374.333333333 672.666666667 339 688 285 c 1
286 80 m 0
 348 80 386 114.333333333 400 183 c 0
 400.666666667 183 401.5 184.166666667 402.5 186.5 c 128
 403.5 188.833333333 406.166666667 192 410.5 196 c 128
 414.833333333 200 420.166666667 201.666666667 426.5 201 c 128
 432.833333333 200.333333333 437.333333333 194.333333333 440 183 c 1
 426.666666667 146.333333333 429.5 118.5 448.5 99.5 c 128
 467.5 80.5 496 76 534 86 c 0
 578 96.6666666667 608.833333333 121.666666667 626.5 161 c 128
 644.166666667 200.333333333 646 239.5 632 278.5 c 128
 618 317.5 590.333333333 341.833333333 549 351.5 c 128
 507.666666667 361.166666667 463 361 415 351 c 0
 399.666666667 348.333333333 388.333333333 344.666666667 381 340 c 128
 373.666666667 335.333333333 368 331.666666667 364 329 c 128
 360 326.333333333 357.166666667 324.666666667 355.5 324 c 128
 353.833333333 323.333333333 351.333333333 322 348 320 c 2
 315 291 l 2
 277.666666667 258.333333333 231.666666667 208.666666667 177 142 c 0
 173.666666667 135.333333333 174 132.666666667 178 134 c 0
 186.666666667 134.666666667 193.666666667 132.333333333 199 127 c 0
 205.666666667 121 212.666666667 114.666666667 220 108 c 0
 239.333333333 89.3333333333 261.333333333 80 286 80 c 0
913 13 m 1
 814.333333333 -5 740.333333333 12.3333333333 691 65 c 0
 675.666666667 81 665 99.6666666667 659 121 c 1
 625 65.6666666667 583.333333333 29.6666666667 534 13 c 0
 506.666666667 4.33333333333 479.333333333 4.83333333333 452 14.5 c 128
 424.666666667 24.1666666667 407 43.3333333333 399 72 c 0
 395.666666667 74.6666666667 392 74.3333333333 388 71 c 0
 367.333333333 43 341.666666667 24 311 14 c 128
 280.333333333 4 258.5 1.83333333333 245.5 7.5 c 128
 232.5 13.1666666667 222.5 19.5 215.5 26.5 c 128
 208.5 33.5 202.333333333 41.1666666667 197 49.5 c 128
 191.666666667 57.8333333333 186.666666667 65.3333333333 182 72 c 128
 177.333333333 78.6666666667 173.333333333 84.5 170 89.5 c 128
 166.666666667 94.5 162.333333333 98.5 157 101.5 c 128
 151.666666667 104.5 148.666666667 104.333333333 148 101 c 0
 148 100.333333333 145.333333333 97 140 91 c 0
 135.333333333 86.3333333333 131 82.6666666667 127 80 c 0
 120.333333333 76 114 76.3333333333 108 81 c 0
 98 89.6666666667 103.333333333 106.333333333 124 131 c 0
 133.333333333 141.666666667 141.666666667 152 149 162 c 0
 199 226 257.666666667 288 325 348 c 0
 329.666666667 352 335.166666667 356.333333333 341.5 361 c 128
 347.833333333 365.666666667 352.833333333 371.666666667 356.5 379 c 128
 360.166666667 386.333333333 362.833333333 395.666666667 364.5 407 c 128
 366.166666667 418.333333333 365.666666667 428 363 436 c 0
 356.333333333 454 339.333333333 454.666666667 312 438 c 0
 290 425.333333333 273.666666667 398.333333333 263 357 c 0
 257.666666667 337 250.833333333 322.666666667 242.5 314 c 128
 234.166666667 305.333333333 224 299.666666667 212 297 c 128
 200 294.333333333 191.166666667 296.833333333 185.5 304.5 c 128
 179.833333333 312.166666667 177.666666667 320 179 328 c 2
 181 340 l 2
 181 340.666666667 178.5 339.166666667 173.5 335.5 c 128
 168.5 331.833333333 161.666666667 325.333333333 153 316 c 0
 96.3333333333 253.333333333 73.3333333333 173 84 75 c 1
 85 72 l 2
 88.3333333333 64 88 57.3333333333 84 52 c 0
 70 38 59 41.3333333333 51 62 c 0
 41.6666666667 87.3333333333 40.3333333333 122 47 166 c 0
 59.6666666667 249.333333333 96 316.666666667 156 368 c 0
 166.666666667 376.666666667 175.666666667 383.333333333 183 388 c 128
 190.333333333 392.666666667 194.333333333 395.333333333 195 396 c 0
 208.333333333 417.333333333 226 436.166666667 248 452.5 c 128
 270 468.833333333 290.333333333 480.333333333 309 487 c 0
 341.666666667 498.333333333 367.5 496.5 386.5 481.5 c 128
 405.5 466.5 412.333333333 445 407 417 c 1
 491 475.666666667 594 512.833333333 716 528.5 c 128
 838 544.166666667 936.333333333 541.333333333 1011 520 c 0
 1040.33333333 511.333333333 1064.33333333 493.166666667 1083 465.5 c 128
 1101.66666667 437.833333333 1105.66666667 409.666666667 1095 381 c 0
 1090.33333333 369 1081.66666667 362.333333333 1069 361 c 1
 1032.33333333 368.333333333 1002.33333333 371.333333333 979 370 c 128
 955.666666667 368.666666667 935 367.333333333 917 366 c 0
 874.333333333 362.666666667 835 347 799 319 c 128
 763 291 739 252 727 202 c 128
 715 152 723 114 751 88 c 128
 779 62 817.666666667 48.6666666667 867 48 c 128
 916.333333333 47.3333333333 964 57.6666666667 1010 79 c 0
 1014 81 1018.5 81.3333333333 1023.5 80 c 128
 1028.5 78.6666666667 1031.33333333 75.1666666667 1032 69.5 c 128
 1032.66666667 63.8333333333 1031 58.5 1027 53.5 c 128
 1023 48.5 1018 43.8333333333 1012 39.5 c 128
 1006 35.1666666667 999.666666667 31.5 993 28.5 c 128
 986.333333333 25.5 980.666666667 22.3333333333 976 19 c 0
 932.666666667 -10.3333333333 904 -49.3333333333 890 -98 c 0
 886 -114 887.166666667 -127.666666667 893.5 -139 c 128
 899.833333333 -150.333333333 909.166666667 -158.166666667 921.5 -162.5 c 128
 933.833333333 -166.833333333 947.5 -167.5 962.5 -164.5 c 128
 977.5 -161.5 991 -153.666666667 1003 -141 c 1
 1015.66666667 -134.333333333 1024.83333333 -134.5 1030.5 -141.5 c 128
 1036.16666667 -148.5 1035 -157.333333333 1027 -168 c 1
 987 -200 944.666666667 -211 900 -201 c 0
 872.666666667 -194.333333333 853.666666667 -180 843 -158 c 0
 821.666666667 -112 845 -55 913 13 c 1
EndSplineSet
EndChar

StartChar: si_Jnya
Encoding: 31 3493 32
GlifName: si_J_nya
Width: 0
Flags: W
LayerCount: 3
Back
Fore
Layer: 2
SplineSet
662 428 m 0
 655.333333333 431.333333333 653.5 439.333333333 656.5 452 c 128
 659.5 464.666666667 664.666666667 474.666666667 672 482 c 1
 624.666666667 483.333333333 579 473 535 451 c 0
 481 424.333333333 443.666666667 386.666666667 423 338 c 0
 416.333333333 322 413.166666667 312.166666667 413.5 308.5 c 128
 413.833333333 304.833333333 418.333333333 302.333333333 427 301 c 0
 463.666666667 297 488.333333333 282.666666667 501 258 c 1
 515 291.333333333 536.666666667 318.666666667 566 340 c 0
 615.333333333 376 669.666666667 397.666666667 729 405 c 0
 765.666666667 409.666666667 818.333333333 409.333333333 887 404 c 1
 888 403 l 1
 887.333333333 418.333333333 882 431.666666667 872 443 c 0
 862 453 850.666666667 460.333333333 838 465 c 0
 807.333333333 476.333333333 780.333333333 474 757 458 c 1
 721 420.666666667 689.333333333 410.666666667 662 428 c 0
333 428 m 0
 354.333333333 428 366.666666667 434.666666667 370 448 c 0
 370.666666667 454.666666667 368.666666667 461 364 467 c 128
 359.333333333 473 349.666666667 478.333333333 335 483 c 128
 320.333333333 487.666666667 301.166666667 485.5 277.5 476.5 c 128
 253.833333333 467.5 227.333333333 448 198 418 c 0
 131.333333333 350.666666667 94.3333333333 260.333333333 87 147 c 0
 85.6666666667 129 86.5 115.5 89.5 106.5 c 128
 92.5 97.5 93.6666666667 91.3333333333 93 88 c 128
 92.3333333333 84.6666666667 90 80.5 86 75.5 c 128
 82 70.5 76 69.3333333333 68 72 c 0
 54.6666666667 74.6666666667 47.1666666667 92.5 45.5 125.5 c 128
 43.8333333333 158.5 48.3333333333 194.333333333 59 233 c 128
 69.6666666667 271.666666667 80.6666666667 302.333333333 92 325 c 0
 123.333333333 391 166.333333333 444.666666667 221 486 c 0
 253 509.333333333 288.5 522 327.5 524 c 128
 366.5 526 392.333333333 513 405 485 c 0
 417 459.666666667 412 435 390 411 c 1
 372.666666667 397 353.333333333 390 332 390 c 0
 286 388.666666667 246 373 212 343 c 0
 200 331.666666667 189.666666667 314 181 290 c 128
 172.333333333 266 167.666666667 240.333333333 167 213 c 0
 167 187 171.666666667 164 181 144 c 0
 201 101.333333333 240 80 298 80 c 0
 332.666666667 80 365.333333333 87.3333333333 396 102 c 0
 438.666666667 123.333333333 463.333333333 159.666666667 470 211 c 0
 470.666666667 228.333333333 466 241.166666667 456 249.5 c 128
 446 257.833333333 436 262 426 262 c 128
 416 262 408.5 261.666666667 403.5 261 c 128
 398.5 260.333333333 391.833333333 259.833333333 383.5 259.5 c 128
 375.166666667 259.166666667 369.333333333 261.666666667 366 267 c 0
 360.666666667 289 368.333333333 319.333333333 389 358 c 128
 409.666666667 396.666666667 433 426.333333333 459 447 c 0
 486.333333333 467.666666667 510.666666667 483 532 493 c 0
 571.333333333 511.666666667 618.166666667 522.666666667 672.5 526 c 128
 726.833333333 529.333333333 781.333333333 524 836 510 c 0
 867.333333333 501.333333333 892.333333333 485 911 461 c 0
 930.333333333 437.666666667 934 411 922 381 c 0
 916.666666667 368.333333333 908 361.333333333 896 360 c 1
 842 370 786.666666667 372 730 366 c 0
 696 361.333333333 661.5 344.5 626.5 315.5 c 128
 591.5 286.5 568 247.666666667 556 199 c 128
 544 150.333333333 553.333333333 113.666666667 584 89 c 128
 614.666666667 64.3333333333 655.166666667 51.6666666667 705.5 51 c 128
 755.833333333 50.3333333333 799.666666667 59.6666666667 837 79 c 0
 844.333333333 82.3333333333 849.833333333 82.3333333333 853.5 79 c 128
 857.166666667 75.6666666667 859.333333333 71.8333333333 860 67.5 c 128
 860.666666667 63.1666666667 859 58.3333333333 855 53 c 0
 848.333333333 44.3333333333 836.666666667 36 820 28 c 0
 794 15.3333333333 771.166666667 -3 751.5 -27 c 128
 731.833333333 -51 719.666666667 -71.6666666667 715 -89 c 128
 710.333333333 -106.333333333 709.333333333 -119.333333333 712 -128 c 0
 714 -136.666666667 718 -144 724 -150 c 0
 736.666666667 -162 753.333333333 -167.666666667 774 -167 c 0
 795.333333333 -165 814 -156.333333333 830 -141 c 1
 842.666666667 -134.333333333 851.833333333 -134.666666667 857.5 -142 c 128
 863.166666667 -149.333333333 862 -158 854 -168 c 1
 814.666666667 -198.666666667 773.666666667 -209.666666667 731 -201 c 0
 687.666666667 -191 667.666666667 -161.333333333 671 -112 c 0
 672.333333333 -92.6666666667 679.166666667 -71.8333333333 691.5 -49.5 c 128
 703.833333333 -27.1666666667 719.666666667 -6.66666666667 739 12 c 1
 691 3.33333333333 654 2 628 8 c 0
 551.333333333 24.6666666667 504 63.6666666667 486 125 c 1
 464 83 430.166666667 51.3333333333 384.5 30 c 128
 338.833333333 8.66666666667 292.333333333 1.66666666667 245 9 c 0
 175 20.3333333333 133.666666667 62.3333333333 121 135 c 0
 112.333333333 181 117.333333333 228.833333333 136 278.5 c 128
 154.666666667 328.166666667 182 365.166666667 218 389.5 c 128
 254 413.833333333 292.333333333 426.666666667 333 428 c 0
EndSplineSet
EndChar

StartChar: si_Ndja
Encoding: 32 3494 33
GlifName: si_N_dja
Width: 0
Flags: W
LayerCount: 3
Back
Fore
Layer: 2
SplineSet
539 426 m 1
 567.666666667 427.333333333 589.333333333 427.333333333 604 426 c 1
 599 434 l 2
 592.333333333 446.666666667 590.666666667 462 594 480 c 0
 595.333333333 485.333333333 596.666666667 490 598 494 c 1
 568.666666667 482 549 459.333333333 539 426 c 1
641 503 m 2
 639.666666667 503 637.833333333 497.333333333 635.5 486 c 128
 633.166666667 474.666666667 633.333333333 465.666666667 636 459 c 0
 643.333333333 447.666666667 651.5 439.5 660.5 434.5 c 128
 669.5 429.5 682 427.333333333 698 428 c 0
 709.333333333 429.333333333 715.666666667 435 717 445 c 0
 720.333333333 463.666666667 715.666666667 478 703 488 c 128
 690.333333333 498 672.666666667 503 650 503 c 2
 641 503 l 2
98 262 m 0
 86.6666666667 212 87.3333333333 166.333333333 100 125 c 1
 98.6666666667 113 93 105 83 101 c 0
 72.3333333333 95.6666666667 64.6666666667 98 60 108 c 0
 45.3333333333 153.333333333 45.6666666667 206 61 266 c 0
 75.6666666667 330.666666667 102.333333333 383 141 423 c 0
 165 447 192.333333333 465.333333333 223 478 c 1
 226.333333333 482.666666667 230 487.333333333 234 492 c 0
 264.666666667 522 301.166666667 538.666666667 343.5 542 c 128
 385.833333333 545.333333333 420.666666667 536.333333333 448 515 c 0
 466 499.666666667 472.666666667 474.5 468 439.5 c 128
 463.333333333 404.5 451.666666667 386.666666667 433 386 c 0
 419.666666667 386 406.166666667 386.333333333 392.5 387 c 128
 378.833333333 387.666666667 360.5 387.333333333 337.5 386 c 128
 314.5 384.666666667 293.666666667 378.333333333 275 367 c 0
 216.333333333 331.666666667 183.333333333 286 176 230 c 0
 165.333333333 156.666666667 210 112.666666667 310 98 c 0
 334 94.6666666667 358 93 382 93 c 128
 418 93 418 93 444 93 c 0
 546 95.6666666667 619.333333333 121.666666667 664 171 c 0
 688 197.666666667 701 231 703 271 c 0
 703.666666667 286.333333333 702 300.333333333 698 313 c 0
 684.666666667 361.666666667 645.666666667 386.333333333 581 387 c 0
 569.666666667 387 557.666666667 386.833333333 545 386.5 c 128
 532.333333333 386.166666667 520 386 508 386 c 1
 496.666666667 388.666666667 492.666666667 397.666666667 496 413 c 0
 507.333333333 460.333333333 532.333333333 496.666666667 571 522 c 0
 581 528.666666667 595 534.333333333 613 539 c 1
 614 539 l 1
 652.666666667 619 710.333333333 679.666666667 787 721 c 0
 801.666666667 728.333333333 816.666666667 733.666666667 832 737 c 0
 840 737 845.666666667 734.833333333 849 730.5 c 128
 852.333333333 726.166666667 853.333333333 721 852 715 c 0
 849.333333333 700.333333333 840.5 691.666666667 825.5 689 c 128
 810.5 686.333333333 790 676 764 658 c 128
 738 640 716.666666667 622 700 604 c 128
 683.333333333 586 669.666666667 566 659 544 c 1
 707.666666667 541.333333333 739.666666667 525 755 495 c 0
 762.333333333 481 763.666666667 466.333333333 759 451 c 0
 749.666666667 417 730.666666667 396.333333333 702 389 c 1
 736.666666667 357 750 313.166666667 742 257.5 c 128
 734 201.833333333 708.666666667 154 666 114 c 0
 599.333333333 51.3333333333 509.166666667 20 395.5 20 c 128
 281.833333333 20 205 45.3333333333 165 96 c 0
 141.666666667 124.666666667 131.333333333 161 134 205 c 0
 138 270.333333333 167 326.333333333 221 373 c 0
 263.666666667 409.666666667 319.333333333 427.333333333 388 426 c 2
 423 426 l 1
 427.666666667 442 427 455 421 465 c 0
 409.666666667 485.666666667 390.333333333 494.166666667 363 490.5 c 128
 335.666666667 486.833333333 315 475 301 455 c 1
 281 433 257.333333333 428 230 440 c 1
 162.666666667 410 118.666666667 350.666666667 98 262 c 0
EndSplineSet
EndChar

StartChar: si_Tta
Encoding: 33 3495 34
GlifName: si_T_ta
Width: 0
Flags: W
LayerCount: 3
Back
Fore
Layer: 2
SplineSet
457 702 m 0
 476.333333333 701.333333333 484.333333333 694.333333333 481 681 c 0
 480.333333333 675.666666667 477.5 670.833333333 472.5 666.5 c 128
 467.5 662.166666667 460.166666667 660 450.5 660 c 128
 440.833333333 660 430 660.333333333 418 661 c 256
 406 661.666666667 394 662 382 662 c 0
 300 663.333333333 233.333333333 642 182 598 c 0
 144.666666667 565.333333333 121.666666667 526.666666667 113 482 c 0
 103.666666667 437.333333333 114 401 144 373 c 0
 185.333333333 334.333333333 250.333333333 317 339 321 c 0
 405.666666667 323.666666667 469.166666667 339.833333333 529.5 369.5 c 128
 589.833333333 399.166666667 634.833333333 442.333333333 664.5 499 c 128
 694.166666667 555.666666667 711.333333333 617 716 683 c 0
 722 769.666666667 700 840 650 894 c 0
 599.333333333 948 523 969.666666667 421 959 c 0
 365.666666667 953 315 938.666666667 269 916 c 0
 248.333333333 905.333333333 229.666666667 892 213 876 c 0
 205.666666667 870.666666667 199.333333333 868 194 868 c 0
 188 868.666666667 183.666666667 870.666666667 181 874 c 0
 173.666666667 882.666666667 176 893 188 905 c 0
 211.333333333 927.666666667 240 946.333333333 274 961 c 0
 388 1009 492 1017.33333333 586 986 c 128
 680 954.666666667 736.333333333 887.666666667 755 785 c 0
 767 721.666666667 761.166666667 650.5 737.5 571.5 c 128
 713.833333333 492.5 675.666666667 424.666666667 623 368 c 256
 570.333333333 311.333333333 503.333333333 273.333333333 422 254 c 0
 326.666666667 231.333333333 239.333333333 240.666666667 160 282 c 0
 81.3333333333 323.333333333 51 388.333333333 69 477 c 0
 76.3333333333 511.666666667 90.3333333333 543.666666667 111 573 c 0
 155.666666667 635.666666667 211.333333333 675 278 691 c 0
 322 701.666666667 381.666666667 705.333333333 457 702 c 0
EndSplineSet
EndChar

StartChar: si_Ttha
Encoding: 34 3496 35
GlifName: si_T_tha
Width: 0
Flags: W
LayerCount: 3
Back
Fore
Layer: 2
SplineSet
629 548 m 1
 601 589.333333333 565.333333333 626.333333333 522 659 c 1
 518 650.333333333 512.666666667 641.666666667 506 633 c 0
 481.333333333 597.666666667 473 572.333333333 481 557 c 0
 495 529.666666667 517.833333333 515.5 549.5 514.5 c 128
 581.166666667 513.5 607.666666667 524.666666667 629 548 c 1
402 453 m 1
 408.666666667 444.333333333 408.666666667 435.5 402 426.5 c 128
 395.333333333 417.5 386.333333333 414.333333333 375 417 c 1
 365 422.333333333 351 426 333 428 c 0
 296.333333333 430.666666667 260.333333333 424.333333333 225 409 c 0
 164.333333333 382.333333333 123 335.666666667 101 269 c 0
 84.3333333333 220.333333333 84 179.5 100 146.5 c 128
 116 113.5 148.666666667 95.6666666667 198 93 c 0
 233.333333333 92.3333333333 263.5 100.333333333 288.5 117 c 128
 313.5 133.666666667 330.333333333 161.333333333 339 200 c 1
 345 211.333333333 353 217.166666667 363 217.5 c 128
 373 217.833333333 378 212.333333333 378 201 c 1
 379 201 l 1
 371.666666667 162.333333333 377 133.666666667 395 115 c 128
 413 96.3333333333 438.333333333 88.6666666667 471 92 c 0
 528.333333333 99.3333333333 573.666666667 121 607 157 c 0
 648.333333333 201.666666667 673.333333333 265 682 347 c 0
 688.666666667 407 677.333333333 463.666666667 648 517 c 1
 625.333333333 496.333333333 598.666666667 483 568 477 c 0
 522 468.333333333 485.666666667 478.333333333 459 507 c 0
 450.333333333 516.333333333 444 528.666666667 440 544 c 0
 432 572 445 609.666666667 479 657 c 0
 483.666666667 663 487.333333333 669.333333333 490 676 c 1
 490 679 l 1
 489 683 l 1
 476 691 l 2
 456.666666667 701.666666667 452 713 462 725 c 0
 465.333333333 729.666666667 469.666666667 732.833333333 475 734.5 c 128
 480.333333333 736.166666667 486 735.666666667 492 733 c 0
 550.666666667 700.333333333 600.666666667 657.666666667 642 605 c 0
 705.333333333 526.333333333 732 442 722 352 c 0
 707.333333333 230.666666667 661.666666667 136.333333333 585 69 c 0
 557.666666667 45.6666666667 525.833333333 30.5 489.5 23.5 c 128
 453.166666667 16.5 420.333333333 19.1666666667 391 31.5 c 128
 361.666666667 43.8333333333 343 64.6666666667 335 94 c 1
 313 65.3333333333 285 45 251 33 c 0
 217.666666667 21 185 18 153 24 c 0
 97 35.3333333333 63.3333333333 70.6666666667 52 130 c 0
 42.6666666667 178.666666667 47.3333333333 229.333333333 66 282 c 0
 92.6666666667 357.333333333 141 411 211 443 c 0
 263.666666667 467 317.666666667 473.666666667 373 463 c 0
 383 461 392.666666667 457.666666667 402 453 c 1
EndSplineSet
EndChar

StartChar: si_Dda
Encoding: 35 3497 36
GlifName: si_D_da
Width: 0
Flags: W
LayerCount: 3
Back
Fore
Layer: 2
SplineSet
96 404 m 128
 98 414 105.666666667 420.666666667 119 424 c 1
 423 424 l 1
 429 447.333333333 424.666666667 465 410 477 c 128
 395.333333333 489 377 493 355 489 c 128
 333 485 315.333333333 473.666666667 302 455 c 1
 285.333333333 437.666666667 266 431.333333333 244 436 c 0
 230.666666667 438.666666667 222.833333333 443.333333333 220.5 450 c 128
 218.166666667 456.666666667 218 463.5 220 470.5 c 128
 222 477.5 229 486.833333333 241 498.5 c 128
 253 510.166666667 268.666666667 520 288 528 c 128
 307.333333333 536 326.666666667 540.666666667 346 542 c 0
 386.666666667 544.666666667 420.666666667 535.666666667 448 515 c 0
 466.666666667 499.666666667 473 472.666666667 467 434 c 0
 464.333333333 412.666666667 459.5 399.166666667 452.5 393.5 c 128
 445.5 387.833333333 439 385 433 385 c 2
 260 385 l 2
 221.333333333 385 186.166666667 369.833333333 154.5 339.5 c 128
 122.833333333 309.166666667 102.333333333 273.333333333 93 232 c 0
 78.3333333333 169.333333333 93.6666666667 127 139 105 c 0
 153 97 170.666666667 93 192 93 c 0
 269.333333333 91 317 128 335 204 c 0
 335.666666667 210 338.666666667 214.666666667 344 218 c 128
 349.333333333 221.333333333 354.666666667 223 360 223 c 128
 365.333333333 223 369.666666667 221.333333333 373 218 c 128
 376.333333333 214.666666667 377 209.333333333 375 202 c 0
 367.666666667 150 381.666666667 116.333333333 417 101 c 0
 430.333333333 95 447.333333333 92.5 468 93.5 c 128
 488.666666667 94.5 507.333333333 98.6666666667 524 106 c 128
 540.666666667 113.333333333 555.333333333 123 568 135 c 0
 592 155.666666667 613.833333333 187.666666667 633.5 231 c 128
 653.166666667 274.333333333 667.166666667 333.666666667 675.5 409 c 128
 683.833333333 484.333333333 672 548 640 600 c 0
 600.666666667 664.666666667 535.333333333 696.666666667 444 696 c 0
 364.666666667 696 297 677.666666667 241 641 c 0
 228.333333333 633 217 624 207 614 c 0
 201 608.666666667 195.166666667 606 189.5 606 c 128
 183.833333333 606 179.666666667 607.666666667 177 611 c 0
 165.666666667 625.666666667 178.666666667 644.666666667 216 668 c 0
 285.333333333 713.333333333 367 736 461 736 c 0
 504.333333333 736 545.333333333 726.666666667 584 708 c 0
 665.333333333 671.333333333 709.666666667 597.666666667 717 487 c 0
 723 415.666666667 712 335.333333333 684 246 c 0
 653.333333333 146.666666667 598.333333333 76.3333333333 519 35 c 0
 489.666666667 20.3333333333 456.666666667 16.6666666667 420 24 c 0
 364 35.3333333333 334.666666667 59 332 95 c 1
 303.333333333 57.6666666667 264.666666667 34 216 24 c 128
 167.333333333 14 128.333333333 22.3333333333 99 49 c 0
 49.6666666667 92.3333333333 34.3333333333 152.333333333 53 229 c 0
 65 279.666666667 85 319 113 347 c 0
 127 361 142.333333333 373.666666667 159 385 c 1
 110 385 l 1
 98.6666666667 387.666666667 94 394 96 404 c 128
EndSplineSet
EndChar

StartChar: si_Ddha
Encoding: 36 3498 37
GlifName: si_D_dha
Width: 0
Flags: W
LayerCount: 3
Back
Fore
Layer: 2
SplineSet
109 452 m 128
 111.666666667 462.666666667 119.666666667 469.666666667 133 473 c 1
 433 472 l 1
 439 497.333333333 434.333333333 516.333333333 419 529 c 128
 403.666666667 541.666666667 384.166666667 545.666666667 360.5 541 c 128
 336.833333333 536.333333333 317.666666667 524.333333333 303 505 c 1
 285.666666667 487 265 480.333333333 241 485 c 0
 227 488.333333333 219 493.5 217 500.5 c 128
 215 507.5 214.833333333 514.833333333 216.5 522.5 c 128
 218.166666667 530.166666667 225.333333333 540 238 552 c 128
 250.666666667 564 267.333333333 574.333333333 288 583 c 0
 308 591.666666667 328.666666667 596.666666667 350 598 c 0
 394 601.333333333 430.333333333 591.666666667 459 569 c 0
 479 553 486.333333333 526 481 488 c 128
 475.666666667 450 463 431 443 431 c 2
 279 431 l 2
 237.666666667 431 200.166666667 414.666666667 166.5 382 c 128
 132.833333333 349.333333333 111 311.5 101 268.5 c 128
 91 225.5 96 190.5 116 163.5 c 128
 136 136.5 166.333333333 122 207 120 c 0
 291.666666667 117.333333333 343.666666667 155.666666667 363 235 c 1
 369.666666667 247 378.333333333 253.166666667 389 253.5 c 128
 399.666666667 253.833333333 405 248 405 236 c 1
 406 236 l 1
 404 230 l 1
 398.666666667 190 405.666666667 160.666666667 425 142 c 128
 444.333333333 123.333333333 471 116 505 120 c 0
 564.333333333 127.333333333 612.666666667 152 650 194 c 0
 686.666666667 234.666666667 712.333333333 300.666666667 727 392 c 0
 736.333333333 453.333333333 724.666666667 514 692 574 c 1
 655.333333333 539.333333333 614 524.333333333 568 529 c 0
 548 531 529.666666667 538 513 550 c 0
 497.666666667 562 487.333333333 577.666666667 482 597 c 0
 471.333333333 634.333333333 477 669.666666667 499 703 c 0
 503 709.666666667 507.333333333 716.333333333 512 723 c 128
 516.666666667 729.666666667 520.333333333 736.666666667 523 744 c 1
 523 748 l 1
 523 751 l 1
 509 759 l 2
 488.333333333 770.333333333 483.333333333 782.666666667 494 796 c 0
 497.333333333 800.666666667 502 804 508 806 c 128
 514 808 519.666666667 807.333333333 525 804 c 0
 588.333333333 769.333333333 642.333333333 724 687 668 c 0
 754.333333333 583.333333333 782.333333333 493 771 397 c 0
 756.333333333 267.666666667 707.666666667 167.333333333 625 96 c 0
 587.666666667 63.3333333333 543.333333333 45.6666666667 492 43 c 128
 440.666666667 40.3333333333 402.666666667 54.3333333333 378 85 c 0
 369.333333333 96.3333333333 363 108.666666667 359 122 c 1
 323.666666667 76.6666666667 280.333333333 50.6666666667 229 44 c 128
 177.666666667 37.3333333333 137.333333333 46.3333333333 108 71 c 0
 71.3333333333 100.333333333 51.6666666667 139.333333333 49 188 c 128
 46.3333333333 236.666666667 58.6666666667 287 86 339 c 0
 102.666666667 373 131 403.666666667 171 431 c 1
 124 431 l 1
 111.333333333 434.333333333 106.333333333 441.333333333 109 452 c 128
672 607 m 1
 642 651 604 690.666666667 558 726 c 1
 553.333333333 716.666666667 548 707 542 697 c 0
 519.333333333 660.333333333 513.666666667 632 525 612 c 0
 538.333333333 587.333333333 560.5 574.5 591.5 573.5 c 128
 622.5 572.5 649.333333333 583.666666667 672 607 c 1
EndSplineSet
EndChar

StartChar: si_Nna
Encoding: 37 3499 38
GlifName: si_N_na
Width: 0
Flags: W
LayerCount: 3
Back
Fore
Layer: 2
SplineSet
757 172 m 1
 774.333333333 168 789.666666667 169.666666667 803 177 c 2
 818 188 l 1
 829 200 l 1
 837 221 l 1
 839.666666667 239 837.5 251.833333333 830.5 259.5 c 128
 823.5 267.166666667 816 271 808 271 c 0
 794 271 782 268.666666667 772 264 c 0
 750.666666667 254 738.333333333 238.333333333 735 217 c 0
 733.666666667 208.333333333 735.333333333 198 740 186 c 1
 757 172 l 1
414.5 243.5 m 128
 426.166666667 239.833333333 438.833333333 240.833333333 452.5 246.5 c 128
 466.166666667 252.166666667 477.333333333 261.333333333 486 274 c 128
 494.666666667 286.666666667 498 300.166666667 496 314.5 c 128
 494 328.833333333 488.666666667 337 480 339 c 1
 469.333333333 346.333333333 457 348.666666667 443 346 c 128
 429 343.333333333 417 337 407 327 c 128
 397 317 390.666666667 306.5 388 295.5 c 128
 385.333333333 284.5 386.166666667 274 390.5 264 c 128
 394.833333333 254 402.833333333 247.166666667 414.5 243.5 c 128
298 463 m 0
 283.333333333 447 271.5 428.666666667 262.5 408 c 128
 253.5 387.333333333 248.333333333 369 247 353 c 1
 357.666666667 422.333333333 468.666666667 483.666666667 580 537 c 1
 529.333333333 559 471 558.333333333 405 535 c 0
 363.666666667 519.666666667 328 495.666666667 298 463 c 0
515.5 372 m 128
 525.833333333 363.333333333 533.5 349.166666667 538.5 329.5 c 128
 543.5 309.833333333 537 283.666666667 519 251 c 0
 497 209.666666667 457 182.666666667 399 170 c 0
 361.666666667 162 329.666666667 163 303 173 c 0
 251 191.666666667 219 227.666666667 207 281 c 1
 150 247 l 1
 163.333333333 240.333333333 174 231.333333333 182 220 c 0
 190.666666667 208.666666667 200.333333333 196.333333333 211 183 c 0
 233 154.333333333 260.166666667 135.333333333 292.5 126 c 128
 324.833333333 116.666666667 364.333333333 115 411 121 c 0
 496.333333333 132.333333333 562 162.5 608 211.5 c 128
 654 260.5 677.5 315.333333333 678.5 376 c 128
 679.5 436.666666667 660.333333333 483 621 515 c 1
 522.333333333 467.666666667 444 426.666666667 386 392 c 128
 328 357.333333333 281.333333333 329.333333333 246 308 c 1
 253.333333333 268.666666667 273.666666667 239.666666667 307 221 c 0
 325.666666667 211 349.333333333 207 378 209 c 1
 358.666666667 219.666666667 347 236.833333333 343 260.5 c 128
 339 284.166666667 343.5 305.333333333 356.5 324 c 128
 369.5 342.666666667 382.5 356.666666667 395.5 366 c 128
 408.5 375.333333333 422.333333333 382 437 386 c 128
 451.666666667 390 465.833333333 390.833333333 479.5 388.5 c 128
 493.166666667 386.166666667 505.166666667 380.666666667 515.5 372 c 128
914 362 m 0
 902 362 896.666666667 368.333333333 898 381 c 1
 897 381 l 1
 898 405 l 2
 898 427.666666667 887 442 865 448 c 128
 843 454 821.666666667 450.333333333 801 437 c 0
 767 416.333333333 743.666666667 377.333333333 731 320 c 0
 727.666666667 304.666666667 725.666666667 290 725 276 c 1
 746.333333333 297.333333333 770.666666667 309.333333333 798 312 c 128
 825.333333333 314.666666667 847.333333333 307.5 864 290.5 c 128
 880.666666667 273.5 886 252.166666667 880 226.5 c 128
 874 200.833333333 864.333333333 181 851 167 c 128
 837.666666667 153 822.833333333 142.833333333 806.5 136.5 c 128
 790.166666667 130.166666667 773.333333333 127.666666667 756 129 c 0
 710 132.333333333 685 163 681 221 c 0
 681 224 681 224 681 230 c 2
 673 218 l 2
 645.666666667 173.333333333 608.333333333 135.333333333 561 104 c 0
 489.666666667 58 416.666666667 37.3333333333 342 42 c 0
 292 44.6666666667 252 60.6666666667 222 90 c 0
 204.666666667 107.333333333 189.666666667 125.833333333 177 145.5 c 128
 164.333333333 165.166666667 152.5 181.333333333 141.5 194 c 128
 130.5 206.666666667 116.333333333 214 99 216 c 1
 93.6666666667 213.333333333 88.6666666667 210.5 84 207.5 c 128
 79.3333333333 204.5 74 201.666666667 68 199 c 0
 55.3333333333 193 46.6666666667 194.333333333 42 203 c 128
 37.3333333333 211.666666667 40.3333333333 221.333333333 51 232 c 1
 89.6666666667 258 139.666666667 289.666666667 201 327 c 1
 201 394.333333333 232.166666667 456 294.5 512 c 128
 356.833333333 568 428.333333333 596 509 596 c 0
 553.666666667 596 594 585 630 563 c 1
 647.333333333 571.666666667 671 583 701 597 c 0
 731.666666667 611.666666667 764.666666667 627.666666667 800 645 c 0
 946 716.333333333 1043.66666667 762.333333333 1093 783 c 0
 1101 785 1107 784.666666667 1111 782 c 256
 1115 779.333333333 1116.66666667 775.333333333 1116 770 c 0
 1114 746.666666667 1079.66666667 717 1013 681 c 0
 974.333333333 660.333333333 937 642.833333333 901 628.5 c 128
 865 614.166666667 837 603.333333333 817 596 c 0
 737.666666667 565.333333333 688.666666667 545.333333333 670 536 c 1
 698.666666667 508 715.333333333 469.666666667 720 421 c 2
 722 404 l 1
 743.333333333 442 772.333333333 468.833333333 809 484.5 c 128
 845.666666667 500.166666667 878.666666667 497.666666667 908 477 c 0
 917.333333333 471 924.333333333 463.333333333 929 454 c 1
 951 488 978.666666667 511 1012 523 c 128
 1045.33333333 535 1073.66666667 534.333333333 1097 521 c 0
 1131 501.666666667 1145.66666667 453.666666667 1141 377 c 0
 1138.33333333 335 1132.66666667 300.333333333 1124 273 c 0
 1106.66666667 221 1088.33333333 178 1069 144 c 0
 1027 72.6666666667 981.666666667 36.3333333333 933 35 c 0
 897.666666667 33.6666666667 873 47.6666666667 859 77 c 0
 851.666666667 91.6666666667 848.666666667 108.333333333 850 127 c 0
 852.666666667 140.333333333 859.666666667 148.333333333 871 151 c 128
 882.333333333 153.666666667 889.666666667 149 893 137 c 1
 891.666666667 103.666666667 906 86.3333333333 936 85 c 0
 965.333333333 83.6666666667 996.666666667 127.333333333 1030 216 c 0
 1041.33333333 244.666666667 1049.66666667 271 1055 295 c 0
 1075.66666667 385 1075 442.333333333 1053 467 c 0
 1047.66666667 473 1039.66666667 476 1029 476 c 0
 989.666666667 474 960 443 940 383 c 0
 937.333333333 375.666666667 933.5 370.333333333 928.5 367 c 128
 923.5 363.666666667 918.666666667 362 914 362 c 0
EndSplineSet
EndChar

StartChar: si_Nndda
Encoding: 38 3500 39
GlifName: si_N_ndda
Width: 0
Flags: W
LayerCount: 3
Back
Fore
Layer: 2
SplineSet
212.5 454 m 128
 214.833333333 464.666666667 223 471.666666667 237 475 c 1
 540 474 l 1
 544.666666667 491.333333333 544 505.666666667 538 517 c 0
 525.333333333 540.333333333 504.666666667 549.833333333 476 545.5 c 128
 447.333333333 541.166666667 425.666666667 528.666666667 411 508 c 1
 411 507 l 1
 393.666666667 489 373 482.333333333 349 487 c 0
 335 490.333333333 327 495 325 501 c 128
 323 507 322.333333333 512.333333333 323 517 c 1
 239 504.333333333 177 461.333333333 137 388 c 0
 107 333.333333333 94.3333333333 274.666666667 99 212 c 0
 100.333333333 193.333333333 103.333333333 176.333333333 108 161 c 1
 106.666666667 147 100.5 138 89.5 134 c 128
 78.5 130 70.3333333333 133.333333333 65 144 c 0
 42.3333333333 220 52 300.666666667 94 386 c 0
 116.666666667 432.666666667 142.333333333 467.333333333 171 490 c 0
 181.666666667 498 195.666666667 508 213 520 c 0
 248.333333333 544 295.666666667 558 355 562 c 1
 388.333333333 587.333333333 425.5 600.333333333 466.5 601 c 128
 507.5 601.666666667 541 591.666666667 567 571 c 0
 586.333333333 555 593.333333333 528 588 490 c 128
 582.666666667 452 570.333333333 433 551 433 c 2
 367 433 l 2
 325.666666667 433 288 416.666666667 254 384 c 128
 220 351.333333333 198 313 188 269 c 0
 172.666666667 202.333333333 189 157.333333333 237 134 c 0
 252.333333333 126 271.333333333 121.666666667 294 121 c 0
 376 117.666666667 427 157 447 239 c 0
 447.666666667 245.666666667 450.833333333 250.833333333 456.5 254.5 c 128
 462.166666667 258.166666667 467.833333333 260 473.5 260 c 128
 479.166666667 260 483.833333333 258.166666667 487.5 254.5 c 128
 491.166666667 250.833333333 491.333333333 245 488 237 c 0
 480.666666667 181.666666667 495.666666667 145.666666667 533 129 c 0
 547.666666667 123 566.166666667 120.5 588.5 121.5 c 128
 610.833333333 122.5 630.666666667 127 648 135 c 0
 665.333333333 142.333333333 681 152.333333333 695 165 c 0
 721 188.333333333 744.5 222.833333333 765.5 268.5 c 128
 786.5 314.166666667 801.333333333 377.5 810 458.5 c 128
 818.666666667 539.5 806 607.333333333 772 662 c 0
 730 731.333333333 660 765.666666667 562 765 c 0
 477.333333333 765 405.333333333 745.333333333 346 706 c 0
 332.666666667 697.333333333 320.333333333 687.666666667 309 677 c 0
 302.333333333 671.666666667 296 669 290 669 c 0
 284.666666667 669 280.333333333 670.666666667 277 674 c 0
 265.666666667 688.666666667 280 709 320 735 c 0
 393.333333333 783 480 807 580 807 c 0
 626.666666667 807 671 797.333333333 713 778 c 0
 799.666666667 737.333333333 847 658.333333333 855 541 c 0
 860.333333333 464.333333333 848.333333333 378.666666667 819 284 c 0
 786.333333333 178.666666667 727.333333333 104 642 60 c 0
 599.333333333 38 552.666666667 36.3333333333 502 55 c 0
 472 66.3333333333 452 89 442 123 c 1
 412 82.3333333333 371 56.8333333333 319 46.5 c 128
 267 36.1666666667 225.666666667 45 195 73 c 0
 141.666666667 119.666666667 125 184 145 266 c 0
 157.666666667 319.333333333 179.333333333 361.333333333 210 392 c 0
 224.666666667 406.666666667 241 420.333333333 259 433 c 1
 227 433 l 1
 215 436.333333333 210.166666667 443.333333333 212.5 454 c 128
EndSplineSet
EndChar

StartChar: si_Ta
Encoding: 39 3501 40
GlifName: si_T_a
Width: 0
Flags: W
LayerCount: 3
Back
Fore
Layer: 2
SplineSet
285 452.5 m 128
 279.666666667 448.833333333 264.333333333 434.5 239 409.5 c 128
 213.666666667 384.5 178.333333333 345.333333333 133 292 c 1
 148.333333333 286.666666667 165 278.333333333 183 267 c 0
 216.333333333 247 245 233.666666667 269 227 c 128
 293 220.333333333 321.333333333 218 354 220 c 0
 476 229.333333333 550.333333333 274.666666667 577 356 c 1
 588.333333333 405.333333333 586.666666667 439.666666667 572 459 c 0
 544.666666667 496.333333333 501.833333333 515 443.5 515 c 128
 385.166666667 515 336.333333333 497.333333333 297 462 c 0
 294.333333333 459.333333333 290.333333333 456.166666667 285 452.5 c 128
92 239 m 0
 89.3333333333 235.666666667 86.1666666667 231.5 82.5 226.5 c 128
 78.8333333333 221.5 74 218.166666667 68 216.5 c 128
 62 214.833333333 57 215 53 217 c 0
 42.3333333333 222.333333333 41.3333333333 232 50 246 c 0
 118.666666667 336.666666667 184.666666667 412 248 472 c 0
 260.666666667 483.333333333 272.166666667 493.833333333 282.5 503.5 c 128
 292.833333333 513.166666667 302.666666667 522.333333333 312 531 c 1
 314.666666667 537.666666667 317.166666667 545.833333333 319.5 555.5 c 128
 321.833333333 565.166666667 323 574.5 323 583.5 c 128
 323 592.5 321.5 600 318.5 606 c 128
 315.5 612 309.666666667 614.666666667 301 614 c 0
 251.666666667 602 222 568.666666667 212 514 c 0
 208 489.333333333 197 470.666666667 179 458 c 0
 171 452.666666667 161.666666667 449.666666667 151 449 c 0
 140.333333333 451 133.333333333 454 130 458 c 128
 126.666666667 462 124.333333333 470.333333333 123 483 c 0
 127.666666667 529 146.666666667 567.166666667 180 597.5 c 128
 213.333333333 627.833333333 239.333333333 646 258 652 c 0
 311.333333333 668.666666667 347 659.666666667 365 625 c 0
 371 614.333333333 372.333333333 598.666666667 369 578 c 1
 527.666666667 698 660.666666667 726.333333333 768 663 c 0
 828.666666667 626.333333333 858.333333333 561.666666667 857 469 c 0
 856.333333333 443.666666667 853 418 847 392 c 128
 841 366 833 341.666666667 823 319 c 0
 779 222.333333333 721.333333333 165 650 147 c 0
 616 138.333333333 585.666666667 140 559 152 c 1
 548.333333333 160 546.5 169.333333333 553.5 180 c 128
 560.5 190.666666667 569.666666667 194.666666667 581 192 c 1
 612.333333333 174.666666667 646.666666667 178 684 202 c 128
 721.333333333 226 748 255 764 289 c 0
 795.333333333 353 808 410.5 802 461.5 c 128
 796 512.5 774.333333333 553 737 583 c 0
 693 618.333333333 638 632.333333333 572 625 c 128
 506 617.666666667 447 592.666666667 395 550 c 1
 464.333333333 564 525.333333333 554.333333333 578 521 c 0
 608 502.333333333 625 471 629 427 c 0
 635.666666667 348.333333333 601 276 525 210 c 0
 481 172 431 149.666666667 375 143 c 0
 301.666666667 134.333333333 235 158.666666667 175 216 c 0
 166 225 166 225 158 233 c 0
 140 251 118 253 92 239 c 0
EndSplineSet
EndChar

StartChar: si_Tha
Encoding: 40 3502 41
GlifName: si_T_ha
Width: 0
Flags: W
LayerCount: 3
Back
Fore
Layer: 2
SplineSet
171 415 m 0
 189 426.333333333 214.333333333 436.333333333 247 445 c 128
 279.666666667 453.666666667 309.666666667 457.166666667 337 455.5 c 128
 364.333333333 453.833333333 379.166666667 451.166666667 381.5 447.5 c 128
 383.833333333 443.833333333 384.666666667 439.5 384 434.5 c 128
 383.333333333 429.5 380.833333333 425 376.5 421 c 128
 372.166666667 417 366 414.666666667 358 414 c 0
 282 416.666666667 227.333333333 407.666666667 194 387 c 256
 160.666666667 366.333333333 135.333333333 341 118 311 c 0
 86 256.333333333 84.6666666667 208.666666667 114 168 c 0
 143.333333333 128 192 103 260 93 c 0
 311.333333333 85.6666666667 364.5 90.8333333333 419.5 108.5 c 128
 474.5 126.166666667 522 156.166666667 562 198.5 c 128
 602 240.833333333 626.5 290 635.5 346 c 128
 644.5 402 635 458.666666667 607 516 c 1
 589.666666667 500 570.166666667 488.666666667 548.5 482 c 128
 526.833333333 475.333333333 506.333333333 473.166666667 487 475.5 c 128
 467.666666667 477.833333333 450 484.666666667 434 496 c 0
 419.333333333 507.333333333 409 521.666666667 403 539 c 0
 395 567.666666667 403.333333333 600.666666667 428 638 c 0
 431.333333333 644.666666667 435.666666667 650.833333333 441 656.5 c 128
 446.333333333 662.166666667 449.666666667 667.333333333 451 672 c 2
 452 679 l 1
 449 683 l 1
 426 698 l 2
 414.666666667 704 413.333333333 712.666666667 422 724 c 0
 426 729.333333333 430.666666667 733 436 735 c 0
 449.333333333 739.666666667 482.5 720 535.5 676 c 128
 588.5 632 628 580.166666667 654 520.5 c 128
 680 460.833333333 685.166666667 395.666666667 669.5 325 c 128
 653.833333333 254.333333333 619.333333333 190.333333333 566 133 c 0
 512.666666667 75 441.666666667 38.6666666667 353 24 c 0
 288.333333333 13.3333333333 226.833333333 19 168.5 41 c 128
 110.166666667 63 72.6666666667 100.333333333 56 153 c 0
 44.6666666667 187.666666667 45.3333333333 225.666666667 58 267 c 0
 76.6666666667 330.333333333 114.333333333 379.666666667 171 415 c 0
590 547 m 1
 563.333333333 587 528 624.666666667 484 660 c 1
 479.333333333 651.333333333 473.666666667 642.333333333 467 633 c 0
 442.333333333 596.333333333 434.333333333 570.666666667 443 556 c 0
 456.333333333 528.666666667 478.833333333 514.5 510.5 513.5 c 128
 542.166666667 512.5 568.666666667 523.666666667 590 547 c 1
EndSplineSet
EndChar

StartChar: si_Da
Encoding: 41 3503 42
GlifName: si_D_a
Width: 0
Flags: W
LayerCount: 3
Back
Fore
Layer: 2
SplineSet
519 581 m 1
 523.666666667 598.333333333 522.833333333 612.666666667 516.5 624 c 128
 510.166666667 635.333333333 501.166666667 643.666666667 489.5 649 c 128
 477.833333333 654.333333333 464.666666667 656.166666667 450 654.5 c 128
 435.333333333 652.833333333 422 647.333333333 410 638 c 0
 372.666666667 600 339.666666667 588.333333333 311 603 c 0
 302.333333333 610.333333333 298.666666667 618 300 626 c 0
 306.666666667 654.666666667 331 677.833333333 373 695.5 c 128
 415 713.166666667 454.833333333 716.833333333 492.5 706.5 c 128
 530.166666667 696.166666667 552.666666667 680.5 560 659.5 c 128
 567.333333333 638.5 569.5 618.333333333 566.5 599 c 128
 563.5 579.666666667 559.666666667 565.333333333 555 556 c 0
 550.333333333 543.333333333 541.333333333 536.333333333 528 535 c 1
 479.333333333 545 417.666666667 546.833333333 343 540.5 c 128
 268.333333333 534.166666667 211 499.666666667 171 437 c 0
 157.666666667 415.666666667 147.5 391.166666667 140.5 363.5 c 128
 133.5 335.833333333 133.333333333 311.833333333 140 291.5 c 128
 146.666666667 271.166666667 158.333333333 254.333333333 175 241 c 0
 206.333333333 215 250.166666667 201.666666667 306.5 201 c 128
 362.833333333 200.333333333 415.333333333 211.333333333 464 234 c 0
 472 237.333333333 478 237.333333333 482 234 c 128
 486 230.666666667 488.333333333 226.666666667 489 222 c 0
 490.333333333 217.333333333 488.666666667 212.333333333 484 207 c 0
 476 197.666666667 463.333333333 188.666666667 446 180 c 0
 416 165.333333333 392.5 145.5 375.5 120.5 c 128
 358.5 95.5 347 72.1666666667 341 50.5 c 128
 335 28.8333333333 335.333333333 12.1666666667 342 0.5 c 128
 348.666666667 -11.1666666667 358.333333333 -19.3333333333 371 -24 c 128
 383.666666667 -28.6666666667 397.833333333 -29.3333333333 413.5 -26 c 128
 429.166666667 -22.6666666667 444 -14.6666666667 458 -2 c 1
 470.666666667 5.33333333333 480.166666667 5.33333333333 486.5 -2 c 128
 492.833333333 -9.33333333333 491.333333333 -18.6666666667 482 -30 c 1
 455.333333333 -52 425.666666667 -64.6666666667 393 -68 c 0
 359.666666667 -71.3333333333 332.666666667 -65 312 -49 c 0
 268.666666667 -17 267 33 307 101 c 0
 322.333333333 127 340 147.666666667 360 163 c 1
 277.333333333 148.333333333 210.666666667 153.333333333 160 178 c 128
 109.333333333 202.666666667 77.5 240 64.5 290 c 128
 51.5 340 61.3333333333 392.333333333 94 447 c 0
 109.333333333 473.666666667 130.666666667 497 158 517 c 0
 226.666666667 567 317.666666667 590 431 586 c 0
 461.666666667 585.333333333 490.666666667 584 518 582 c 1
 519 581 l 1
EndSplineSet
EndChar

StartChar: si_Dha
Encoding: 42 3504 43
GlifName: si_D_ha
Width: 0
Flags: W
LayerCount: 3
Back
Fore
Layer: 2
SplineSet
158 24.5 m 128
 137.333333333 28.1666666667 120.666666667 35.6666666667 108 47 c 0
 84 67.6666666667 66.6666666667 93 56 123 c 0
 41.3333333333 171 44.6666666667 224.333333333 66 283 c 0
 93.3333333333 357.666666667 142 411 212 443 c 0
 265.333333333 467 319 473.666666667 373 463 c 0
 383 461 392.666666667 457.666666667 402 453 c 1
 409.333333333 444.333333333 409.666666667 435.5 403 426.5 c 128
 396.333333333 417.5 387 414.333333333 375 417 c 1
 365 422.333333333 351 426 333 428 c 0
 296.333333333 430.666666667 260.333333333 424.333333333 225 409 c 0
 169.666666667 385 130 343 106 283 c 0
 90.6666666667 245.666666667 85.6666666667 210.333333333 91 177 c 128
 96.3333333333 143.666666667 113.333333333 119.666666667 142 105 c 0
 157.333333333 97 175.666666667 93 197 93 c 0
 237 93 268.666666667 102 292 120 c 0
 316 138.666666667 332.333333333 166.666666667 341 204 c 0
 341.666666667 210 344.666666667 214.666666667 350 218 c 128
 355.333333333 221.333333333 360.5 223 365.5 223 c 128
 370.5 223 374.833333333 221.333333333 378.5 218 c 128
 382.166666667 214.666666667 382.666666667 209.333333333 380 202 c 0
 373.333333333 150 387.333333333 116.333333333 422 101 c 0
 436 95 453.166666667 92.5 473.5 93.5 c 128
 493.833333333 94.5 512.333333333 98.6666666667 529 106 c 128
 545.666666667 113.333333333 560.666666667 123 574 135 c 0
 597.333333333 155.666666667 618.833333333 187.666666667 638.5 231 c 128
 658.166666667 274.333333333 672.333333333 333.666666667 681 409 c 128
 689.666666667 484.333333333 678 548 646 600 c 0
 606 664.666666667 540.333333333 696.666666667 449 696 c 0
 369.666666667 696 302 677.666666667 246 641 c 0
 233.333333333 633 222 624 212 614 c 0
 206 608.666666667 200.166666667 606 194.5 606 c 128
 188.833333333 606 184.666666667 607.666666667 182 611 c 0
 175.333333333 619.666666667 177.666666667 629.333333333 189 640 c 0
 239 688.666666667 306.333333333 719 391 731 c 0
 415 734.333333333 438 736 460 736 c 0
 507.333333333 736 550.666666667 726.666666667 590 708 c 0
 670.666666667 671.333333333 714.666666667 597.666666667 722 487 c 0
 724.666666667 438.333333333 721.666666667 392.666666667 713 350 c 128
 704.333333333 307.333333333 696.333333333 272.666666667 689 246 c 0
 681 219.333333333 669.333333333 192.333333333 654 165 c 0
 622.666666667 107 579.333333333 63.6666666667 524 35 c 0
 494.666666667 20.3333333333 461.666666667 16.6666666667 425 24 c 0
 369.666666667 35.3333333333 340.333333333 59 337 95 c 1
 309 57.6666666667 270.666666667 34 222 24 c 0
 200 20.6666666667 178.666666667 20.8333333333 158 24.5 c 128
EndSplineSet
EndChar

StartChar: si_Na
Encoding: 43 3505 44
GlifName: si_N_a
Width: 0
Flags: W
LayerCount: 3
Back
Fore
Layer: 2
SplineSet
188 135 m 2
 170.666666667 105 147.333333333 79.6666666667 118 59 c 1
 175.333333333 23 257.666666667 19 365 47 c 0
 388.333333333 53 413.166666667 64.5 439.5 81.5 c 128
 465.833333333 98.5 488.333333333 117.666666667 507 139 c 128
 525.666666667 160.333333333 539 182.666666667 547 206 c 128
 555 229.333333333 556 249.5 550 266.5 c 128
 544 283.5 535.666666667 296.666666667 525 306 c 0
 515 316 503 323.666666667 489 329 c 0
 461.666666667 339.666666667 429.833333333 342.833333333 393.5 338.5 c 128
 357.166666667 334.166666667 324 323.333333333 294 306 c 1
 264 267.333333333 243 237 231 215 c 2
 188 135 l 2
287 358 m 1
 289.666666667 364.666666667 292.166666667 372.833333333 294.5 382.5 c 128
 296.833333333 392.166666667 298 401.5 298 410.5 c 128
 298 419.5 296.5 427 293.5 433 c 128
 290.5 439 284.666666667 441.666666667 276 441 c 0
 226 429 196.333333333 395.666666667 187 341 c 0
 183 316.333333333 172 297.666666667 154 285 c 0
 146 279.666666667 136.333333333 276.666666667 125 276 c 0
 115.666666667 276.666666667 109 279.333333333 105 284 c 128
 101 288.666666667 98.3333333333 297.333333333 97 310 c 1
 102.333333333 356 121.5 394 154.5 424 c 128
 187.5 454 213.666666667 472 233 478 c 0
 285.666666667 495.333333333 322 486.666666667 342 452 c 0
 346.666666667 444 348.333333333 432 347 416 c 1
 390.333333333 457.333333333 437.666666667 486.666666667 489 504 c 0
 506.333333333 510 523.666666667 514 541 516 c 0
 600.333333333 522.666666667 652 518.5 696 503.5 c 128
 740 488.5 773.833333333 464.5 797.5 431.5 c 128
 821.166666667 398.5 833.666666667 357.666666667 835 309 c 128
 836.333333333 260.333333333 824 205.333333333 798 144 c 0
 757.333333333 50 700 -7.33333333333 626 -28 c 0
 590 -37.3333333333 559.666666667 -35 535 -21 c 0
 525 -13 523.5 -4.33333333333 530.5 5 c 128
 537.5 14.3333333333 548.166666667 16.6666666667 562.5 12 c 128
 576.833333333 7.33333333333 593.666666667 7.66666666667 613 13 c 0
 633 19 652.333333333 28.6666666667 671 42 c 0
 712.333333333 71.3333333333 740.666666667 106 756 146 c 0
 782.666666667 215.333333333 787.333333333 275.333333333 770 326 c 0
 736 424 658.666666667 467.333333333 538 456 c 0
 466.666666667 450 406.333333333 422.333333333 357 373 c 1
 399.666666667 385.666666667 441 388 481 380 c 0
 543.666666667 368 583.333333333 335 600 281 c 0
 605.333333333 263 606.833333333 241.166666667 604.5 215.5 c 128
 602.166666667 189.833333333 593.666666667 163 579 135 c 128
 564.333333333 107 545.666666667 81.6666666667 523 59 c 0
 445.666666667 -19.6666666667 346 -48.6666666667 224 -28 c 0
 137.333333333 -13.3333333333 76.3333333333 19.6666666667 41 71 c 0
 34.3333333333 83 36.6666666667 93.3333333333 48 102 c 0
 52 105.333333333 57 107.166666667 63 107.5 c 128
 69 107.833333333 73.8333333333 105.5 77.5 100.5 c 128
 81.1666666667 95.5 84.6666666667 91.3333333333 88 88 c 1
 113.333333333 98 136.333333333 122.333333333 157 161 c 0
 201.666666667 246.333333333 245.333333333 312 288 358 c 1
 287 358 l 1
EndSplineSet
EndChar

StartChar: si_Nda
Encoding: 44 3507 45
GlifName: si_N_da
Width: 0
Flags: W
LayerCount: 3
Back
Fore
Layer: 2
SplineSet
416 55.5 m 128
 441.333333333 60.5 460 66 472 72 c 0
 496.666666667 83.3333333333 509.666666667 82 511 68 c 0
 512.333333333 54.6666666667 498.833333333 41.3333333333 470.5 28 c 128
 442.166666667 14.6666666667 420 -3.83333333333 404 -27.5 c 128
 388 -51.1666666667 377.333333333 -73.1666666667 372 -93.5 c 128
 366.666666667 -113.833333333 367 -129.333333333 373 -140 c 128
 379 -150.666666667 388 -158.333333333 400 -163 c 128
 412 -167.666666667 425.333333333 -168.333333333 440 -165 c 128
 454.666666667 -161.666666667 468.333333333 -153.666666667 481 -141 c 1
 493 -134.333333333 501.833333333 -134.666666667 507.5 -142 c 128
 513.166666667 -149.333333333 512 -158.333333333 504 -169 c 1
 479.333333333 -189 451.666666667 -200.666666667 421 -204 c 0
 389.666666667 -207.333333333 364.333333333 -201.333333333 345 -186 c 0
 304.333333333 -156 302.666666667 -109.333333333 340 -46 c 0
 354.666666667 -22 371.333333333 -2.66666666667 390 12 c 1
 312.666666667 -2 250.333333333 2.66666666667 203 26 c 128
 155.666666667 49.3333333333 125.833333333 84.3333333333 113.5 131 c 128
 101.166666667 177.666666667 110.333333333 226.666666667 141 278 c 0
 155.666666667 302.666666667 175.666666667 324.333333333 201 343 c 0
 264.333333333 391 349.333333333 413 456 409 c 0
 484.666666667 407.666666667 512 406 538 404 c 1
 539 403 l 1
 544.333333333 423 540.5 439.333333333 527.5 452 c 128
 514.5 464.666666667 497.833333333 471.5 477.5 472.5 c 128
 457.166666667 473.5 439.333333333 468.666666667 424 458 c 1
 388.666666667 421.333333333 357.666666667 410 331 424 c 0
 324.333333333 430 321.333333333 438 322 448 c 1
 282 444.666666667 243 431.333333333 205 408 c 0
 156.333333333 378 123 333.666666667 105 275 c 0
 86.3333333333 217 84 164.333333333 98 117 c 1
 96.6666666667 104.333333333 91 96 81 92 c 0
 71 87.3333333333 63.6666666667 90 59 100 c 0
 37.6666666667 170 45.6666666667 241.5 83 314.5 c 128
 120.333333333 387.5 168.333333333 437.333333333 227 464 c 0
 271 483.333333333 315.666666667 493.666666667 361 495 c 1
 389 513.666666667 420.333333333 522.666666667 455 522 c 128
 489.666666667 521.333333333 521.333333333 513 550 497 c 0
 566 488.333333333 576 471.333333333 580 446 c 0
 584 421.333333333 581.333333333 399.666666667 572 381 c 0
 567.333333333 368.333333333 558.666666667 361.333333333 546 360 c 1
 501.333333333 368.666666667 444 370.166666667 374 364.5 c 128
 304 358.833333333 250.333333333 326.666666667 213 268 c 0
 200.333333333 248.666666667 190.833333333 226 184.5 200 c 128
 178.166666667 174 178 151.5 184 132.5 c 128
 190 113.5 200.5 97.6666666667 215.5 85 c 128
 230.5 72.3333333333 249 63 271 57 c 128
 293 51 316.333333333 48 341 48 c 128
 365.666666667 48 390.666666667 50.5 416 55.5 c 128
EndSplineSet
EndChar

StartChar: si_Pa
Encoding: 45 3508 46
GlifName: si_P_a
Width: 0
Flags: W
LayerCount: 3
Back
Fore
Layer: 2
SplineSet
356 404 m 1
 360.666666667 421.333333333 359.666666667 435.333333333 353 446 c 0
 340.333333333 468 319.666666667 477 291 473 c 128
 262.333333333 469 240.666666667 456.666666667 226 436 c 1
 225 435 l 2
 207.666666667 417 187 410.333333333 163 415 c 0
 149 418.333333333 140.833333333 423.5 138.5 430.5 c 128
 136.166666667 437.5 136 444.833333333 138 452.5 c 128
 140 460.166666667 147.333333333 470 160 482 c 128
 172.666666667 494 189.333333333 504.333333333 210 513 c 128
 230.666666667 521.666666667 251.333333333 526.666666667 272 528 c 0
 316 531.333333333 352.333333333 521.666666667 381 499 c 0
 401 483 408.333333333 456.333333333 403 419 c 128
 397.666666667 381.666666667 385 362.333333333 365 361 c 0
 351.666666667 361.666666667 337.333333333 362.333333333 322 363 c 0
 268.666666667 366.333333333 225 357.833333333 191 337.5 c 128
 157 317.166666667 132.5 293 117.5 265 c 128
 102.5 237 94.3333333333 212.333333333 93 191 c 0
 92.3333333333 170.333333333 96.3333333333 152 105 136 c 0
 121 106 150.333333333 83.8333333333 193 69.5 c 128
 235.666666667 55.1666666667 275.5 48 312.5 48 c 128
 349.5 48 380.666666667 49.6666666667 406 53 c 0
 431.333333333 55.6666666667 456.333333333 60.6666666667 481 68 c 0
 535.666666667 83.3333333333 579.166666667 107 611.5 139 c 128
 643.833333333 171 658 209.666666667 654 255 c 128
 650 300.333333333 631 331.333333333 597 348 c 0
 572.333333333 360.666666667 535 365.666666667 485 363 c 0
 471.666666667 362.333333333 458.666666667 361.666666667 446 361 c 1
 434 364.333333333 429.666666667 372.666666667 433 386 c 0
 443.666666667 432.666666667 465.333333333 469.333333333 498 496 c 0
 522 516 551.166666667 527.166666667 585.5 529.5 c 128
 619.833333333 531.833333333 648.333333333 525.666666667 671 511 c 128
 693.666666667 496.333333333 705.666666667 480 707 462 c 0
 707.666666667 454.666666667 707.833333333 447.833333333 707.5 441.5 c 128
 707.166666667 435.166666667 704.333333333 430 699 426 c 128
 693.666666667 422 688 419.833333333 682 419.5 c 128
 676 419.166666667 670.833333333 421.166666667 666.5 425.5 c 128
 662.166666667 429.833333333 661 436.666666667 663 446 c 1
 660.333333333 450.666666667 657.333333333 456 654 462 c 128
 650.666666667 468 645.666666667 472.666666667 639 476 c 0
 624.333333333 483.333333333 606.666666667 487 586 487 c 128
 565.333333333 487 547.333333333 482.333333333 532 473 c 0
 508 458.333333333 490.666666667 435.666666667 480 405 c 1
 565.333333333 409.666666667 625.333333333 394.166666667 660 358.5 c 128
 694.666666667 322.833333333 706.5 276.333333333 695.5 219 c 128
 684.5 161.666666667 657.666666667 112.333333333 615 71 c 0
 544.333333333 4.33333333333 446 -29 320 -29 c 128
 194 -29 110 3.33333333333 68 68 c 0
 39.3333333333 112 36 166.333333333 58 231 c 0
 71.3333333333 271 93.6666666667 306 125 336 c 0
 173 382.666666667 234.666666667 405.666666667 310 405 c 0
 324 405 339.333333333 404.666666667 356 404 c 1
EndSplineSet
EndChar

StartChar: si_Pha
Encoding: 46 3509 47
GlifName: si_P_ha
Width: 0
Flags: W
LayerCount: 3
Back
Fore
Layer: 2
SplineSet
353 425 m 1
 359 448.333333333 354.666666667 466 340 478 c 128
 325.333333333 490 307 493.833333333 285 489.5 c 128
 263 485.166666667 245.333333333 473.666666667 232 455 c 1
 215.333333333 437.666666667 196 431.333333333 174 436 c 0
 160.666666667 438.666666667 152.833333333 443.333333333 150.5 450 c 128
 148.166666667 456.666666667 148 463.5 150 470.5 c 128
 152 477.5 159 486.833333333 171 498.5 c 128
 183 510.166666667 198.666666667 520 218 528 c 128
 237.333333333 536 256.666666667 540.666666667 276 542 c 0
 316.666666667 544.666666667 350.666666667 535.666666667 378 515 c 0
 396 499.666666667 402.666666667 474.5 398 439.5 c 128
 393.333333333 404.5 381.666666667 386.333333333 363 385 c 0
 349 385 335 385.333333333 321 386 c 128
 307 386.666666667 288.5 386.5 265.5 385.5 c 128
 242.5 384.5 218.666666667 377.333333333 194 364 c 0
 148 339.333333333 118 305.333333333 104 262 c 0
 86 206.666666667 98 164.5 140 135.5 c 128
 182 106.5 240 92 314 92 c 128
 388 92 453.333333333 108.166666667 510 140.5 c 128
 566.666666667 172.833333333 604 213.333333333 622 262 c 0
 658.666666667 363.333333333 657.666666667 448.333333333 619 517 c 1
 601.666666667 500.333333333 582.166666667 488.666666667 560.5 482 c 128
 538.833333333 475.333333333 518 473.166666667 498 475.5 c 128
 478 477.833333333 460.333333333 484.666666667 445 496 c 128
 429.666666667 507.333333333 419.333333333 521.666666667 414 539 c 0
 405.333333333 570.333333333 418 609.666666667 452 657 c 0
 456 663 459.333333333 669.333333333 462 676 c 2
 463 679 l 2
 463.666666667 679 463 680.333333333 461 683 c 2
 437 698 l 2
 426.333333333 704 425.333333333 712.666666667 434 724 c 0
 437.333333333 729.333333333 441.666666667 733 447 735 c 0
 460.333333333 739.666666667 493.5 720 546.5 676 c 128
 599.5 632 640.166666667 577.833333333 668.5 513.5 c 128
 696.833333333 449.166666667 698.666666667 377.166666667 674 297.5 c 128
 649.333333333 217.833333333 610 153.666666667 556 105 c 0
 484.666666667 39.6666666667 389.333333333 12 270 22 c 0
 222.666666667 26 186.666666667 33.3333333333 162 44 c 0
 117.333333333 62.6666666667 85 88 65 120 c 0
 50.3333333333 142 43.6666666667 167.333333333 45 196 c 0
 47.6666666667 242.666666667 65.3333333333 287.333333333 98 330 c 0
 146.666666667 394.666666667 217.333333333 427 310 427 c 0
 324 427 338.333333333 426.333333333 353 425 c 1
601 547 m 1
 575 587 539.666666667 624.666666667 495 660 c 1
 490.333333333 651.333333333 485 642.333333333 479 633 c 0
 454.333333333 596.333333333 445.666666667 570.666666667 453 556 c 0
 467 528.666666667 489.833333333 514.5 521.5 513.5 c 128
 553.166666667 512.5 579.666666667 523.666666667 601 547 c 1
EndSplineSet
EndChar

StartChar: si_Ba
Encoding: 47 3510 48
GlifName: si_B_a
Width: 0
Flags: W
LayerCount: 3
Back
Fore
Layer: 2
SplineSet
243.5 172 m 128
 247.833333333 185.333333333 246.666666667 198.166666667 240 210.5 c 128
 233.333333333 222.833333333 223.333333333 230.166666667 210 232.5 c 128
 196.666666667 234.833333333 183.166666667 233.166666667 169.5 227.5 c 128
 155.833333333 221.833333333 143.333333333 213 132 201 c 128
 120.666666667 189 113.666666667 175.333333333 111 160 c 1
 119 140 130 126.833333333 144 120.5 c 128
 158 114.166666667 171.833333333 113 185.5 117 c 128
 199.166666667 121 211.166666667 127.833333333 221.5 137.5 c 128
 231.833333333 147.166666667 239.166666667 158.666666667 243.5 172 c 128
662 382.5 m 128
 666.666666667 398.833333333 670.666666667 415.333333333 674 432 c 128
 677.333333333 448.666666667 680.5 469 683.5 493 c 128
 686.5 517 688 541.333333333 688 566 c 0
 686.666666667 620.666666667 676.666666667 665.666666667 658 701 c 0
 624.666666667 763 564.666666667 793.333333333 478 792 c 0
 426.666666667 790.666666667 375 777 323 751 c 0
 297 738.333333333 272.333333333 722.333333333 249 703 c 0
 235.666666667 692.333333333 225.166666667 691.5 217.5 700.5 c 128
 209.833333333 709.5 212 720 224 732 c 0
 279.333333333 776.666666667 339.666666667 806.833333333 405 822.5 c 128
 470.333333333 838.166666667 531 837.333333333 587 820 c 0
 710.333333333 782.666666667 768 680.333333333 760 513 c 0
 754 401.666666667 724.333333333 303 671 217 c 0
 622.333333333 139.666666667 562.666666667 92.3333333333 492 75 c 0
 478 71 463.833333333 69 449.5 69 c 128
 435.166666667 69 421.333333333 70.6666666667 408 74 c 0
 378.666666667 81.3333333333 356 95 340 115 c 128
 324 135 319.666666667 158.666666667 327 186 c 128
 334.333333333 213.333333333 357.166666667 242.666666667 395.5 274 c 128
 433.833333333 305.333333333 454.5 334.166666667 457.5 360.5 c 128
 460.5 386.833333333 450 407.666666667 426 423 c 128
 402 438.333333333 373.666666667 446 341 446 c 128
 308.333333333 446 277.666666667 440.833333333 249 430.5 c 128
 220.333333333 420.166666667 194.833333333 406.5 172.5 389.5 c 128
 150.166666667 372.5 132 353 118 331 c 128
 104 309 97.3333333333 286.666666667 98 264 c 2
 98 214 l 1
 116 242 141.166666667 261.166666667 173.5 271.5 c 128
 205.833333333 281.833333333 234 278.333333333 258 261 c 128
 282 243.666666667 291.833333333 219.166666667 287.5 187.5 c 128
 283.166666667 155.833333333 267.666666667 128.166666667 241 104.5 c 128
 214.333333333 80.8333333333 184.666666667 70.1666666667 152 72.5 c 128
 119.333333333 74.8333333333 95.5 89.6666666667 80.5 117 c 128
 65.5 144.333333333 57 174 55 206 c 0
 50.3333333333 267.333333333 61.6666666667 324.333333333 89 377 c 128
 116.333333333 429.666666667 157.666666667 469 213 495 c 0
 259 516.333333333 308.5 525 361.5 521 c 128
 414.5 517 453.666666667 501.666666667 479 475 c 128
 504.333333333 448.333333333 514.666666667 416.5 510 379.5 c 128
 505.333333333 342.5 489.333333333 308.333333333 462 277 c 0
 455.333333333 269 446.666666667 261.333333333 436 254 c 0
 391.333333333 221.333333333 368.666666667 196 368 178 c 0
 367.333333333 150 377.666666667 132.5 399 125.5 c 128
 420.333333333 118.5 439.666666667 116.5 457 119.5 c 128
 474.333333333 122.5 490.833333333 128.5 506.5 137.5 c 128
 522.166666667 146.5 536.666666667 158.333333333 550 173 c 128
 563.333333333 187.666666667 575.833333333 203.666666667 587.5 221 c 128
 599.166666667 238.333333333 609.833333333 256.5 619.5 275.5 c 128
 629.166666667 294.5 637.5 313 644.5 331 c 128
 651.5 349 657.333333333 366.166666667 662 382.5 c 128
EndSplineSet
EndChar

StartChar: si_Bha
Encoding: 48 3511 49
GlifName: si_B_ha
Width: 0
Flags: W
LayerCount: 3
Back
Fore
Layer: 2
SplineSet
234 85 m 0
 357.333333333 85 428 125 446 205 c 0
 450.666666667 228.333333333 447.5 245.833333333 436.5 257.5 c 128
 425.5 269.166666667 407.333333333 272.333333333 382 267 c 0
 374 267 368.166666667 268.833333333 364.5 272.5 c 128
 360.833333333 276.166666667 360 282 362 290 c 0
 378 344 405.666666667 395.333333333 445 444 c 0
 466.333333333 471.333333333 494.166666667 493.166666667 528.5 509.5 c 128
 562.833333333 525.833333333 594.666666667 533.333333333 624 532 c 0
 700.666666667 528.666666667 745 485 757 401 c 0
 770.333333333 309 749 219.666666667 693 133 c 0
 661 83 622 48 576 28 c 0
 551.333333333 17.3333333333 524.666666667 12.6666666667 496 14 c 0
 452 14 431.666666667 23.6666666667 435 43 c 0
 437.666666667 53 443.666666667 59.3333333333 453 62 c 0
 457.666666667 62.6666666667 460.666666667 63 462 63 c 0
 517.333333333 44.3333333333 568.333333333 54.6666666667 615 94 c 0
 640.333333333 115.333333333 658.833333333 137.333333333 670.5 160 c 128
 682.166666667 182.666666667 690.666666667 204 696 224 c 256
 701.333333333 244 704.666666667 264 706 284 c 0
 709.333333333 328 703.166666667 365.666666667 687.5 397 c 128
 671.833333333 428.333333333 646.666666667 446.666666667 612 452 c 0
 539.333333333 461.333333333 482 435.333333333 440 374 c 0
 426.666666667 354.666666667 416 333 408 309 c 1
 455.333333333 311 481.333333333 290.5 486 247.5 c 128
 490.666666667 204.5 481 164 457 126 c 0
 441 102 418.333333333 80.6666666667 389 62 c 0
 317 15.3333333333 242.666666667 2.66666666667 166 24 c 0
 138.666666667 31.3333333333 118 40.8333333333 104 52.5 c 128
 90 64.1666666667 78.8333333333 75 70.5 85 c 128
 62.1666666667 95 56 107.333333333 52 122 c 0
 47.3333333333 136 45 151 45 167 c 0
 44.3333333333 200.333333333 52 233.666666667 68 267 c 0
 88.6666666667 314.333333333 122.666666667 352.333333333 170 381 c 1
 106 381 l 1
 94.6666666667 383.666666667 90 389.833333333 92 399.5 c 128
 94 409.166666667 101.333333333 415.333333333 114 418 c 1
 359 418 l 1
 362.333333333 434.666666667 361.666666667 448 357 458 c 0
 345 478.666666667 325.5 487.166666667 298.5 483.5 c 128
 271.5 479.833333333 251.333333333 468 238 448 c 1
 222 430.666666667 202.666666667 424.333333333 180 429 c 0
 166.666666667 431.666666667 159 436.5 157 443.5 c 128
 155 450.5 154.666666667 457.333333333 156 464 c 128
 157.333333333 470.666666667 164 479.833333333 176 491.5 c 128
 188 503.166666667 203.666666667 513 223 521 c 128
 242.333333333 529 262 533.666666667 282 535 c 0
 323.333333333 538.333333333 357.333333333 529.333333333 384 508 c 0
 402 493.333333333 408.666666667 468.5 404 433.5 c 128
 399.333333333 398.5 387.666666667 380.333333333 369 379 c 0
 317.666666667 381.666666667 282 381 262 377 c 0
 220 370.333333333 184 353.333333333 154 326 c 128
 124 298.666666667 107 265.666666667 103 227 c 128
 99 188.333333333 109 155 133 127 c 128
 157 99 190.666666667 85 234 85 c 0
EndSplineSet
EndChar

StartChar: si_Ma
Encoding: 49 3512 50
GlifName: si_M_a
Width: 0
Flags: W
LayerCount: 3
Back
Fore
Layer: 2
SplineSet
465.5 417.5 m 128
 465.833333333 419.833333333 466.333333333 425.166666667 467 433.5 c 128
 467.666666667 441.833333333 465.166666667 448.666666667 459.5 454 c 128
 453.833333333 459.333333333 444.666666667 462.833333333 432 464.5 c 128
 419.333333333 466.166666667 406.666666667 461.666666667 394 451 c 0
 368 428.333333333 362.666666667 405.333333333 378 382 c 0
 384 373.333333333 395 369.666666667 411 371 c 128
 427 372.333333333 438 376 444 382 c 128
 450 388 454.5 393 457.5 397 c 128
 460.5 401 462.5 404.833333333 463.5 408.5 c 128
 464.5 412.166666667 465.166666667 415.166666667 465.5 417.5 c 128
198 616 m 0
 191.333333333 610.666666667 185 608 179 608 c 256
 173 608 169 610 167 614 c 0
 155.666666667 628 168.833333333 647.166666667 206.5 671.5 c 128
 244.166666667 695.833333333 290.333333333 715 345 729 c 128
 399.666666667 743 453.833333333 744.666666667 507.5 734 c 128
 561.166666667 723.333333333 605.5 701.666666667 640.5 669 c 128
 675.5 636.333333333 697.833333333 591.166666667 707.5 533.5 c 128
 717.166666667 475.833333333 709.666666667 406.5 685 325.5 c 128
 660.333333333 244.5 618 176 558 120 c 128
 498 64 428 31.3333333333 348 22 c 0
 268.666666667 13.3333333333 200.333333333 28 143 66 c 0
 124.333333333 77.3333333333 108.666666667 91.6666666667 96 109 c 0
 46.6666666667 169.666666667 39 247.666666667 73 343 c 0
 89 386.333333333 113.333333333 423 146 453 c 0
 164.666666667 469.666666667 183.5 481.666666667 202.5 489 c 128
 221.5 496.333333333 236.333333333 500.666666667 247 502 c 0
 271.666666667 504 289.666666667 498.333333333 301 485 c 0
 317.666666667 465 316 438 296 404 c 0
 266.666666667 355.333333333 268.666666667 320.333333333 302 299 c 0
 326.666666667 281.666666667 357 275.666666667 393 281 c 0
 433 286.333333333 464.833333333 304.5 488.5 335.5 c 128
 512.166666667 366.5 518.333333333 397.666666667 507 429 c 1
 504.333333333 396.333333333 488 369.666666667 458 349 c 128
 428 328.333333333 398.666666667 323.333333333 370 334 c 0
 353.333333333 340.666666667 341.5 352.833333333 334.5 370.5 c 128
 327.5 388.166666667 326.333333333 404.333333333 331 419 c 0
 340.333333333 444.333333333 354.333333333 464 373 478 c 0
 402.333333333 501.333333333 437 509.666666667 477 503 c 0
 525 493.666666667 550 464.666666667 552 416 c 0
 553.333333333 386 547.666666667 359 535 335 c 0
 512.333333333 296.333333333 483.333333333 267.333333333 448 248 c 0
 396.666666667 220.666666667 348.166666667 214 302.5 228 c 128
 256.833333333 242 232 272.666666667 228 320 c 0
 226.666666667 337.333333333 229.833333333 353.833333333 237.5 369.5 c 128
 245.166666667 385.166666667 251.666666667 397.666666667 257 407 c 256
 262.333333333 416.333333333 266.666666667 426 270 436 c 0
 272 460 261.5 469.166666667 238.5 463.5 c 128
 215.5 457.833333333 194 446.833333333 174 430.5 c 128
 154 414.166666667 137.5 394.166666667 124.5 370.5 c 128
 111.5 346.833333333 102.833333333 320.666666667 98.5 292 c 128
 94.1666666667 263.333333333 97 235.5 107 208.5 c 128
 117 181.5 132.333333333 159 153 141 c 0
 195.666666667 102.333333333 251.333333333 85.3333333333 320 90 c 128
 388.666666667 94.6666666667 451 116.333333333 507 155 c 128
 563 193.666666667 603.333333333 243.666666667 628 305 c 0
 639.333333333 332.333333333 648.333333333 360.333333333 655 389 c 128
 661.666666667 417.666666667 665.333333333 446 666 474 c 0
 668.666666667 563.333333333 639 626.666666667 577 664 c 0
 505 706.666666667 415.333333333 712 308 680 c 0
 264 666 227.333333333 644.666666667 198 616 c 0
EndSplineSet
EndChar

StartChar: si_Mba
Encoding: 50 3513 51
GlifName: si_M_ba
Width: 0
Flags: W
LayerCount: 3
Back
Fore
Layer: 2
SplineSet
679 205 m 0
 633.666666667 97.6666666667 565.333333333 36.6666666667 474 22 c 0
 426 15.3333333333 389.333333333 25.6666666667 364 53 c 0
 350 69.6666666667 346.666666667 95.3333333333 354 130 c 0
 356 142.666666667 363.333333333 150 376 152 c 0
 383 152 383 152 393.5 152 c 128
 400.5 152 407.833333333 152.166666667 415.5 152.5 c 128
 423.166666667 152.833333333 429.666666667 154.5 435 157.5 c 128
 440.333333333 160.5 443.333333333 165.333333333 444 172 c 1
 440 183.333333333 424.666666667 189.333333333 398 190 c 0
 383.333333333 191.333333333 370 192 358 192 c 0
 329.333333333 192 307.833333333 190.666666667 293.5 188 c 128
 279.166666667 185.333333333 270.333333333 181 267 175 c 2
 265 173 l 1
 262.333333333 165.666666667 263 160.666666667 267 158 c 128
 271 155.333333333 276 153.666666667 282 153 c 128
 288 152.333333333 294.333333333 152 301 152 c 128
 311 152 311 152 318 152 c 0
 330.666666667 151.333333333 336.666666667 145 336 133 c 0
 324 81.6666666667 297.333333333 48.1666666667 256 32.5 c 128
 214.666666667 16.8333333333 178.5 14.1666666667 147.5 24.5 c 128
 116.5 34.8333333333 92 55.6666666667 74 87 c 128
 56 118.333333333 48 159.833333333 50 211.5 c 128
 52 263.166666667 65.6666666667 315.333333333 91 368 c 0
 104.333333333 394 120 418.333333333 138 441 c 0
 150 457.666666667 168.333333333 471.666666667 193 483 c 0
 233 499.666666667 266 501.666666667 292 489 c 0
 322.666666667 473 326.333333333 442 303 396 c 0
 298.333333333 387.333333333 293.5 377.666666667 288.5 367 c 128
 283.5 356.333333333 282.166666667 345.666666667 284.5 335 c 128
 286.833333333 324.333333333 292.666666667 316 302 310 c 0
 320.666666667 296 348.666666667 289.666666667 386 291 c 0
 438 293.666666667 475 311 497 343 c 0
 510.333333333 362.333333333 516 383.333333333 514 406 c 0
 513.333333333 414 511.666666667 420.666666667 509 426 c 1
 504.333333333 393.333333333 488.333333333 367.666666667 461 349 c 0
 451.666666667 343 440.166666667 337.833333333 426.5 333.5 c 128
 412.833333333 329.166666667 399.833333333 328.166666667 387.5 330.5 c 128
 375.166666667 332.833333333 364.333333333 337 355 343 c 0
 337 358.333333333 329 379.166666667 331 405.5 c 128
 333 431.833333333 347.166666667 455.833333333 373.5 477.5 c 128
 399.833333333 499.166666667 431 507.333333333 467 502 c 0
 525.666666667 493.333333333 554.666666667 461 554 405 c 0
 554 371.666666667 546.333333333 343.666666667 531 321 c 0
 506.333333333 281.666666667 468.833333333 255.333333333 418.5 242 c 128
 368.166666667 228.666666667 322.333333333 233 281 255 c 0
 261 265 247.666666667 282 241 306 c 0
 237 322 238 338.333333333 244 355 c 128
 250 371.666666667 257.333333333 389.5 266 408.5 c 128
 274.666666667 427.5 277.333333333 439.666666667 274 445 c 0
 266.666666667 455.666666667 253.333333333 459.833333333 234 457.5 c 128
 214.666666667 455.166666667 197.666666667 447.666666667 183 435 c 0
 158.333333333 413.666666667 139.666666667 388 127 358 c 0
 102.333333333 300.666666667 94 247.166666667 102 197.5 c 128
 110 147.833333333 135.333333333 113 178 93 c 0
 195.333333333 85 211.666666667 81.3333333333 227 82 c 0
 243.666666667 82 255 83.3333333333 261 86 c 0
 276.333333333 91.3333333333 286 100.333333333 290 113 c 1
 244 113 221.333333333 128 222 158 c 0
 224 206.666666667 271.666666667 231 365 231 c 0
 441.666666667 231 481.666666667 216 485 186 c 0
 485.666666667 178 484.333333333 170 481 162 c 0
 471 134.666666667 450 119 418 115 c 0
 408.666666667 113.666666667 399.333333333 113 390 113 c 1
 387.333333333 95 399.666666667 84.8333333333 427 82.5 c 128
 454.333333333 80.1666666667 480.333333333 85 505 97 c 0
 550.333333333 117.666666667 588.333333333 151 619 197 c 0
 643 232.333333333 659 268 667 304 c 0
 682.333333333 372.666666667 688 429.666666667 684 475 c 0
 672.666666667 583 606.666666667 645.333333333 486 662 c 0
 426.666666667 670 367.333333333 665.666666667 308 649 c 0
 295.333333333 645 277.666666667 637.5 255 626.5 c 128
 232.333333333 615.5 216 608.333333333 206 605 c 0
 193.333333333 603.666666667 186.333333333 607.833333333 185 617.5 c 128
 183.666666667 627.166666667 188.5 635 199.5 641 c 128
 210.5 647 220.333333333 652 229 656 c 128
 237.666666667 660 246 663.666666667 254 667 c 128
 262 670.333333333 270.333333333 673.666666667 279 677 c 0
 286.333333333 679.666666667 297.333333333 684 312 690 c 0
 347.333333333 703.333333333 391.333333333 710 444 710 c 0
 534.666666667 710 607 684.333333333 661 633 c 0
 707 589.666666667 730.5 528 731.5 448 c 128
 732.5 368 715 287 679 205 c 0
442 463 m 128
 432 465.666666667 421.5 464.166666667 410.5 458.5 c 128
 399.5 452.833333333 390.666666667 446.333333333 384 439 c 0
 378.666666667 432.333333333 375 425 373 417 c 0
 369 401 372.166666667 387.833333333 382.5 377.5 c 128
 392.833333333 367.166666667 407 365 425 371 c 128
 443 377 455.666666667 387.333333333 463 402 c 128
 470.333333333 416.666666667 471.166666667 429.833333333 465.5 441.5 c 128
 459.833333333 453.166666667 452 460.333333333 442 463 c 128
EndSplineSet
EndChar

